<?xml version="1.0" encoding="utf-8"?>
<svg xmlns="http://www.w3.org/2000/svg" xmlns:xlink="http://www.w3.org/1999/xlink" width="1000" height="200" viewBox="0 0 4000 800">
<defs>
  <clipPath id="clip660">
    <rect x="0" y="0" width="4000" height="800"/>
  </clipPath>
</defs>
<path clip-path="url(#clip660)" d="
M0 800 L4000 800 L4000 0 L0 0  Z
  " fill="#ffffff" fill-rule="evenodd" fill-opacity="1"/>
<defs>
  <clipPath id="clip661">
    <rect x="800" y="0" width="2801" height="800"/>
  </clipPath>
</defs>
<path clip-path="url(#clip660)" d="
M47.2441 752.756 L3952.76 752.756 L3952.76 81.1361 L47.2441 81.1361  Z
  " fill="#ffffff" fill-rule="evenodd" fill-opacity="1"/>
<defs>
  <clipPath id="clip662">
    <rect x="47" y="81" width="3907" height="673"/>
  </clipPath>
</defs>
<polyline clip-path="url(#clip660)" style="stroke:#000000; stroke-linecap:butt; stroke-linejoin:round; stroke-width:4; stroke-opacity:1; fill:none" points="
  47.2441,752.756 3952.76,752.756 
  "/>
<polyline clip-path="url(#clip660)" style="stroke:#000000; stroke-linecap:butt; stroke-linejoin:round; stroke-width:4; stroke-opacity:1; fill:none" points="
  47.2441,752.756 47.2441,81.1361 
  "/>
<path clip-path="url(#clip660)" d="M1619.94 12.096 L1628.13 12.096 L1628.13 72.576 L1619.94 72.576 L1619.94 12.096 Z" fill="#000000" fill-rule="evenodd" fill-opacity="1" /><path clip-path="url(#clip660)" d="M1689.7 16.7545 L1689.7 25.383 Q1685.57 21.5346 1680.87 19.6307 Q1676.21 17.7268 1670.95 17.7268 Q1660.57 17.7268 1655.07 24.0867 Q1649.56 30.4061 1649.56 42.3968 Q1649.56 54.3469 1655.07 60.7069 Q1660.57 67.0263 1670.95 67.0263 Q1676.21 67.0263 1680.87 65.1223 Q1685.57 63.2184 1689.7 59.3701 L1689.7 67.9175 Q1685.41 70.8341 1680.59 72.2924 Q1675.81 73.7508 1670.46 73.7508 Q1656.73 73.7508 1648.83 65.3654 Q1640.93 56.9395 1640.93 42.3968 Q1640.93 27.8135 1648.83 19.4281 Q1656.73 11.0023 1670.46 11.0023 Q1675.89 11.0023 1680.67 12.4606 Q1685.49 13.8784 1689.7 16.7545 Z" fill="#000000" fill-rule="evenodd" fill-opacity="1" /><path clip-path="url(#clip660)" d="M1710.52 18.8205 L1710.52 41.5461 L1720.81 41.5461 Q1726.52 41.5461 1729.64 38.5889 Q1732.76 35.6318 1732.76 30.163 Q1732.76 24.7348 1729.64 21.7777 Q1726.52 18.8205 1720.81 18.8205 L1710.52 18.8205 M1702.34 12.096 L1720.81 12.096 Q1730.98 12.096 1736.16 16.714 Q1741.39 21.2916 1741.39 30.163 Q1741.39 39.1155 1736.16 43.6931 Q1730.98 48.2706 1720.81 48.2706 L1710.52 48.2706 L1710.52 72.576 L1702.34 72.576 L1702.34 12.096 Z" fill="#000000" fill-rule="evenodd" fill-opacity="1" /><path clip-path="url(#clip660)" d="M1778.42 27.2059 L1785.87 27.2059 L1785.87 72.576 L1778.42 72.576 L1778.42 27.2059 M1778.42 9.54393 L1785.87 9.54393 L1785.87 18.9825 L1778.42 18.9825 L1778.42 9.54393 Z" fill="#000000" fill-rule="evenodd" fill-opacity="1" /><path clip-path="url(#clip660)" d="M1808.84 14.324 L1808.84 27.2059 L1824.19 27.2059 L1824.19 32.9987 L1808.84 32.9987 L1808.84 57.6282 Q1808.84 63.1779 1810.34 64.7578 Q1811.88 66.3376 1816.53 66.3376 L1824.19 66.3376 L1824.19 72.576 L1816.53 72.576 Q1807.91 72.576 1804.62 69.3758 Q1801.34 66.1351 1801.34 57.6282 L1801.34 32.9987 L1795.87 32.9987 L1795.87 27.2059 L1801.34 27.2059 L1801.34 14.324 L1808.84 14.324 Z" fill="#000000" fill-rule="evenodd" fill-opacity="1" /><path clip-path="url(#clip660)" d="M1872.8 48.0275 L1872.8 51.6733 L1838.53 51.6733 Q1839.02 59.3701 1843.15 63.421 Q1847.32 67.4314 1854.73 67.4314 Q1859.03 67.4314 1863.04 66.3781 Q1867.09 65.3249 1871.06 63.2184 L1871.06 70.267 Q1867.05 71.9684 1862.84 72.8596 Q1858.62 73.7508 1854.29 73.7508 Q1843.43 73.7508 1837.07 67.4314 Q1830.75 61.1119 1830.75 50.3365 Q1830.75 39.1965 1836.75 32.6746 Q1842.78 26.1121 1852.99 26.1121 Q1862.15 26.1121 1867.45 32.0264 Q1872.8 37.9003 1872.8 48.0275 M1865.35 45.84 Q1865.27 39.7232 1861.9 36.0774 Q1858.58 32.4315 1853.07 32.4315 Q1846.84 32.4315 1843.07 35.9558 Q1839.34 39.4801 1838.77 45.8805 L1865.35 45.84 Z" fill="#000000" fill-rule="evenodd" fill-opacity="1" /><path clip-path="url(#clip660)" d="M1911.33 34.1734 Q1910.07 33.4443 1908.57 33.1202 Q1907.11 32.7556 1905.33 32.7556 Q1899.01 32.7556 1895.61 36.8875 Q1892.25 40.9789 1892.25 48.6757 L1892.25 72.576 L1884.75 72.576 L1884.75 27.2059 L1892.25 27.2059 L1892.25 34.2544 Q1894.6 30.1225 1898.36 28.1376 Q1902.13 26.1121 1907.52 26.1121 Q1908.29 26.1121 1909.22 26.2337 Q1910.15 26.3147 1911.29 26.5172 L1911.33 34.1734 Z" fill="#000000" fill-rule="evenodd" fill-opacity="1" /><path clip-path="url(#clip660)" d="M1939.76 49.7694 Q1930.73 49.7694 1927.25 51.8354 Q1923.76 53.9013 1923.76 58.8839 Q1923.76 62.8538 1926.35 65.2034 Q1928.99 67.5124 1933.48 67.5124 Q1939.68 67.5124 1943.41 63.1374 Q1947.18 58.7219 1947.18 51.4303 L1947.18 49.7694 L1939.76 49.7694 M1954.63 46.6907 L1954.63 72.576 L1947.18 72.576 L1947.18 65.6895 Q1944.62 69.8214 1940.82 71.8063 Q1937.01 73.7508 1931.5 73.7508 Q1924.53 73.7508 1920.4 69.8619 Q1916.31 65.9325 1916.31 59.3701 Q1916.31 51.7138 1921.41 47.825 Q1926.56 43.9361 1936.72 43.9361 L1947.18 43.9361 L1947.18 43.2069 Q1947.18 38.0623 1943.77 35.2672 Q1940.41 32.4315 1934.29 32.4315 Q1930.41 32.4315 1926.72 33.3632 Q1923.03 34.295 1919.63 36.1584 L1919.63 29.2718 Q1923.72 27.692 1927.57 26.9223 Q1931.42 26.1121 1935.06 26.1121 Q1944.91 26.1121 1949.77 31.2163 Q1954.63 36.3204 1954.63 46.6907 Z" fill="#000000" fill-rule="evenodd" fill-opacity="1" /><path clip-path="url(#clip660)" d="M1977.36 14.324 L1977.36 27.2059 L1992.71 27.2059 L1992.71 32.9987 L1977.36 32.9987 L1977.36 57.6282 Q1977.36 63.1779 1978.85 64.7578 Q1980.39 66.3376 1985.05 66.3376 L1992.71 66.3376 L1992.71 72.576 L1985.05 72.576 Q1976.42 72.576 1973.14 69.3758 Q1969.86 66.1351 1969.86 57.6282 L1969.86 32.9987 L1964.39 32.9987 L1964.39 27.2059 L1969.86 27.2059 L1969.86 14.324 L1977.36 14.324 Z" fill="#000000" fill-rule="evenodd" fill-opacity="1" /><path clip-path="url(#clip660)" d="M2002.51 27.2059 L2009.97 27.2059 L2009.97 72.576 L2002.51 72.576 L2002.51 27.2059 M2002.51 9.54393 L2009.97 9.54393 L2009.97 18.9825 L2002.51 18.9825 L2002.51 9.54393 Z" fill="#000000" fill-rule="evenodd" fill-opacity="1" /><path clip-path="url(#clip660)" d="M2043.14 32.4315 Q2037.15 32.4315 2033.66 37.1306 Q2030.18 41.7891 2030.18 49.9314 Q2030.18 58.0738 2033.62 62.7728 Q2037.11 67.4314 2043.14 67.4314 Q2049.1 67.4314 2052.58 62.7323 Q2056.06 58.0333 2056.06 49.9314 Q2056.06 41.8701 2052.58 37.1711 Q2049.1 32.4315 2043.14 32.4315 M2043.14 26.1121 Q2052.86 26.1121 2058.41 32.4315 Q2063.96 38.7509 2063.96 49.9314 Q2063.96 61.0714 2058.41 67.4314 Q2052.86 73.7508 2043.14 73.7508 Q2033.38 73.7508 2027.83 67.4314 Q2022.32 61.0714 2022.32 49.9314 Q2022.32 38.7509 2027.83 32.4315 Q2033.38 26.1121 2043.14 26.1121 Z" fill="#000000" fill-rule="evenodd" fill-opacity="1" /><path clip-path="url(#clip660)" d="M2114.03 45.1919 L2114.03 72.576 L2106.58 72.576 L2106.58 45.4349 Q2106.58 38.994 2104.07 35.7938 Q2101.56 32.5936 2096.53 32.5936 Q2090.5 32.5936 2087.01 36.4419 Q2083.53 40.2903 2083.53 46.9338 L2083.53 72.576 L2076.04 72.576 L2076.04 27.2059 L2083.53 27.2059 L2083.53 34.2544 Q2086.2 30.163 2089.81 28.1376 Q2093.45 26.1121 2098.19 26.1121 Q2106.01 26.1121 2110.02 30.9732 Q2114.03 35.7938 2114.03 45.1919 Z" fill="#000000" fill-rule="evenodd" fill-opacity="1" /><path clip-path="url(#clip660)" d="M2178.81 19.2256 L2158.15 51.5113 L2178.81 51.5113 L2178.81 19.2256 M2176.66 12.096 L2186.95 12.096 L2186.95 51.5113 L2195.58 51.5113 L2195.58 58.3168 L2186.95 58.3168 L2186.95 72.576 L2178.81 72.576 L2178.81 58.3168 L2151.5 58.3168 L2151.5 50.4176 L2176.66 12.096 Z" fill="#000000" fill-rule="evenodd" fill-opacity="1" /><path clip-path="url(#clip660)" d="M2252.01 32.4315 Q2246.01 32.4315 2242.53 37.1306 Q2239.04 41.7891 2239.04 49.9314 Q2239.04 58.0738 2242.49 62.7728 Q2245.97 67.4314 2252.01 67.4314 Q2257.96 67.4314 2261.45 62.7323 Q2264.93 58.0333 2264.93 49.9314 Q2264.93 41.8701 2261.45 37.1711 Q2257.96 32.4315 2252.01 32.4315 M2252.01 26.1121 Q2261.73 26.1121 2267.28 32.4315 Q2272.83 38.7509 2272.83 49.9314 Q2272.83 61.0714 2267.28 67.4314 Q2261.73 73.7508 2252.01 73.7508 Q2242.24 73.7508 2236.69 67.4314 Q2231.19 61.0714 2231.19 49.9314 Q2231.19 38.7509 2236.69 32.4315 Q2242.24 26.1121 2252.01 26.1121 Z" fill="#000000" fill-rule="evenodd" fill-opacity="1" /><path clip-path="url(#clip660)" d="M2308.15 9.54393 L2308.15 15.7418 L2301.02 15.7418 Q2297.01 15.7418 2295.43 17.3622 Q2293.89 18.9825 2293.89 23.1955 L2293.89 27.2059 L2306.17 27.2059 L2306.17 32.9987 L2293.89 32.9987 L2293.89 72.576 L2286.4 72.576 L2286.4 32.9987 L2279.27 32.9987 L2279.27 27.2059 L2286.4 27.2059 L2286.4 24.0462 Q2286.4 16.471 2289.92 13.0277 Q2293.45 9.54393 2301.1 9.54393 L2308.15 9.54393 Z" fill="#000000" fill-rule="evenodd" fill-opacity="1" /><path clip-path="url(#clip660)" d="M2359.32 43.8551 Q2353.48 43.8551 2350.12 46.9743 Q2346.8 50.0935 2346.8 55.5622 Q2346.8 61.0309 2350.12 64.1501 Q2353.48 67.2693 2359.32 67.2693 Q2365.15 67.2693 2368.51 64.1501 Q2371.87 60.9904 2371.87 55.5622 Q2371.87 50.0935 2368.51 46.9743 Q2365.19 43.8551 2359.32 43.8551 M2351.13 40.3713 Q2345.87 39.075 2342.91 35.4697 Q2339.99 31.8644 2339.99 26.6793 Q2339.99 19.4281 2345.14 15.2152 Q2350.32 11.0023 2359.32 11.0023 Q2368.35 11.0023 2373.49 15.2152 Q2378.64 19.4281 2378.64 26.6793 Q2378.64 31.8644 2375.68 35.4697 Q2372.76 39.075 2367.54 40.3713 Q2373.45 41.7486 2376.73 45.759 Q2380.06 49.7694 2380.06 55.5622 Q2380.06 64.3527 2374.67 69.0517 Q2369.32 73.7508 2359.32 73.7508 Q2349.31 73.7508 2343.92 69.0517 Q2338.57 64.3527 2338.57 55.5622 Q2338.57 49.7694 2341.9 45.759 Q2345.22 41.7486 2351.13 40.3713 M2348.13 27.4489 Q2348.13 32.148 2351.05 34.7811 Q2354.01 37.4142 2359.32 37.4142 Q2364.58 37.4142 2367.54 34.7811 Q2370.54 32.148 2370.54 27.4489 Q2370.54 22.7499 2367.54 20.1168 Q2364.58 17.4837 2359.32 17.4837 Q2354.01 17.4837 2351.05 20.1168 Q2348.13 22.7499 2348.13 27.4489 Z" fill="#000000" fill-rule="evenodd" fill-opacity="1" /><polyline clip-path="url(#clip662)" style="stroke:#ff0068; stroke-linecap:butt; stroke-linejoin:round; stroke-width:4; stroke-opacity:0.4; fill:none" stroke-dasharray="16, 10" points="
  -1454.88,305.009 2050.07,305.009 2193.13,305.009 2336.19,305.009 2479.25,305.009 
  "/>
<polyline clip-path="url(#clip662)" style="stroke:#d3d3d3; stroke-linecap:butt; stroke-linejoin:round; stroke-width:4; stroke-opacity:1; fill:none" points="
  -1454.88,305.009 376.28,528.883 
  "/>
<polyline clip-path="url(#clip662)" style="stroke:#d3d3d3; stroke-linecap:butt; stroke-linejoin:round; stroke-width:4; stroke-opacity:1; fill:none" points="
  2050.07,305.009 1806.87,528.883 
  "/>
<polyline clip-path="url(#clip662)" style="stroke:#d3d3d3; stroke-linecap:butt; stroke-linejoin:round; stroke-width:4; stroke-opacity:1; fill:none" points="
  2193.13,305.009 2522.17,528.883 
  "/>
<polyline clip-path="url(#clip662)" style="stroke:#d3d3d3; stroke-linecap:butt; stroke-linejoin:round; stroke-width:4; stroke-opacity:1; fill:none" points="
  2336.19,305.009 2522.17,528.883 
  "/>
<polyline clip-path="url(#clip662)" style="stroke:#d3d3d3; stroke-linecap:butt; stroke-linejoin:round; stroke-width:4; stroke-opacity:1; fill:none" points="
  2479.25,305.009 2522.17,528.883 
  "/>
<polyline clip-path="url(#clip662)" style="stroke:#4a3d90; stroke-linecap:butt; stroke-linejoin:round; stroke-width:4; stroke-opacity:0.3; fill:none" points="
  733.927,1424.38 733.927,-590.484 
  "/>
<polyline clip-path="url(#clip662)" style="stroke:#4a3d90; stroke-linecap:butt; stroke-linejoin:round; stroke-width:4; stroke-opacity:0.3; fill:none" points="
  1449.22,1424.38 1449.22,-590.484 
  "/>
<polyline clip-path="url(#clip662)" style="stroke:#4a3d90; stroke-linecap:butt; stroke-linejoin:round; stroke-width:4; stroke-opacity:0.3; fill:none" points="
  2164.52,1424.38 2164.52,-590.484 
  "/>
<polyline clip-path="url(#clip662)" style="stroke:#4a3d90; stroke-linecap:butt; stroke-linejoin:round; stroke-width:4; stroke-opacity:0.3; fill:none" points="
  2879.81,1424.38 2879.81,-590.484 
  "/>
<polyline clip-path="url(#clip662)" style="stroke:#cccccc; stroke-linecap:butt; stroke-linejoin:round; stroke-width:4; stroke-opacity:0.3; fill:none" points="
  -5532.06,1424.38 -5532.06,-590.484 
  "/>
<polyline clip-path="url(#clip662)" style="stroke:#cccccc; stroke-linecap:butt; stroke-linejoin:round; stroke-width:4; stroke-opacity:0.3; fill:none" points="
  -5389,1424.38 -5389,-590.484 
  "/>
<polyline clip-path="url(#clip662)" style="stroke:#cccccc; stroke-linecap:butt; stroke-linejoin:round; stroke-width:4; stroke-opacity:0.3; fill:none" points="
  -5245.94,1424.38 -5245.94,-590.484 
  "/>
<polyline clip-path="url(#clip662)" style="stroke:#cccccc; stroke-linecap:butt; stroke-linejoin:round; stroke-width:4; stroke-opacity:0.3; fill:none" points="
  -5102.88,1424.38 -5102.88,-590.484 
  "/>
<polyline clip-path="url(#clip662)" style="stroke:#cccccc; stroke-linecap:butt; stroke-linejoin:round; stroke-width:4; stroke-opacity:0.3; fill:none" points="
  -4959.82,1424.38 -4959.82,-590.484 
  "/>
<polyline clip-path="url(#clip662)" style="stroke:#cccccc; stroke-linecap:butt; stroke-linejoin:round; stroke-width:4; stroke-opacity:0.3; fill:none" points="
  -4816.76,1424.38 -4816.76,-590.484 
  "/>
<polyline clip-path="url(#clip662)" style="stroke:#cccccc; stroke-linecap:butt; stroke-linejoin:round; stroke-width:4; stroke-opacity:0.3; fill:none" points="
  -4673.7,1424.38 -4673.7,-590.484 
  "/>
<polyline clip-path="url(#clip662)" style="stroke:#cccccc; stroke-linecap:butt; stroke-linejoin:round; stroke-width:4; stroke-opacity:0.3; fill:none" points="
  -4530.65,1424.38 -4530.65,-590.484 
  "/>
<polyline clip-path="url(#clip662)" style="stroke:#cccccc; stroke-linecap:butt; stroke-linejoin:round; stroke-width:4; stroke-opacity:0.3; fill:none" points="
  -4387.59,1424.38 -4387.59,-590.484 
  "/>
<polyline clip-path="url(#clip662)" style="stroke:#cccccc; stroke-linecap:butt; stroke-linejoin:round; stroke-width:4; stroke-opacity:0.3; fill:none" points="
  -4244.53,1424.38 -4244.53,-590.484 
  "/>
<polyline clip-path="url(#clip662)" style="stroke:#cccccc; stroke-linecap:butt; stroke-linejoin:round; stroke-width:4; stroke-opacity:0.3; fill:none" points="
  -4101.47,1424.38 -4101.47,-590.484 
  "/>
<polyline clip-path="url(#clip662)" style="stroke:#cccccc; stroke-linecap:butt; stroke-linejoin:round; stroke-width:4; stroke-opacity:0.3; fill:none" points="
  -3958.41,1424.38 -3958.41,-590.484 
  "/>
<polyline clip-path="url(#clip662)" style="stroke:#cccccc; stroke-linecap:butt; stroke-linejoin:round; stroke-width:4; stroke-opacity:0.3; fill:none" points="
  -3815.35,1424.38 -3815.35,-590.484 
  "/>
<polyline clip-path="url(#clip662)" style="stroke:#cccccc; stroke-linecap:butt; stroke-linejoin:round; stroke-width:4; stroke-opacity:0.3; fill:none" points="
  -3672.29,1424.38 -3672.29,-590.484 
  "/>
<polyline clip-path="url(#clip662)" style="stroke:#cccccc; stroke-linecap:butt; stroke-linejoin:round; stroke-width:4; stroke-opacity:0.3; fill:none" points="
  -3529.23,1424.38 -3529.23,-590.484 
  "/>
<polyline clip-path="url(#clip662)" style="stroke:#cccccc; stroke-linecap:butt; stroke-linejoin:round; stroke-width:4; stroke-opacity:0.3; fill:none" points="
  -3386.17,1424.38 -3386.17,-590.484 
  "/>
<polyline clip-path="url(#clip662)" style="stroke:#cccccc; stroke-linecap:butt; stroke-linejoin:round; stroke-width:4; stroke-opacity:0.3; fill:none" points="
  -3243.11,1424.38 -3243.11,-590.484 
  "/>
<polyline clip-path="url(#clip662)" style="stroke:#cccccc; stroke-linecap:butt; stroke-linejoin:round; stroke-width:4; stroke-opacity:0.3; fill:none" points="
  -3100.05,1424.38 -3100.05,-590.484 
  "/>
<polyline clip-path="url(#clip662)" style="stroke:#cccccc; stroke-linecap:butt; stroke-linejoin:round; stroke-width:4; stroke-opacity:0.3; fill:none" points="
  -2957,1424.38 -2957,-590.484 
  "/>
<polyline clip-path="url(#clip662)" style="stroke:#cccccc; stroke-linecap:butt; stroke-linejoin:round; stroke-width:4; stroke-opacity:0.3; fill:none" points="
  -2813.94,1424.38 -2813.94,-590.484 
  "/>
<polyline clip-path="url(#clip662)" style="stroke:#cccccc; stroke-linecap:butt; stroke-linejoin:round; stroke-width:4; stroke-opacity:0.3; fill:none" points="
  -2670.88,1424.38 -2670.88,-590.484 
  "/>
<polyline clip-path="url(#clip662)" style="stroke:#cccccc; stroke-linecap:butt; stroke-linejoin:round; stroke-width:4; stroke-opacity:0.3; fill:none" points="
  -2527.82,1424.38 -2527.82,-590.484 
  "/>
<polyline clip-path="url(#clip662)" style="stroke:#cccccc; stroke-linecap:butt; stroke-linejoin:round; stroke-width:4; stroke-opacity:0.3; fill:none" points="
  -2384.76,1424.38 -2384.76,-590.484 
  "/>
<polyline clip-path="url(#clip662)" style="stroke:#cccccc; stroke-linecap:butt; stroke-linejoin:round; stroke-width:4; stroke-opacity:0.3; fill:none" points="
  -2241.7,1424.38 -2241.7,-590.484 
  "/>
<polyline clip-path="url(#clip662)" style="stroke:#cccccc; stroke-linecap:butt; stroke-linejoin:round; stroke-width:4; stroke-opacity:0.3; fill:none" points="
  -2098.64,1424.38 -2098.64,-590.484 
  "/>
<polyline clip-path="url(#clip662)" style="stroke:#cccccc; stroke-linecap:butt; stroke-linejoin:round; stroke-width:4; stroke-opacity:0.3; fill:none" points="
  -1955.58,1424.38 -1955.58,-590.484 
  "/>
<polyline clip-path="url(#clip662)" style="stroke:#cccccc; stroke-linecap:butt; stroke-linejoin:round; stroke-width:4; stroke-opacity:0.3; fill:none" points="
  -1812.52,1424.38 -1812.52,-590.484 
  "/>
<polyline clip-path="url(#clip662)" style="stroke:#cccccc; stroke-linecap:butt; stroke-linejoin:round; stroke-width:4; stroke-opacity:0.3; fill:none" points="
  -1669.46,1424.38 -1669.46,-590.484 
  "/>
<polyline clip-path="url(#clip662)" style="stroke:#cccccc; stroke-linecap:butt; stroke-linejoin:round; stroke-width:4; stroke-opacity:0.3; fill:none" points="
  -1526.41,1424.38 -1526.41,-590.484 
  "/>
<polyline clip-path="url(#clip662)" style="stroke:#cccccc; stroke-linecap:butt; stroke-linejoin:round; stroke-width:4; stroke-opacity:0.3; fill:none" points="
  -1383.35,1424.38 -1383.35,-590.484 
  "/>
<polyline clip-path="url(#clip662)" style="stroke:#cccccc; stroke-linecap:butt; stroke-linejoin:round; stroke-width:4; stroke-opacity:0.3; fill:none" points="
  -1240.29,1424.38 -1240.29,-590.484 
  "/>
<polyline clip-path="url(#clip662)" style="stroke:#cccccc; stroke-linecap:butt; stroke-linejoin:round; stroke-width:4; stroke-opacity:0.3; fill:none" points="
  -1097.23,1424.38 -1097.23,-590.484 
  "/>
<polyline clip-path="url(#clip662)" style="stroke:#cccccc; stroke-linecap:butt; stroke-linejoin:round; stroke-width:4; stroke-opacity:0.3; fill:none" points="
  -954.169,1424.38 -954.169,-590.484 
  "/>
<polyline clip-path="url(#clip662)" style="stroke:#cccccc; stroke-linecap:butt; stroke-linejoin:round; stroke-width:4; stroke-opacity:0.3; fill:none" points="
  -811.11,1424.38 -811.11,-590.484 
  "/>
<polyline clip-path="url(#clip662)" style="stroke:#cccccc; stroke-linecap:butt; stroke-linejoin:round; stroke-width:4; stroke-opacity:0.3; fill:none" points="
  -668.051,1424.38 -668.051,-590.484 
  "/>
<polyline clip-path="url(#clip662)" style="stroke:#cccccc; stroke-linecap:butt; stroke-linejoin:round; stroke-width:4; stroke-opacity:0.3; fill:none" points="
  -524.992,1424.38 -524.992,-590.484 
  "/>
<polyline clip-path="url(#clip662)" style="stroke:#cccccc; stroke-linecap:butt; stroke-linejoin:round; stroke-width:4; stroke-opacity:0.3; fill:none" points="
  -381.933,1424.38 -381.933,-590.484 
  "/>
<polyline clip-path="url(#clip662)" style="stroke:#cccccc; stroke-linecap:butt; stroke-linejoin:round; stroke-width:4; stroke-opacity:0.3; fill:none" points="
  -238.874,1424.38 -238.874,-590.484 
  "/>
<polyline clip-path="url(#clip662)" style="stroke:#cccccc; stroke-linecap:butt; stroke-linejoin:round; stroke-width:4; stroke-opacity:0.3; fill:none" points="
  -95.8149,1424.38 -95.8149,-590.484 
  "/>
<polyline clip-path="url(#clip662)" style="stroke:#cccccc; stroke-linecap:butt; stroke-linejoin:round; stroke-width:4; stroke-opacity:0.3; fill:none" points="
  47.2441,1424.38 47.2441,-590.484 
  "/>
<polyline clip-path="url(#clip662)" style="stroke:#cccccc; stroke-linecap:butt; stroke-linejoin:round; stroke-width:4; stroke-opacity:0.3; fill:none" points="
  190.303,1424.38 190.303,-590.484 
  "/>
<polyline clip-path="url(#clip662)" style="stroke:#cccccc; stroke-linecap:butt; stroke-linejoin:round; stroke-width:4; stroke-opacity:0.3; fill:none" points="
  333.362,1424.38 333.362,-590.484 
  "/>
<polyline clip-path="url(#clip662)" style="stroke:#cccccc; stroke-linecap:butt; stroke-linejoin:round; stroke-width:4; stroke-opacity:0.3; fill:none" points="
  476.421,1424.38 476.421,-590.484 
  "/>
<polyline clip-path="url(#clip662)" style="stroke:#cccccc; stroke-linecap:butt; stroke-linejoin:round; stroke-width:4; stroke-opacity:0.3; fill:none" points="
  619.48,1424.38 619.48,-590.484 
  "/>
<polyline clip-path="url(#clip662)" style="stroke:#cccccc; stroke-linecap:butt; stroke-linejoin:round; stroke-width:4; stroke-opacity:0.3; fill:none" points="
  762.539,1424.38 762.539,-590.484 
  "/>
<polyline clip-path="url(#clip662)" style="stroke:#cccccc; stroke-linecap:butt; stroke-linejoin:round; stroke-width:4; stroke-opacity:0.3; fill:none" points="
  905.598,1424.38 905.598,-590.484 
  "/>
<polyline clip-path="url(#clip662)" style="stroke:#cccccc; stroke-linecap:butt; stroke-linejoin:round; stroke-width:4; stroke-opacity:0.3; fill:none" points="
  1048.66,1424.38 1048.66,-590.484 
  "/>
<polyline clip-path="url(#clip662)" style="stroke:#cccccc; stroke-linecap:butt; stroke-linejoin:round; stroke-width:4; stroke-opacity:0.3; fill:none" points="
  1191.72,1424.38 1191.72,-590.484 
  "/>
<polyline clip-path="url(#clip662)" style="stroke:#cccccc; stroke-linecap:butt; stroke-linejoin:round; stroke-width:4; stroke-opacity:0.3; fill:none" points="
  1334.78,1424.38 1334.78,-590.484 
  "/>
<polyline clip-path="url(#clip662)" style="stroke:#cccccc; stroke-linecap:butt; stroke-linejoin:round; stroke-width:4; stroke-opacity:0.3; fill:none" points="
  1477.83,1424.38 1477.83,-590.484 
  "/>
<polyline clip-path="url(#clip662)" style="stroke:#cccccc; stroke-linecap:butt; stroke-linejoin:round; stroke-width:4; stroke-opacity:0.3; fill:none" points="
  1620.89,1424.38 1620.89,-590.484 
  "/>
<polyline clip-path="url(#clip662)" style="stroke:#cccccc; stroke-linecap:butt; stroke-linejoin:round; stroke-width:4; stroke-opacity:0.3; fill:none" points="
  1763.95,1424.38 1763.95,-590.484 
  "/>
<polyline clip-path="url(#clip662)" style="stroke:#cccccc; stroke-linecap:butt; stroke-linejoin:round; stroke-width:4; stroke-opacity:0.3; fill:none" points="
  1907.01,1424.38 1907.01,-590.484 
  "/>
<polyline clip-path="url(#clip662)" style="stroke:#cccccc; stroke-linecap:butt; stroke-linejoin:round; stroke-width:4; stroke-opacity:0.3; fill:none" points="
  2050.07,1424.38 2050.07,-590.484 
  "/>
<polyline clip-path="url(#clip662)" style="stroke:#cccccc; stroke-linecap:butt; stroke-linejoin:round; stroke-width:4; stroke-opacity:0.3; fill:none" points="
  2193.13,1424.38 2193.13,-590.484 
  "/>
<polyline clip-path="url(#clip662)" style="stroke:#cccccc; stroke-linecap:butt; stroke-linejoin:round; stroke-width:4; stroke-opacity:0.3; fill:none" points="
  2336.19,1424.38 2336.19,-590.484 
  "/>
<polyline clip-path="url(#clip662)" style="stroke:#cccccc; stroke-linecap:butt; stroke-linejoin:round; stroke-width:4; stroke-opacity:0.3; fill:none" points="
  2479.25,1424.38 2479.25,-590.484 
  "/>
<polyline clip-path="url(#clip662)" style="stroke:#cccccc; stroke-linecap:butt; stroke-linejoin:round; stroke-width:4; stroke-opacity:0.3; fill:none" points="
  2622.31,1424.38 2622.31,-590.484 
  "/>
<polyline clip-path="url(#clip662)" style="stroke:#cccccc; stroke-linecap:butt; stroke-linejoin:round; stroke-width:4; stroke-opacity:0.3; fill:none" points="
  2765.37,1424.38 2765.37,-590.484 
  "/>
<polyline clip-path="url(#clip662)" style="stroke:#cccccc; stroke-linecap:butt; stroke-linejoin:round; stroke-width:4; stroke-opacity:0.3; fill:none" points="
  2908.42,1424.38 2908.42,-590.484 
  "/>
<polyline clip-path="url(#clip662)" style="stroke:#cccccc; stroke-linecap:butt; stroke-linejoin:round; stroke-width:4; stroke-opacity:0.3; fill:none" points="
  3051.48,1424.38 3051.48,-590.484 
  "/>
<polyline clip-path="url(#clip662)" style="stroke:#cccccc; stroke-linecap:butt; stroke-linejoin:round; stroke-width:4; stroke-opacity:0.3; fill:none" points="
  3194.54,1424.38 3194.54,-590.484 
  "/>
<polyline clip-path="url(#clip662)" style="stroke:#cccccc; stroke-linecap:butt; stroke-linejoin:round; stroke-width:4; stroke-opacity:0.3; fill:none" points="
  3337.6,1424.38 3337.6,-590.484 
  "/>
<polyline clip-path="url(#clip662)" style="stroke:#cccccc; stroke-linecap:butt; stroke-linejoin:round; stroke-width:4; stroke-opacity:0.3; fill:none" points="
  3480.66,1424.38 3480.66,-590.484 
  "/>
<polyline clip-path="url(#clip662)" style="stroke:#cccccc; stroke-linecap:butt; stroke-linejoin:round; stroke-width:4; stroke-opacity:0.3; fill:none" points="
  3623.72,1424.38 3623.72,-590.484 
  "/>
<polyline clip-path="url(#clip662)" style="stroke:#cccccc; stroke-linecap:butt; stroke-linejoin:round; stroke-width:4; stroke-opacity:0.3; fill:none" points="
  3766.78,1424.38 3766.78,-590.484 
  "/>
<polyline clip-path="url(#clip662)" style="stroke:#cccccc; stroke-linecap:butt; stroke-linejoin:round; stroke-width:4; stroke-opacity:0.3; fill:none" points="
  3909.84,1424.38 3909.84,-590.484 
  "/>
<polyline clip-path="url(#clip662)" style="stroke:#cccccc; stroke-linecap:butt; stroke-linejoin:round; stroke-width:4; stroke-opacity:0.3; fill:none" points="
  4052.9,1424.38 4052.9,-590.484 
  "/>
<polyline clip-path="url(#clip662)" style="stroke:#cccccc; stroke-linecap:butt; stroke-linejoin:round; stroke-width:4; stroke-opacity:0.3; fill:none" points="
  4195.96,1424.38 4195.96,-590.484 
  "/>
<polyline clip-path="url(#clip662)" style="stroke:#cccccc; stroke-linecap:butt; stroke-linejoin:round; stroke-width:4; stroke-opacity:0.3; fill:none" points="
  4339.02,1424.38 4339.02,-590.484 
  "/>
<polyline clip-path="url(#clip662)" style="stroke:#cccccc; stroke-linecap:butt; stroke-linejoin:round; stroke-width:4; stroke-opacity:0.3; fill:none" points="
  4482.07,1424.38 4482.07,-590.484 
  "/>
<polyline clip-path="url(#clip662)" style="stroke:#cccccc; stroke-linecap:butt; stroke-linejoin:round; stroke-width:4; stroke-opacity:0.3; fill:none" points="
  4625.13,1424.38 4625.13,-590.484 
  "/>
<polyline clip-path="url(#clip662)" style="stroke:#cccccc; stroke-linecap:butt; stroke-linejoin:round; stroke-width:4; stroke-opacity:0.3; fill:none" points="
  4768.19,1424.38 4768.19,-590.484 
  "/>
<polyline clip-path="url(#clip662)" style="stroke:#cccccc; stroke-linecap:butt; stroke-linejoin:round; stroke-width:4; stroke-opacity:0.3; fill:none" points="
  4911.25,1424.38 4911.25,-590.484 
  "/>
<polyline clip-path="url(#clip662)" style="stroke:#cccccc; stroke-linecap:butt; stroke-linejoin:round; stroke-width:4; stroke-opacity:0.3; fill:none" points="
  5054.31,1424.38 5054.31,-590.484 
  "/>
<polyline clip-path="url(#clip662)" style="stroke:#cccccc; stroke-linecap:butt; stroke-linejoin:round; stroke-width:4; stroke-opacity:0.3; fill:none" points="
  5197.37,1424.38 5197.37,-590.484 
  "/>
<polyline clip-path="url(#clip662)" style="stroke:#cccccc; stroke-linecap:butt; stroke-linejoin:round; stroke-width:4; stroke-opacity:0.3; fill:none" points="
  5340.43,1424.38 5340.43,-590.484 
  "/>
<polyline clip-path="url(#clip662)" style="stroke:#cccccc; stroke-linecap:butt; stroke-linejoin:round; stroke-width:4; stroke-opacity:0.3; fill:none" points="
  5483.49,1424.38 5483.49,-590.484 
  "/>
<polyline clip-path="url(#clip662)" style="stroke:#cccccc; stroke-linecap:butt; stroke-linejoin:round; stroke-width:4; stroke-opacity:0.3; fill:none" points="
  5626.55,1424.38 5626.55,-590.484 
  "/>
<polyline clip-path="url(#clip662)" style="stroke:#cccccc; stroke-linecap:butt; stroke-linejoin:round; stroke-width:4; stroke-opacity:0.3; fill:none" points="
  5769.61,1424.38 5769.61,-590.484 
  "/>
<polyline clip-path="url(#clip662)" style="stroke:#cccccc; stroke-linecap:butt; stroke-linejoin:round; stroke-width:4; stroke-opacity:0.3; fill:none" points="
  5912.66,1424.38 5912.66,-590.484 
  "/>
<polyline clip-path="url(#clip662)" style="stroke:#008000; stroke-linecap:butt; stroke-linejoin:round; stroke-width:4; stroke-opacity:1; fill:none" points="
  2479.25,305.009 2908.42,305.009 
  "/>
<polyline clip-path="url(#clip662)" style="stroke:#008000; stroke-linecap:butt; stroke-linejoin:round; stroke-width:4; stroke-opacity:1; fill:none" points="
  2848.42,275.009 2908.42,305.009 2848.42,335.009 
  "/>
<polyline clip-path="url(#clip662)" style="stroke:#008000; stroke-linecap:butt; stroke-linejoin:round; stroke-width:4; stroke-opacity:1; fill:none" points="
  2908.42,305.009 2479.25,305.009 
  "/>
<circle clip-path="url(#clip662)" cx="2050.07" cy="305.009" r="14" fill="#ff0068" fill-rule="evenodd" fill-opacity="1" stroke="#000000" stroke-opacity="1" stroke-width="1.6"/>
<circle clip-path="url(#clip662)" cx="2193.13" cy="305.009" r="14" fill="#ff0068" fill-rule="evenodd" fill-opacity="1" stroke="#000000" stroke-opacity="1" stroke-width="1.6"/>
<circle clip-path="url(#clip662)" cx="2336.19" cy="305.009" r="14" fill="#ff0068" fill-rule="evenodd" fill-opacity="1" stroke="#000000" stroke-opacity="1" stroke-width="1.6"/>
<circle clip-path="url(#clip662)" cx="2479.25" cy="305.009" r="14" fill="#ff0068" fill-rule="evenodd" fill-opacity="1" stroke="#000000" stroke-opacity="1" stroke-width="1.6"/>
<polyline clip-path="url(#clip662)" style="stroke:#4a3d90; stroke-linecap:butt; stroke-linejoin:round; stroke-width:4; stroke-opacity:0.4; fill:none" stroke-dasharray="16, 10" points="
  376.28,528.883 1091.58,528.883 1806.87,528.883 2522.17,528.883 3237.46,528.883 
  "/>
<circle clip-path="url(#clip662)" cx="376.28" cy="528.883" r="14" fill="#4a3d90" fill-rule="evenodd" fill-opacity="1" stroke="#000000" stroke-opacity="1" stroke-width="1.6"/>
<circle clip-path="url(#clip662)" cx="1091.58" cy="528.883" r="14" fill="#4a3d90" fill-rule="evenodd" fill-opacity="1" stroke="#000000" stroke-opacity="1" stroke-width="1.6"/>
<circle clip-path="url(#clip662)" cx="1806.87" cy="528.883" r="14" fill="#4a3d90" fill-rule="evenodd" fill-opacity="1" stroke="#000000" stroke-opacity="1" stroke-width="1.6"/>
<circle clip-path="url(#clip662)" cx="2522.17" cy="528.883" r="14" fill="#4a3d90" fill-rule="evenodd" fill-opacity="1" stroke="#000000" stroke-opacity="1" stroke-width="1.6"/>
<circle clip-path="url(#clip662)" cx="3237.46" cy="528.883" r="14" fill="#4a3d90" fill-rule="evenodd" fill-opacity="1" stroke="#000000" stroke-opacity="1" stroke-width="1.6"/>
<path clip-path="url(#clip660)" d="M371.771 617.853 Q371.771 621.225 370.061 624.528 Q368.375 627.807 365.658 629.868 Q362.964 631.929 360.2 631.929 Q357.507 631.929 355.797 629.868 Q354.11 627.784 354.11 624.387 Q354.11 623.193 354.251 622.35 Q354.391 621.506 354.883 619.539 L358.818 603.893 Q359.498 600.965 359.498 600.942 Q359.498 600.66 359.38 600.52 Q359.287 600.356 358.725 600.239 Q358.162 600.122 357.085 600.122 Q356.64 600.122 356.429 600.098 Q356.242 600.075 356.078 599.958 Q355.937 599.817 355.937 599.536 Q355.937 599.138 356.101 598.927 Q356.289 598.693 356.429 598.646 Q356.57 598.599 356.851 598.576 Q357.249 598.552 358.584 598.435 Q359.919 598.295 361.067 598.201 Q362.215 598.107 362.706 598.107 Q362.988 598.107 363.128 598.248 Q363.292 598.365 363.292 598.506 L363.315 598.623 L359.779 613.074 Q362.566 610.193 365.4 610.193 Q368.234 610.193 369.991 612.372 Q371.771 614.55 371.771 617.853 M368.304 615.745 Q368.304 613.519 367.461 612.395 Q366.641 611.247 365.283 611.247 Q364.135 611.247 362.636 612.114 Q361.137 612.981 359.544 615.089 Q359.24 615.487 359.123 615.721 Q359.029 615.955 358.818 616.752 L357.764 621.179 Q356.991 624.2 356.991 626.027 Q356.991 628.51 357.905 629.681 Q358.818 630.852 360.2 630.852 Q361.652 630.852 363.175 629.564 Q364.697 628.276 365.868 625.933 Q366.595 624.387 367.438 621.061 Q368.304 617.712 368.304 615.745 Z" fill="#4a3d90" fill-rule="evenodd" fill-opacity="1" /><path clip-path="url(#clip660)" d="M376.704 626.034 L376.704 624.985 Q380.738 624.985 382.82 622.837 Q383.394 622.837 383.492 622.968 Q383.591 623.099 383.591 623.706 L383.591 642.544 Q383.591 643.545 384.082 643.856 Q384.574 644.168 386.722 644.168 L387.788 644.168 L387.788 645.201 Q386.607 645.102 382.344 645.102 Q378.082 645.102 376.918 645.201 L376.918 644.168 L377.983 644.168 Q380.098 644.168 380.607 643.873 Q381.115 643.561 381.115 642.544 L381.115 625.149 Q379.36 626.034 376.704 626.034 Z" fill="#4a3d90" fill-rule="evenodd" fill-opacity="1" /><path clip-path="url(#clip660)" d="M1087.07 617.853 Q1087.07 621.225 1085.36 624.528 Q1083.67 627.807 1080.95 629.868 Q1078.26 631.929 1075.5 631.929 Q1072.8 631.929 1071.09 629.868 Q1069.41 627.784 1069.41 624.387 Q1069.41 623.193 1069.55 622.35 Q1069.69 621.506 1070.18 619.539 L1074.11 603.893 Q1074.79 600.965 1074.79 600.942 Q1074.79 600.66 1074.68 600.52 Q1074.58 600.356 1074.02 600.239 Q1073.46 600.122 1072.38 600.122 Q1071.94 600.122 1071.72 600.098 Q1071.54 600.075 1071.37 599.958 Q1071.23 599.817 1071.23 599.536 Q1071.23 599.138 1071.4 598.927 Q1071.58 598.693 1071.72 598.646 Q1071.86 598.599 1072.15 598.576 Q1072.54 598.552 1073.88 598.435 Q1075.21 598.295 1076.36 598.201 Q1077.51 598.107 1078 598.107 Q1078.28 598.107 1078.42 598.248 Q1078.59 598.365 1078.59 598.506 L1078.61 598.623 L1075.07 613.074 Q1077.86 610.193 1080.7 610.193 Q1083.53 610.193 1085.29 612.372 Q1087.07 614.55 1087.07 617.853 M1083.6 615.745 Q1083.6 613.519 1082.76 612.395 Q1081.94 611.247 1080.58 611.247 Q1079.43 611.247 1077.93 612.114 Q1076.43 612.981 1074.84 615.089 Q1074.54 615.487 1074.42 615.721 Q1074.32 615.955 1074.11 616.752 L1073.06 621.179 Q1072.29 624.2 1072.29 626.027 Q1072.29 628.51 1073.2 629.681 Q1074.11 630.852 1075.5 630.852 Q1076.95 630.852 1078.47 629.564 Q1079.99 628.276 1081.16 625.933 Q1081.89 624.387 1082.73 621.061 Q1083.6 617.712 1083.6 615.745 Z" fill="#4a3d90" fill-rule="evenodd" fill-opacity="1" /><path clip-path="url(#clip660)" d="M1092 645.201 Q1092 644.594 1092.05 644.414 Q1092.11 644.233 1092.38 643.955 L1098.82 636.773 Q1102.35 632.805 1102.35 629.346 Q1102.35 627.1 1101.16 625.493 Q1100 623.886 1097.85 623.886 Q1096.38 623.886 1095.13 624.788 Q1093.89 625.69 1093.31 627.296 Q1093.41 627.264 1093.75 627.264 Q1094.59 627.264 1095.05 627.788 Q1095.52 628.313 1095.52 629.018 Q1095.52 629.92 1094.93 630.362 Q1094.36 630.789 1093.79 630.789 Q1093.56 630.789 1093.25 630.74 Q1092.95 630.69 1092.48 630.231 Q1092 629.756 1092 628.92 Q1092 626.575 1093.77 624.706 Q1095.56 622.837 1098.28 622.837 Q1101.36 622.837 1103.38 624.673 Q1105.41 626.493 1105.41 629.346 Q1105.41 630.346 1105.1 631.264 Q1104.8 632.166 1104.39 632.871 Q1104 633.576 1102.92 634.707 Q1101.84 635.839 1100.97 636.642 Q1100.1 637.445 1098.15 639.151 L1094.59 642.61 L1100.64 642.61 Q1103.59 642.61 1103.82 642.348 Q1104.15 641.872 1104.56 639.364 L1105.41 639.364 L1104.46 645.201 L1092 645.201 Z" fill="#4a3d90" fill-rule="evenodd" fill-opacity="1" /><path clip-path="url(#clip660)" d="M1802.36 617.488 Q1802.36 620.861 1800.65 624.163 Q1798.97 627.442 1796.25 629.504 Q1793.55 631.565 1790.79 631.565 Q1788.1 631.565 1786.39 629.504 Q1784.7 627.419 1784.7 624.023 Q1784.7 622.828 1784.84 621.985 Q1784.98 621.142 1785.47 619.174 L1789.41 603.528 Q1790.09 600.6 1790.09 600.577 Q1790.09 600.296 1789.97 600.155 Q1789.88 599.991 1789.32 599.874 Q1788.75 599.757 1787.68 599.757 Q1787.23 599.757 1787.02 599.734 Q1786.83 599.71 1786.67 599.593 Q1786.53 599.453 1786.53 599.172 Q1786.53 598.773 1786.69 598.563 Q1786.88 598.328 1787.02 598.282 Q1787.16 598.235 1787.44 598.211 Q1787.84 598.188 1789.17 598.071 Q1790.51 597.93 1791.66 597.837 Q1792.8 597.743 1793.3 597.743 Q1793.58 597.743 1793.72 597.883 Q1793.88 598 1793.88 598.141 L1793.91 598.258 L1790.37 612.71 Q1793.16 609.829 1795.99 609.829 Q1798.82 609.829 1800.58 612.007 Q1802.36 614.185 1802.36 617.488 M1798.89 615.38 Q1798.89 613.155 1798.05 612.031 Q1797.23 610.883 1795.87 610.883 Q1794.73 610.883 1793.23 611.749 Q1791.73 612.616 1790.13 614.724 Q1789.83 615.122 1789.71 615.357 Q1789.62 615.591 1789.41 616.387 L1788.35 620.814 Q1787.58 623.835 1787.58 625.662 Q1787.58 628.145 1788.5 629.316 Q1789.41 630.487 1790.79 630.487 Q1792.24 630.487 1793.77 629.199 Q1795.29 627.911 1796.46 625.569 Q1797.18 624.023 1798.03 620.697 Q1798.89 617.347 1798.89 615.38 Z" fill="#4a3d90" fill-rule="evenodd" fill-opacity="1" /><path clip-path="url(#clip660)" d="M1807.29 640.311 Q1807.29 639.311 1807.87 638.835 Q1808.44 638.36 1809.18 638.36 Q1809.95 638.36 1810.49 638.868 Q1811.05 639.36 1811.05 640.229 Q1811.05 641.163 1810.39 641.688 Q1809.75 642.213 1808.84 642.082 Q1809.64 643.426 1811.11 644.033 Q1812.61 644.639 1813.98 644.639 Q1815.43 644.639 1816.59 643.393 Q1817.77 642.147 1817.77 639.098 Q1817.77 636.507 1816.76 635.015 Q1815.75 633.523 1813.77 633.523 L1812.3 633.523 Q1811.79 633.523 1811.64 633.474 Q1811.49 633.425 1811.49 633.146 Q1811.49 632.818 1812 632.752 Q1812.51 632.752 1813.31 632.654 Q1815.26 632.588 1816.3 630.9 Q1817.23 629.326 1817.23 627.079 Q1817.23 625.03 1816.25 624.177 Q1815.28 623.308 1814.02 623.308 Q1812.84 623.308 1811.54 623.8 Q1810.25 624.292 1809.54 625.391 Q1811.62 625.391 1811.62 627.079 Q1811.62 627.817 1811.15 628.309 Q1810.69 628.785 1809.92 628.785 Q1809.18 628.785 1808.69 628.326 Q1808.2 627.85 1808.2 627.047 Q1808.2 625.128 1809.9 623.8 Q1811.62 622.472 1814.15 622.472 Q1816.64 622.472 1818.48 623.784 Q1820.33 625.096 1820.33 627.112 Q1820.33 629.096 1819.02 630.719 Q1817.71 632.342 1815.62 633.015 Q1818.18 633.523 1819.71 635.261 Q1821.23 636.982 1821.23 639.098 Q1821.23 641.721 1819.17 643.656 Q1817.1 645.574 1814.08 645.574 Q1811.3 645.574 1809.3 644.065 Q1807.29 642.557 1807.29 640.311 Z" fill="#4a3d90" fill-rule="evenodd" fill-opacity="1" /><path clip-path="url(#clip660)" d="M2517.66 617.743 Q2517.66 621.116 2515.95 624.419 Q2514.26 627.698 2511.54 629.759 Q2508.85 631.82 2506.09 631.82 Q2503.39 631.82 2501.68 629.759 Q2500 627.674 2500 624.278 Q2500 623.083 2500.14 622.24 Q2500.28 621.397 2500.77 619.43 L2504.7 603.783 Q2505.38 600.856 2505.38 600.832 Q2505.38 600.551 2505.27 600.411 Q2505.17 600.247 2504.61 600.129 Q2504.05 600.012 2502.97 600.012 Q2502.53 600.012 2502.31 599.989 Q2502.13 599.966 2501.96 599.848 Q2501.82 599.708 2501.82 599.427 Q2501.82 599.029 2501.99 598.818 Q2502.17 598.584 2502.31 598.537 Q2502.46 598.49 2502.74 598.466 Q2503.13 598.443 2504.47 598.326 Q2505.8 598.185 2506.95 598.092 Q2508.1 597.998 2508.59 597.998 Q2508.87 597.998 2509.01 598.139 Q2509.18 598.256 2509.18 598.396 L2509.2 598.513 L2505.66 612.965 Q2508.45 610.084 2511.29 610.084 Q2514.12 610.084 2515.88 612.262 Q2517.66 614.441 2517.66 617.743 M2514.19 615.635 Q2514.19 613.41 2513.35 612.286 Q2512.53 611.138 2511.17 611.138 Q2510.02 611.138 2508.52 612.005 Q2507.02 612.871 2505.43 614.979 Q2505.13 615.377 2505.01 615.612 Q2504.91 615.846 2504.7 616.642 L2503.65 621.069 Q2502.88 624.091 2502.88 625.918 Q2502.88 628.4 2503.79 629.571 Q2504.7 630.743 2506.09 630.743 Q2507.54 630.743 2509.06 629.454 Q2510.58 628.166 2511.75 625.824 Q2512.48 624.278 2513.32 620.952 Q2514.19 617.603 2514.19 615.635 Z" fill="#4a3d90" fill-rule="evenodd" fill-opacity="1" /><path clip-path="url(#clip660)" d="M2522.59 639.768 L2522.59 638.735 L2532.9 622.979 Q2533.17 622.569 2533.58 622.586 Q2533.95 622.586 2534.03 622.733 Q2534.12 622.881 2534.12 623.454 L2534.12 638.735 L2537.48 638.735 L2537.48 639.768 L2534.12 639.768 L2534.12 642.687 Q2534.12 643.654 2534.51 643.966 Q2534.92 644.277 2536.66 644.277 L2537.36 644.277 L2537.36 645.31 Q2535.99 645.212 2532.8 645.212 Q2529.64 645.212 2528.26 645.31 L2528.26 644.277 L2528.97 644.277 Q2530.71 644.277 2531.12 643.982 Q2531.53 643.67 2531.53 642.687 L2531.53 639.768 L2522.59 639.768 M2523.54 638.735 L2531.72 638.735 L2531.72 626.209 L2523.54 638.735 Z" fill="#4a3d90" fill-rule="evenodd" fill-opacity="1" /><path clip-path="url(#clip660)" d="M3232.95 617.488 Q3232.95 620.861 3231.24 624.163 Q3229.56 627.442 3226.84 629.504 Q3224.14 631.565 3221.38 631.565 Q3218.69 631.565 3216.98 629.504 Q3215.29 627.419 3215.29 624.023 Q3215.29 622.828 3215.43 621.985 Q3215.57 621.142 3216.06 619.174 L3220 603.528 Q3220.68 600.6 3220.68 600.577 Q3220.68 600.296 3220.56 600.155 Q3220.47 599.991 3219.91 599.874 Q3219.34 599.757 3218.27 599.757 Q3217.82 599.757 3217.61 599.734 Q3217.42 599.71 3217.26 599.593 Q3217.12 599.453 3217.12 599.172 Q3217.12 598.773 3217.28 598.563 Q3217.47 598.328 3217.61 598.282 Q3217.75 598.235 3218.03 598.211 Q3218.43 598.188 3219.76 598.071 Q3221.1 597.93 3222.25 597.837 Q3223.4 597.743 3223.89 597.743 Q3224.17 597.743 3224.31 597.883 Q3224.47 598 3224.47 598.141 L3224.5 598.258 L3220.96 612.71 Q3223.75 609.829 3226.58 609.829 Q3229.41 609.829 3231.17 612.007 Q3232.95 614.185 3232.95 617.488 M3229.49 615.38 Q3229.49 613.155 3228.64 612.031 Q3227.82 610.883 3226.46 610.883 Q3225.32 610.883 3223.82 611.749 Q3222.32 612.616 3220.73 614.724 Q3220.42 615.122 3220.3 615.357 Q3220.21 615.591 3220 616.387 L3218.95 620.814 Q3218.17 623.835 3218.17 625.662 Q3218.17 628.145 3219.09 629.316 Q3220 630.487 3221.38 630.487 Q3222.83 630.487 3224.36 629.199 Q3225.88 627.911 3227.05 625.569 Q3227.78 624.023 3228.62 620.697 Q3229.49 617.347 3229.49 615.38 Z" fill="#4a3d90" fill-rule="evenodd" fill-opacity="1" /><path clip-path="url(#clip660)" d="M3237.89 639.425 Q3237.89 638.425 3238.43 638.048 Q3238.97 637.655 3239.54 637.655 Q3240.31 637.655 3240.75 638.147 Q3241.21 638.622 3241.21 639.294 Q3241.21 639.966 3240.75 640.458 Q3240.31 640.934 3239.54 640.934 Q3239.16 640.934 3238.97 640.868 Q3239.41 642.409 3240.75 643.524 Q3242.12 644.639 3243.9 644.639 Q3246.15 644.639 3247.49 642.459 Q3248.3 641.049 3248.3 637.851 Q3248.3 635.031 3247.69 633.621 Q3246.76 631.474 3244.84 631.474 Q3242.12 631.474 3240.51 633.818 Q3240.31 634.113 3240.08 634.13 Q3239.75 634.13 3239.67 633.949 Q3239.61 633.753 3239.61 633.244 L3239.61 623.308 Q3239.61 622.505 3239.93 622.505 Q3240.07 622.505 3240.34 622.603 Q3242.46 623.538 3244.8 623.554 Q3247.21 623.554 3249.38 622.571 Q3249.54 622.472 3249.64 622.472 Q3249.97 622.472 3249.99 622.849 Q3249.99 622.981 3249.71 623.374 Q3249.44 623.751 3248.87 624.259 Q3248.3 624.751 3247.56 625.227 Q3246.82 625.702 3245.74 626.03 Q3244.67 626.342 3243.49 626.342 Q3242.08 626.342 3240.64 625.899 L3240.64 632.441 Q3242.38 630.736 3244.9 630.736 Q3247.59 630.736 3249.44 632.9 Q3251.3 635.064 3251.3 638.081 Q3251.3 641.245 3249.1 643.41 Q3246.92 645.574 3243.97 645.574 Q3241.28 645.574 3239.57 643.656 Q3237.89 641.737 3237.89 639.425 Z" fill="#4a3d90" fill-rule="evenodd" fill-opacity="1" /><path clip-path="url(#clip660)" d="M733.681 597.679 Q733.681 598.288 733.424 599.459 Q732.604 602.761 729.536 605.033 Q729.02 605.455 728.107 605.994 Q729.208 606.72 730.168 608.055 Q731.597 610.257 731.597 613.231 Q731.597 614.613 731.222 616.3 Q730.168 620.211 726.467 623.022 Q722.743 625.762 718.316 625.762 Q715.927 625.762 714.288 624.497 Q712.671 623.209 712.039 621.054 L708.783 634.194 Q708.713 634.522 708.291 634.522 L708.057 634.522 Q707.565 634.522 707.565 633.96 L714.967 604.448 Q715.459 602.457 716.255 600.583 Q717.051 598.709 718.152 597.023 Q719.277 595.336 720.565 594.095 Q721.853 592.83 723.446 592.104 Q725.038 591.355 726.725 591.355 Q730.262 591.355 732.276 593.767 Q733.681 595.477 733.681 597.679 M730.988 596.835 Q730.988 595.383 730.402 594.376 Q729.208 592.455 726.678 592.455 Q725.156 592.455 723.703 593.158 Q722.275 593.837 721.127 595.009 Q719.979 596.18 718.995 597.772 Q718.012 599.365 717.286 601.098 Q716.583 602.808 716.114 604.682 L713.234 616.3 Q712.952 617.541 712.952 618.642 Q712.952 621.265 714.405 622.975 Q715.857 624.685 718.363 624.685 Q721.689 624.685 724.547 622.202 Q727.029 619.977 728.06 616.065 Q728.646 613.606 728.646 611.896 Q728.646 610.022 727.966 608.57 Q727.474 607.399 726.514 606.696 Q724.734 607.329 722.93 607.329 Q722.064 607.329 721.595 607.305 Q721.15 607.282 720.494 607.188 Q719.862 607.094 719.558 606.837 Q719.277 606.579 719.277 606.181 Q719.277 605.947 719.323 605.853 Q719.417 605.478 719.722 605.221 Q720.026 604.963 720.377 604.846 Q720.729 604.705 721.314 604.635 Q721.923 604.565 722.321 604.565 Q722.72 604.541 723.399 604.541 Q724.992 604.541 726.608 605.174 Q727.217 604.846 727.873 604.26 Q729.957 602.316 730.66 599.225 Q730.988 598.077 730.988 596.835 M725.085 605.9 Q724.102 605.642 723.352 605.642 Q720.612 605.642 720.471 606.087 Q720.471 606.134 720.565 606.181 Q720.658 606.204 720.869 606.228 Q721.103 606.228 721.291 606.251 Q721.502 606.275 721.853 606.275 Q722.204 606.275 722.392 606.275 Q722.603 606.275 722.977 606.275 Q723.914 606.275 725.085 605.9 Z" fill="#4a3d90" fill-rule="evenodd" fill-opacity="1" /><path clip-path="url(#clip660)" d="M738.545 628.565 L738.545 627.515 Q742.578 627.515 744.66 625.368 Q745.234 625.368 745.333 625.499 Q745.431 625.63 745.431 626.236 L745.431 645.075 Q745.431 646.075 745.923 646.387 Q746.415 646.698 748.562 646.698 L749.628 646.698 L749.628 647.731 Q748.448 647.633 744.185 647.633 Q739.922 647.633 738.758 647.731 L738.758 646.698 L739.824 646.698 Q741.939 646.698 742.447 646.403 Q742.955 646.092 742.955 645.075 L742.955 627.679 Q741.201 628.565 738.545 628.565 Z" fill="#4a3d90" fill-rule="evenodd" fill-opacity="1" /><path clip-path="url(#clip660)" d="M1448.98 597.679 Q1448.98 598.288 1448.72 599.459 Q1447.9 602.761 1444.83 605.033 Q1444.32 605.455 1443.4 605.994 Q1444.5 606.72 1445.46 608.055 Q1446.89 610.257 1446.89 613.231 Q1446.89 614.613 1446.52 616.3 Q1445.46 620.211 1441.76 623.022 Q1438.04 625.762 1433.61 625.762 Q1431.22 625.762 1429.58 624.497 Q1427.97 623.209 1427.33 621.054 L1424.08 634.194 Q1424.01 634.522 1423.59 634.522 L1423.35 634.522 Q1422.86 634.522 1422.86 633.96 L1430.26 604.448 Q1430.75 602.457 1431.55 600.583 Q1432.35 598.709 1433.45 597.023 Q1434.57 595.336 1435.86 594.095 Q1437.15 592.83 1438.74 592.104 Q1440.33 591.355 1442.02 591.355 Q1445.56 591.355 1447.57 593.767 Q1448.98 595.477 1448.98 597.679 M1446.28 596.835 Q1446.28 595.383 1445.7 594.376 Q1444.5 592.455 1441.97 592.455 Q1440.45 592.455 1439 593.158 Q1437.57 593.837 1436.42 595.009 Q1435.27 596.18 1434.29 597.772 Q1433.31 599.365 1432.58 601.098 Q1431.88 602.808 1431.41 604.682 L1428.53 616.3 Q1428.25 617.541 1428.25 618.642 Q1428.25 621.265 1429.7 622.975 Q1431.15 624.685 1433.66 624.685 Q1436.98 624.685 1439.84 622.202 Q1442.32 619.977 1443.36 616.065 Q1443.94 613.606 1443.94 611.896 Q1443.94 610.022 1443.26 608.57 Q1442.77 607.399 1441.81 606.696 Q1440.03 607.329 1438.23 607.329 Q1437.36 607.329 1436.89 607.305 Q1436.45 607.282 1435.79 607.188 Q1435.16 607.094 1434.85 606.837 Q1434.57 606.579 1434.57 606.181 Q1434.57 605.947 1434.62 605.853 Q1434.71 605.478 1435.02 605.221 Q1435.32 604.963 1435.67 604.846 Q1436.02 604.705 1436.61 604.635 Q1437.22 604.565 1437.62 604.565 Q1438.01 604.541 1438.69 604.541 Q1440.29 604.541 1441.9 605.174 Q1442.51 604.846 1443.17 604.26 Q1445.25 602.316 1445.96 599.225 Q1446.28 598.077 1446.28 596.835 M1440.38 605.9 Q1439.4 605.642 1438.65 605.642 Q1435.91 605.642 1435.77 606.087 Q1435.77 606.134 1435.86 606.181 Q1435.95 606.204 1436.16 606.228 Q1436.4 606.228 1436.59 606.251 Q1436.8 606.275 1437.15 606.275 Q1437.5 606.275 1437.69 606.275 Q1437.9 606.275 1438.27 606.275 Q1439.21 606.275 1440.38 605.9 Z" fill="#4a3d90" fill-rule="evenodd" fill-opacity="1" /><path clip-path="url(#clip660)" d="M1453.84 647.731 Q1453.84 647.125 1453.89 646.944 Q1453.95 646.764 1454.22 646.485 L1460.66 639.304 Q1464.19 635.336 1464.19 631.877 Q1464.19 629.63 1463.01 628.024 Q1461.84 626.417 1459.69 626.417 Q1458.22 626.417 1456.97 627.319 Q1455.73 628.22 1455.15 629.827 Q1455.25 629.794 1455.59 629.794 Q1456.43 629.794 1456.89 630.319 Q1457.36 630.844 1457.36 631.549 Q1457.36 632.45 1456.77 632.893 Q1456.2 633.319 1455.63 633.319 Q1455.4 633.319 1455.09 633.27 Q1454.79 633.221 1454.32 632.762 Q1453.84 632.287 1453.84 631.45 Q1453.84 629.106 1455.61 627.237 Q1457.4 625.368 1460.12 625.368 Q1463.2 625.368 1465.22 627.204 Q1467.25 629.024 1467.25 631.877 Q1467.25 632.877 1466.94 633.795 Q1466.64 634.697 1466.24 635.402 Q1465.84 636.107 1464.76 637.238 Q1463.68 638.369 1462.81 639.173 Q1461.94 639.976 1459.99 641.681 L1456.43 645.141 L1462.48 645.141 Q1465.43 645.141 1465.66 644.878 Q1465.99 644.403 1466.4 641.894 L1467.25 641.894 L1466.3 647.731 L1453.84 647.731 Z" fill="#4a3d90" fill-rule="evenodd" fill-opacity="1" /><path clip-path="url(#clip660)" d="M2164.27 596.95 Q2164.27 597.558 2164.01 598.73 Q2163.19 602.032 2160.13 604.304 Q2159.61 604.726 2158.7 605.264 Q2159.8 605.991 2160.76 607.326 Q2162.19 609.527 2162.19 612.502 Q2162.19 613.884 2161.81 615.57 Q2160.76 619.482 2157.06 622.293 Q2153.33 625.033 2148.91 625.033 Q2146.52 625.033 2144.88 623.768 Q2143.26 622.48 2142.63 620.325 L2139.37 633.465 Q2139.3 633.793 2138.88 633.793 L2138.65 633.793 Q2138.16 633.793 2138.16 633.231 L2145.56 603.719 Q2146.05 601.728 2146.85 599.854 Q2147.64 597.98 2148.74 596.294 Q2149.87 594.607 2151.16 593.366 Q2152.44 592.101 2154.04 591.375 Q2155.63 590.625 2157.32 590.625 Q2160.85 590.625 2162.87 593.038 Q2164.27 594.748 2164.27 596.95 M2161.58 596.106 Q2161.58 594.654 2160.99 593.647 Q2159.8 591.726 2157.27 591.726 Q2155.75 591.726 2154.29 592.429 Q2152.87 593.108 2151.72 594.279 Q2150.57 595.45 2149.59 597.043 Q2148.6 598.636 2147.88 600.369 Q2147.17 602.079 2146.7 603.953 L2143.82 615.57 Q2143.54 616.812 2143.54 617.913 Q2143.54 620.536 2145 622.246 Q2146.45 623.956 2148.95 623.956 Q2152.28 623.956 2155.14 621.473 Q2157.62 619.248 2158.65 615.336 Q2159.24 612.877 2159.24 611.167 Q2159.24 609.293 2158.56 607.841 Q2158.06 606.67 2157.1 605.967 Q2155.32 606.6 2153.52 606.6 Q2152.65 606.6 2152.19 606.576 Q2151.74 606.553 2151.08 606.459 Q2150.45 606.365 2150.15 606.108 Q2149.87 605.85 2149.87 605.452 Q2149.87 605.218 2149.91 605.124 Q2150.01 604.749 2150.31 604.492 Q2150.62 604.234 2150.97 604.117 Q2151.32 603.976 2151.9 603.906 Q2152.51 603.836 2152.91 603.836 Q2153.31 603.812 2153.99 603.812 Q2155.58 603.812 2157.2 604.445 Q2157.81 604.117 2158.46 603.531 Q2160.55 601.587 2161.25 598.495 Q2161.58 597.348 2161.58 596.106 M2155.68 605.171 Q2154.69 604.913 2153.94 604.913 Q2151.2 604.913 2151.06 605.358 Q2151.06 605.405 2151.16 605.452 Q2151.25 605.475 2151.46 605.499 Q2151.69 605.499 2151.88 605.522 Q2152.09 605.546 2152.44 605.546 Q2152.79 605.546 2152.98 605.546 Q2153.19 605.546 2153.57 605.546 Q2154.5 605.546 2155.68 605.171 Z" fill="#4a3d90" fill-rule="evenodd" fill-opacity="1" /><path clip-path="url(#clip660)" d="M2169.14 642.477 Q2169.14 641.477 2169.71 641.001 Q2170.28 640.526 2171.02 640.526 Q2171.79 640.526 2172.33 641.034 Q2172.89 641.526 2172.89 642.395 Q2172.89 643.329 2172.23 643.854 Q2171.59 644.379 2170.68 644.248 Q2171.48 645.592 2172.96 646.199 Q2174.45 646.805 2175.82 646.805 Q2177.27 646.805 2178.43 645.559 Q2179.61 644.313 2179.61 641.264 Q2179.61 638.673 2178.6 637.181 Q2177.6 635.689 2175.61 635.689 L2174.14 635.689 Q2173.63 635.689 2173.48 635.64 Q2173.33 635.591 2173.33 635.312 Q2173.33 634.984 2173.84 634.918 Q2174.35 634.918 2175.15 634.82 Q2177.1 634.755 2178.14 633.066 Q2179.07 631.492 2179.07 629.246 Q2179.07 627.196 2178.09 626.344 Q2177.12 625.475 2175.86 625.475 Q2174.68 625.475 2173.38 625.966 Q2172.09 626.458 2171.38 627.557 Q2173.46 627.557 2173.46 629.246 Q2173.46 629.983 2172.99 630.475 Q2172.53 630.951 2171.76 630.951 Q2171.02 630.951 2170.53 630.492 Q2170.04 630.016 2170.04 629.213 Q2170.04 627.294 2171.74 625.966 Q2173.46 624.638 2175.99 624.638 Q2178.48 624.638 2180.32 625.95 Q2182.17 627.262 2182.17 629.278 Q2182.17 631.262 2180.86 632.885 Q2179.55 634.509 2177.46 635.181 Q2180.02 635.689 2181.55 637.427 Q2183.07 639.149 2183.07 641.264 Q2183.07 643.887 2181.01 645.822 Q2178.94 647.74 2175.92 647.74 Q2173.14 647.74 2171.14 646.232 Q2169.14 644.723 2169.14 642.477 Z" fill="#4a3d90" fill-rule="evenodd" fill-opacity="1" /><path clip-path="url(#clip660)" d="M2879.57 597.46 Q2879.57 598.069 2879.31 599.24 Q2878.49 602.543 2875.42 604.815 Q2874.91 605.236 2873.99 605.775 Q2875.09 606.501 2876.05 607.836 Q2877.48 610.038 2877.48 613.012 Q2877.48 614.394 2877.11 616.081 Q2876.05 619.992 2872.35 622.803 Q2868.63 625.543 2864.2 625.543 Q2861.81 625.543 2860.17 624.279 Q2858.56 622.99 2857.92 620.836 L2854.67 633.976 Q2854.6 634.303 2854.18 634.303 L2853.94 634.303 Q2853.45 634.303 2853.45 633.741 L2860.85 604.229 Q2861.34 602.238 2862.14 600.364 Q2862.94 598.491 2864.04 596.804 Q2865.16 595.118 2866.45 593.876 Q2867.74 592.611 2869.33 591.885 Q2870.92 591.136 2872.61 591.136 Q2876.15 591.136 2878.16 593.548 Q2879.57 595.258 2879.57 597.46 M2876.87 596.617 Q2876.87 595.165 2876.29 594.157 Q2875.09 592.237 2872.56 592.237 Q2871.04 592.237 2869.59 592.939 Q2868.16 593.619 2867.01 594.79 Q2865.86 595.961 2864.88 597.554 Q2863.9 599.146 2863.17 600.88 Q2862.47 602.589 2862 604.463 L2859.12 616.081 Q2858.84 617.322 2858.84 618.423 Q2858.84 621.046 2860.29 622.756 Q2861.74 624.466 2864.25 624.466 Q2867.57 624.466 2870.43 621.983 Q2872.91 619.758 2873.95 615.847 Q2874.53 613.387 2874.53 611.677 Q2874.53 609.804 2873.85 608.351 Q2873.36 607.18 2872.4 606.478 Q2870.62 607.11 2868.82 607.11 Q2867.95 607.11 2867.48 607.087 Q2867.04 607.063 2866.38 606.969 Q2865.75 606.876 2865.44 606.618 Q2865.16 606.36 2865.16 605.962 Q2865.16 605.728 2865.21 605.634 Q2865.3 605.26 2865.61 605.002 Q2865.91 604.744 2866.26 604.627 Q2866.61 604.487 2867.2 604.416 Q2867.81 604.346 2868.21 604.346 Q2868.61 604.323 2869.28 604.323 Q2870.88 604.323 2872.49 604.955 Q2873.1 604.627 2873.76 604.042 Q2875.84 602.098 2876.55 599.006 Q2876.87 597.858 2876.87 596.617 M2870.97 605.681 Q2869.99 605.424 2869.24 605.424 Q2866.5 605.424 2866.36 605.869 Q2866.36 605.915 2866.45 605.962 Q2866.54 605.986 2866.75 606.009 Q2866.99 606.009 2867.18 606.033 Q2867.39 606.056 2867.74 606.056 Q2868.09 606.056 2868.28 606.056 Q2868.49 606.056 2868.86 606.056 Q2869.8 606.056 2870.97 605.681 Z" fill="#4a3d90" fill-rule="evenodd" fill-opacity="1" /><path clip-path="url(#clip660)" d="M2884.43 642.19 L2884.43 641.157 L2894.74 625.4 Q2895.01 624.99 2895.42 625.007 Q2895.79 625.007 2895.87 625.154 Q2895.96 625.302 2895.96 625.876 L2895.96 641.157 L2899.32 641.157 L2899.32 642.19 L2895.96 642.19 L2895.96 645.108 Q2895.96 646.075 2896.35 646.387 Q2896.76 646.698 2898.5 646.698 L2899.2 646.698 L2899.2 647.731 Q2897.83 647.633 2894.64 647.633 Q2891.48 647.633 2890.1 647.731 L2890.1 646.698 L2890.81 646.698 Q2892.55 646.698 2892.96 646.403 Q2893.37 646.092 2893.37 645.108 L2893.37 642.19 L2884.43 642.19 M2885.38 641.157 L2893.56 641.157 L2893.56 628.63 L2885.38 641.157 Z" fill="#4a3d90" fill-rule="evenodd" fill-opacity="1" /><path clip-path="url(#clip660)" d="M700.166 199.809 Q700.166 200.77 699.346 201.566 Q698.526 202.362 697.566 202.362 Q696.77 202.362 696.278 201.87 Q695.809 201.379 695.809 200.629 Q695.809 199.598 696.629 198.849 Q697.449 198.076 698.339 198.076 Q699.159 198.076 699.651 198.591 Q700.166 199.083 700.166 199.809 M698.386 212.996 Q698.386 213.816 698.152 214.776 L693.748 232.343 Q693.326 234.053 692.319 235.458 Q691.312 236.887 690.024 237.777 Q688.759 238.667 687.377 239.135 Q686.019 239.627 684.73 239.627 Q682.927 239.627 681.709 238.831 Q680.491 238.035 680.491 236.653 Q680.491 235.435 681.287 234.662 Q682.107 233.912 683.091 233.912 Q683.981 233.912 684.449 234.428 Q684.918 234.943 684.918 235.599 Q684.918 236.395 684.332 237.145 Q683.77 237.894 682.763 238.128 Q683.676 238.573 684.637 238.573 Q686.604 238.573 688.197 236.77 Q689.813 234.99 690.516 232.179 L695.036 214.284 Q695.364 212.856 695.364 211.848 Q695.364 210.911 695.107 210.396 Q694.849 209.881 694.544 209.764 Q694.263 209.647 693.842 209.647 Q691.991 209.647 690.399 211.356 Q688.806 213.043 687.799 215.502 Q687.518 216.181 687.377 216.322 Q687.26 216.463 686.932 216.463 Q686.347 216.439 686.347 215.971 Q686.347 215.83 686.581 215.268 Q686.815 214.706 687.237 213.886 Q687.658 213.043 688.338 212.129 Q689.017 211.216 689.813 210.42 Q690.633 209.623 691.734 209.108 Q692.835 208.593 693.982 208.593 Q695.833 208.593 697.097 209.811 Q698.386 211.005 698.386 212.996 Z" fill="#4a3d90" fill-rule="evenodd" fill-opacity="1" /><path clip-path="url(#clip660)" d="M713.355 222.506 Q713.402 221.92 714.315 221.92 L743.71 221.92 Q745.092 221.92 745.116 222.459 Q745.116 223.044 743.804 223.021 L714.643 223.021 Q713.355 223.044 713.355 222.506 M713.355 213.137 Q713.355 212.551 714.362 212.574 L743.664 212.574 Q745.092 212.574 745.116 213.137 Q745.116 213.675 743.898 213.675 L714.315 213.675 Q713.355 213.675 713.355 213.137 Z" fill="#4a3d90" fill-rule="evenodd" fill-opacity="1" /><path clip-path="url(#clip660)" d="M763.614 222.061 Q763.614 220.632 764.387 220.093 Q765.16 219.531 765.98 219.531 Q767.081 219.531 767.713 220.234 Q768.369 220.913 768.369 221.873 Q768.369 222.833 767.713 223.536 Q767.081 224.215 765.98 224.215 Q765.441 224.215 765.16 224.122 Q765.792 226.323 767.713 227.916 Q769.657 229.509 772.21 229.509 Q775.419 229.509 777.34 226.394 Q778.487 224.379 778.487 219.812 Q778.487 215.783 777.621 213.769 Q776.286 210.701 773.545 210.701 Q769.657 210.701 767.362 214.05 Q767.081 214.472 766.753 214.495 Q766.284 214.495 766.167 214.237 Q766.073 213.956 766.073 213.23 L766.073 199.036 Q766.073 197.889 766.542 197.889 Q766.729 197.889 767.127 198.029 Q770.149 199.364 773.498 199.388 Q776.941 199.388 780.033 197.982 Q780.267 197.842 780.408 197.842 Q780.876 197.842 780.9 198.38 Q780.9 198.568 780.502 199.13 Q780.127 199.669 779.307 200.395 Q778.487 201.097 777.433 201.777 Q776.379 202.456 774.833 202.924 Q773.311 203.369 771.624 203.369 Q769.61 203.369 767.549 202.737 L767.549 212.083 Q770.032 209.647 773.639 209.647 Q777.48 209.647 780.127 212.738 Q782.774 215.83 782.774 220.14 Q782.774 224.66 779.635 227.752 Q776.52 230.844 772.304 230.844 Q768.462 230.844 766.027 228.104 Q763.614 225.363 763.614 222.061 Z" fill="#4a3d90" fill-rule="evenodd" fill-opacity="1" /><path clip-path="url(#clip660)" d="M1415.46 200.07 Q1415.46 201.03 1414.64 201.826 Q1413.82 202.623 1412.86 202.623 Q1412.06 202.623 1411.57 202.131 Q1411.1 201.639 1411.1 200.889 Q1411.1 199.859 1411.92 199.109 Q1412.74 198.336 1413.63 198.336 Q1414.45 198.336 1414.95 198.852 Q1415.46 199.344 1415.46 200.07 M1413.68 213.256 Q1413.68 214.076 1413.45 215.037 L1409.04 232.603 Q1408.62 234.313 1407.61 235.719 Q1406.61 237.147 1405.32 238.037 Q1404.05 238.927 1402.67 239.396 Q1401.31 239.888 1400.03 239.888 Q1398.22 239.888 1397 239.091 Q1395.79 238.295 1395.79 236.913 Q1395.79 235.695 1396.58 234.922 Q1397.4 234.173 1398.39 234.173 Q1399.28 234.173 1399.74 234.688 Q1400.21 235.203 1400.21 235.859 Q1400.21 236.655 1399.63 237.405 Q1399.07 238.155 1398.06 238.389 Q1398.97 238.834 1399.93 238.834 Q1401.9 238.834 1403.49 237.03 Q1405.11 235.25 1405.81 232.439 L1410.33 214.545 Q1410.66 213.116 1410.66 212.109 Q1410.66 211.172 1410.4 210.657 Q1410.14 210.141 1409.84 210.024 Q1409.56 209.907 1409.14 209.907 Q1407.29 209.907 1405.69 211.617 Q1404.1 213.303 1403.09 215.763 Q1402.81 216.442 1402.67 216.582 Q1402.56 216.723 1402.23 216.723 Q1401.64 216.7 1401.64 216.231 Q1401.64 216.091 1401.88 215.528 Q1402.11 214.966 1402.53 214.147 Q1402.95 213.303 1403.63 212.39 Q1404.31 211.476 1405.11 210.68 Q1405.93 209.884 1407.03 209.368 Q1408.13 208.853 1409.28 208.853 Q1411.13 208.853 1412.39 210.071 Q1413.68 211.266 1413.68 213.256 Z" fill="#4a3d90" fill-rule="evenodd" fill-opacity="1" /><path clip-path="url(#clip660)" d="M1428.65 222.766 Q1428.7 222.18 1429.61 222.18 L1459.01 222.18 Q1460.39 222.18 1460.41 222.719 Q1460.41 223.305 1459.1 223.281 L1429.94 223.281 Q1428.65 223.305 1428.65 222.766 M1428.65 213.397 Q1428.65 212.811 1429.66 212.835 L1458.96 212.835 Q1460.39 212.835 1460.41 213.397 Q1460.41 213.936 1459.19 213.936 L1429.61 213.936 Q1428.65 213.936 1428.65 213.397 Z" fill="#4a3d90" fill-rule="evenodd" fill-opacity="1" /><path clip-path="url(#clip660)" d="M1478.91 222.134 L1478.91 220.658 L1493.64 198.149 Q1494.02 197.563 1494.6 197.587 Q1495.14 197.587 1495.26 197.798 Q1495.38 198.008 1495.38 198.828 L1495.38 220.658 L1500.18 220.658 L1500.18 222.134 L1495.38 222.134 L1495.38 226.303 Q1495.38 227.685 1495.94 228.13 Q1496.52 228.575 1499.01 228.575 L1500.01 228.575 L1500.01 230.05 Q1498.05 229.91 1493.5 229.91 Q1488.98 229.91 1487.01 230.05 L1487.01 228.575 L1488.02 228.575 Q1490.5 228.575 1491.09 228.153 Q1491.67 227.708 1491.67 226.303 L1491.67 222.134 L1478.91 222.134 M1480.27 220.658 L1491.96 220.658 L1491.96 202.763 L1480.27 220.658 Z" fill="#4a3d90" fill-rule="evenodd" fill-opacity="1" /><path clip-path="url(#clip660)" d="M2130.76 199.809 Q2130.76 200.77 2129.94 201.566 Q2129.12 202.362 2128.16 202.362 Q2127.36 202.362 2126.87 201.87 Q2126.4 201.379 2126.4 200.629 Q2126.4 199.598 2127.22 198.849 Q2128.04 198.076 2128.93 198.076 Q2129.75 198.076 2130.24 198.591 Q2130.76 199.083 2130.76 199.809 M2128.98 212.996 Q2128.98 213.816 2128.74 214.776 L2124.34 232.343 Q2123.92 234.053 2122.91 235.458 Q2121.9 236.887 2120.61 237.777 Q2119.35 238.667 2117.97 239.135 Q2116.61 239.627 2115.32 239.627 Q2113.52 239.627 2112.3 238.831 Q2111.08 238.035 2111.08 236.653 Q2111.08 235.435 2111.88 234.662 Q2112.7 233.912 2113.68 233.912 Q2114.57 233.912 2115.04 234.428 Q2115.51 234.943 2115.51 235.599 Q2115.51 236.395 2114.92 237.145 Q2114.36 237.894 2113.35 238.128 Q2114.27 238.573 2115.23 238.573 Q2117.19 238.573 2118.79 236.77 Q2120.4 234.99 2121.11 232.179 L2125.63 214.284 Q2125.95 212.856 2125.95 211.848 Q2125.95 210.911 2125.7 210.396 Q2125.44 209.881 2125.13 209.764 Q2124.85 209.647 2124.43 209.647 Q2122.58 209.647 2120.99 211.356 Q2119.4 213.043 2118.39 215.502 Q2118.11 216.181 2117.97 216.322 Q2117.85 216.463 2117.52 216.463 Q2116.94 216.439 2116.94 215.971 Q2116.94 215.83 2117.17 215.268 Q2117.41 214.706 2117.83 213.886 Q2118.25 213.043 2118.93 212.129 Q2119.61 211.216 2120.4 210.42 Q2121.22 209.623 2122.32 209.108 Q2123.43 208.593 2124.57 208.593 Q2126.42 208.593 2127.69 209.811 Q2128.98 211.005 2128.98 212.996 Z" fill="#4a3d90" fill-rule="evenodd" fill-opacity="1" /><path clip-path="url(#clip660)" d="M2143.95 222.506 Q2143.99 221.92 2144.91 221.92 L2174.3 221.92 Q2175.68 221.92 2175.71 222.459 Q2175.71 223.044 2174.39 223.021 L2145.23 223.021 Q2143.95 223.044 2143.95 222.506 M2143.95 213.137 Q2143.95 212.551 2144.95 212.574 L2174.25 212.574 Q2175.68 212.574 2175.71 213.137 Q2175.71 213.675 2174.49 213.675 L2144.91 213.675 Q2143.95 213.675 2143.95 213.137 Z" fill="#4a3d90" fill-rule="evenodd" fill-opacity="1" /><path clip-path="url(#clip660)" d="M2194.2 223.325 Q2194.2 221.897 2195.02 221.217 Q2195.84 220.538 2196.9 220.538 Q2198 220.538 2198.77 221.264 Q2199.57 221.967 2199.57 223.208 Q2199.57 224.543 2198.63 225.293 Q2197.72 226.042 2196.41 225.855 Q2197.55 227.776 2199.66 228.642 Q2201.79 229.509 2203.76 229.509 Q2205.82 229.509 2207.48 227.729 Q2209.17 225.949 2209.17 221.592 Q2209.17 217.891 2207.72 215.76 Q2206.29 213.628 2203.46 213.628 L2201.35 213.628 Q2200.62 213.628 2200.41 213.558 Q2200.2 213.488 2200.2 213.09 Q2200.2 212.621 2200.93 212.528 Q2201.65 212.528 2202.8 212.387 Q2205.59 212.293 2207.06 209.881 Q2208.4 207.632 2208.4 204.423 Q2208.4 201.496 2206.99 200.278 Q2205.61 199.036 2203.81 199.036 Q2202.12 199.036 2200.27 199.739 Q2198.42 200.442 2197.41 202.011 Q2200.39 202.011 2200.39 204.423 Q2200.39 205.477 2199.71 206.18 Q2199.05 206.859 2197.95 206.859 Q2196.9 206.859 2196.2 206.204 Q2195.49 205.524 2195.49 204.377 Q2195.49 201.636 2197.93 199.739 Q2200.39 197.842 2203.99 197.842 Q2207.56 197.842 2210.18 199.716 Q2212.83 201.589 2212.83 204.47 Q2212.83 207.304 2210.95 209.623 Q2209.08 211.942 2206.1 212.902 Q2209.76 213.628 2211.94 216.111 Q2214.11 218.571 2214.11 221.592 Q2214.11 225.34 2211.16 228.104 Q2208.21 230.844 2203.9 230.844 Q2199.92 230.844 2197.06 228.689 Q2194.2 226.534 2194.2 223.325 Z" fill="#4a3d90" fill-rule="evenodd" fill-opacity="1" /><path clip-path="url(#clip660)" d="M2846.05 199.809 Q2846.05 200.77 2845.23 201.566 Q2844.41 202.362 2843.45 202.362 Q2842.66 202.362 2842.16 201.87 Q2841.69 201.379 2841.69 200.629 Q2841.69 199.598 2842.51 198.849 Q2843.33 198.076 2844.22 198.076 Q2845.04 198.076 2845.54 198.591 Q2846.05 199.083 2846.05 199.809 M2844.27 212.996 Q2844.27 213.816 2844.04 214.776 L2839.63 232.343 Q2839.21 234.053 2838.2 235.458 Q2837.2 236.887 2835.91 237.777 Q2834.64 238.667 2833.26 239.135 Q2831.9 239.627 2830.62 239.627 Q2828.81 239.627 2827.59 238.831 Q2826.38 238.035 2826.38 236.653 Q2826.38 235.435 2827.17 234.662 Q2827.99 233.912 2828.98 233.912 Q2829.87 233.912 2830.33 234.428 Q2830.8 234.943 2830.8 235.599 Q2830.8 236.395 2830.22 237.145 Q2829.66 237.894 2828.65 238.128 Q2829.56 238.573 2830.52 238.573 Q2832.49 238.573 2834.08 236.77 Q2835.7 234.99 2836.4 232.179 L2840.92 214.284 Q2841.25 212.856 2841.25 211.848 Q2841.25 210.911 2840.99 210.396 Q2840.73 209.881 2840.43 209.764 Q2840.15 209.647 2839.73 209.647 Q2837.88 209.647 2836.28 211.356 Q2834.69 213.043 2833.68 215.502 Q2833.4 216.181 2833.26 216.322 Q2833.15 216.463 2832.82 216.463 Q2832.23 216.439 2832.23 215.971 Q2832.23 215.83 2832.47 215.268 Q2832.7 214.706 2833.12 213.886 Q2833.54 213.043 2834.22 212.129 Q2834.9 211.216 2835.7 210.42 Q2836.52 209.623 2837.62 209.108 Q2838.72 208.593 2839.87 208.593 Q2841.72 208.593 2842.98 209.811 Q2844.27 211.005 2844.27 212.996 Z" fill="#4a3d90" fill-rule="evenodd" fill-opacity="1" /><path clip-path="url(#clip660)" d="M2859.24 222.506 Q2859.29 221.92 2860.2 221.92 L2889.6 221.92 Q2890.98 221.92 2891 222.459 Q2891 223.044 2889.69 223.021 L2860.53 223.021 Q2859.24 223.044 2859.24 222.506 M2859.24 213.137 Q2859.24 212.551 2860.25 212.574 L2889.55 212.574 Q2890.98 212.574 2891 213.137 Q2891 213.675 2889.78 213.675 L2860.2 213.675 Q2859.24 213.675 2859.24 213.137 Z" fill="#4a3d90" fill-rule="evenodd" fill-opacity="1" /><path clip-path="url(#clip660)" d="M2909.5 229.79 Q2909.5 228.923 2909.57 228.666 Q2909.66 228.408 2910.04 228.01 L2919.24 217.751 Q2924.28 212.083 2924.28 207.14 Q2924.28 203.932 2922.59 201.636 Q2920.93 199.341 2917.86 199.341 Q2915.75 199.341 2913.97 200.629 Q2912.19 201.917 2911.37 204.213 Q2911.51 204.166 2912.01 204.166 Q2913.2 204.166 2913.86 204.915 Q2914.54 205.665 2914.54 206.672 Q2914.54 207.96 2913.69 208.593 Q2912.87 209.202 2912.05 209.202 Q2911.72 209.202 2911.28 209.131 Q2910.86 209.061 2910.18 208.405 Q2909.5 207.726 2909.5 206.531 Q2909.5 203.182 2912.03 200.512 Q2914.58 197.842 2918.47 197.842 Q2922.87 197.842 2925.75 200.465 Q2928.66 203.065 2928.66 207.14 Q2928.66 208.569 2928.21 209.881 Q2927.79 211.169 2927.21 212.176 Q2926.64 213.183 2925.1 214.8 Q2923.55 216.416 2922.31 217.563 Q2921.07 218.711 2918.28 221.147 L2913.2 226.089 L2921.84 226.089 Q2926.06 226.089 2926.39 225.714 Q2926.86 225.035 2927.44 221.452 L2928.66 221.452 L2927.3 229.79 L2909.5 229.79 Z" fill="#4a3d90" fill-rule="evenodd" fill-opacity="1" /></svg>
