<?xml version="1.0" encoding="UTF-8" standalone="no"?><!DOCTYPE svg PUBLIC "-//W3C//DTD SVG 1.1//EN" "http://www.w3.org/Graphics/SVG/1.1/DTD/svg11.dtd"><svg width="100%" height="100%" viewBox="0 0 1296 419" version="1.1" xmlns="http://www.w3.org/2000/svg" xmlns:xlink="http://www.w3.org/1999/xlink" xml:space="preserve" xmlns:serif="http://www.serif.com/" style="fill-rule:evenodd;clip-rule:evenodd;stroke-linecap:round;stroke-linejoin:round;stroke-miterlimit:1.5;"><path id="x-axis" serif:id="x axis" d="M4.7,386.9l1288,-0" style="fill:none;stroke:#a9a9b3;stroke-width:5px;"/><g id="x-ticks" serif:id="x ticks"><path d="M50.3,395.378l-0,-219.932" style="fill:none;stroke:#a9a9b3;stroke-opacity:0.3;stroke-width:2px;"/><path d="M98.1,395.378l0,-219.932" style="fill:none;stroke:#a9a9b3;stroke-opacity:0.3;stroke-width:2px;"/><path d="M145.9,395.378l0,-219.932" style="fill:none;stroke:#a9a9b3;stroke-opacity:0.3;stroke-width:2px;"/><path d="M193.7,395.378l0,-219.932" style="fill:none;stroke:#a9a9b3;stroke-opacity:0.3;stroke-width:2px;"/><path d="M241.5,395.378l0,-219.932" style="fill:none;stroke:#a9a9b3;stroke-opacity:0.3;stroke-width:2px;"/><path d="M289.3,395.378l-0,-219.932" style="fill:none;stroke:#a9a9b3;stroke-opacity:0.3;stroke-width:2px;"/><path d="M337.1,396.5l0,-219.932" style="fill:none;stroke:#a9a9b3;stroke-opacity:0.3;stroke-width:2px;"/><path d="M384.9,396.5l0,-219.932" style="fill:none;stroke:#a9a9b3;stroke-opacity:0.3;stroke-width:2px;"/><path d="M432.7,395.378l0,-219.932" style="fill:none;stroke:#a9a9b3;stroke-opacity:0.3;stroke-width:2px;"/><path d="M480.7,395.378l-0,-219.932" style="fill:none;stroke:#a9a9b3;stroke-opacity:0.3;stroke-width:2px;"/><path d="M528.3,395.378l0,-219.932" style="fill:none;stroke:#a9a9b3;stroke-opacity:0.3;stroke-width:2px;"/><path d="M576.1,395.378l-0,-219.932" style="fill:none;stroke:#a9a9b3;stroke-opacity:0.3;stroke-width:2px;"/><path d="M623.9,395.378l0,-219.932" style="fill:none;stroke:#a9a9b3;stroke-opacity:0.3;stroke-width:2px;"/><path d="M671.7,395.378l0,-219.932" style="fill:none;stroke:#a9a9b3;stroke-opacity:0.3;stroke-width:2px;"/><path d="M719.5,395.378l0,-219.932" style="fill:none;stroke:#a9a9b3;stroke-opacity:0.3;stroke-width:2px;"/><path d="M767.3,395.49l-0,-219.932" style="fill:none;stroke:#a9a9b3;stroke-opacity:0.3;stroke-width:2px;"/><path d="M815.1,395.378l-0,-219.932" style="fill:none;stroke:#a9a9b3;stroke-opacity:0.3;stroke-width:2px;"/><path d="M862.9,395.378l-0,-219.932" style="fill:none;stroke:#a9a9b3;stroke-opacity:0.3;stroke-width:2px;"/><path d="M910.7,396.5l0,-219.932" style="fill:none;stroke:#a9a9b3;stroke-opacity:0.3;stroke-width:2px;"/><path d="M958.5,395.378l0,-219.932" style="fill:none;stroke:#a9a9b3;stroke-opacity:0.3;stroke-width:2px;"/><path d="M1006.3,395.378l-0,-219.932" style="fill:none;stroke:#a9a9b3;stroke-opacity:0.3;stroke-width:2px;"/><path d="M1054.1,395.378l0,-219.932" style="fill:none;stroke:#a9a9b3;stroke-opacity:0.3;stroke-width:2px;"/><path d="M1101.9,395.378l-0,-219.932" style="fill:none;stroke:#a9a9b3;stroke-opacity:0.3;stroke-width:2px;"/><path d="M1149.7,396.5l0,-219.932" style="fill:none;stroke:#a9a9b3;stroke-opacity:0.3;stroke-width:2px;"/><path d="M1197.5,395.49l0,-219.932" style="fill:none;stroke:#a9a9b3;stroke-opacity:0.3;stroke-width:2px;"/><path d="M1245.3,395.378l0,-219.932" style="fill:none;stroke:#a9a9b3;stroke-opacity:0.3;stroke-width:2px;"/></g><g id="x-axis-tick-labels" serif:id="x axis tick labels"><path d="M53.538,401.162l-0,17.454l-1.591,0l-0,-15.784l-0.102,0l-4.091,2.716l-0,-1.648l4.125,-2.738l1.659,-0Z" style="fill:#a9a9b3;fill-rule:nonzero;"/><path d="M94.25,418.616l-0,-1.17l5.704,-6.409c0.742,-0.837 1.341,-1.555 1.796,-2.152c0.454,-0.598 0.786,-1.149 0.994,-1.654c0.208,-0.504 0.312,-1.031 0.312,-1.58c0,-0.663 -0.155,-1.244 -0.467,-1.742c-0.312,-0.498 -0.737,-0.885 -1.276,-1.162c-0.538,-0.276 -1.147,-0.415 -1.825,-0.415c-0.716,0 -1.342,0.153 -1.878,0.459c-0.536,0.306 -0.951,0.726 -1.247,1.26c-0.295,0.534 -0.443,1.147 -0.443,1.838l-1.523,0c0,-0.964 0.223,-1.819 0.669,-2.567c0.446,-0.747 1.057,-1.333 1.833,-1.76c0.775,-0.426 1.654,-0.639 2.635,-0.639c0.973,0 1.838,0.209 2.593,0.627c0.756,0.417 1.35,0.984 1.782,1.699c0.431,0.715 0.647,1.515 0.647,2.402c0,0.642 -0.112,1.264 -0.336,1.866c-0.225,0.602 -0.61,1.273 -1.157,2.011c-0.546,0.739 -1.302,1.643 -2.268,2.713l-4.33,4.83l0,0.114l8.637,-0l-0,1.431l-10.852,0Z" style="fill:#a9a9b3;fill-rule:nonzero;"/><path d="M147.331,418.855c-1.078,0 -2.04,-0.195 -2.885,-0.585c-0.846,-0.39 -1.516,-0.931 -2.01,-1.622c-0.495,-0.692 -0.757,-1.49 -0.787,-2.395l1.613,-0c0.031,0.636 0.228,1.192 0.591,1.666c0.364,0.474 0.846,0.844 1.448,1.108c0.601,0.264 1.27,0.396 2.007,0.396c0.809,0 1.522,-0.15 2.139,-0.451c0.617,-0.302 1.101,-0.714 1.45,-1.239c0.35,-0.525 0.524,-1.12 0.524,-1.787c0,-0.706 -0.179,-1.329 -0.539,-1.866c-0.36,-0.538 -0.874,-0.958 -1.541,-1.26c-0.668,-0.303 -1.463,-0.454 -2.385,-0.454l-1.023,0l-0,-1.431l1.023,-0c0.753,-0 1.422,-0.138 2.005,-0.412c0.584,-0.275 1.043,-0.662 1.378,-1.162c0.335,-0.5 0.503,-1.089 0.503,-1.767c-0,-0.644 -0.146,-1.21 -0.438,-1.699c-0.291,-0.489 -0.699,-0.871 -1.223,-1.148c-0.523,-0.276 -1.136,-0.415 -1.839,-0.415c-0.672,0 -1.291,0.131 -1.855,0.391c-0.565,0.26 -1.019,0.63 -1.362,1.108c-0.344,0.478 -0.525,1.043 -0.544,1.695l-1.546,-0c0.023,-0.91 0.275,-1.71 0.756,-2.401c0.481,-0.691 1.12,-1.231 1.916,-1.619c0.796,-0.389 1.682,-0.583 2.658,-0.583c1.024,0 1.912,0.21 2.663,0.63c0.751,0.419 1.332,0.978 1.743,1.676c0.411,0.698 0.616,1.463 0.616,2.297c0,0.996 -0.269,1.847 -0.806,2.553c-0.538,0.707 -1.266,1.197 -2.182,1.469l-0,0.114c1.115,0.218 1.993,0.709 2.632,1.474c0.639,0.765 0.959,1.702 0.959,2.81c-0,0.93 -0.245,1.766 -0.735,2.509c-0.489,0.742 -1.159,1.328 -2.01,1.757c-0.85,0.429 -1.822,0.643 -2.914,0.643Z" style="fill:#a9a9b3;fill-rule:nonzero;"/><path d="M188.957,414.866l0,-1.295l7.784,-12.409l0.955,-0l-0,2.17l-0.705,0l-6.25,9.989l0,0.114l10.205,-0l-0,1.431l-11.989,0Zm8.148,3.75l-0,-17.454l1.523,-0l-0,17.454l-1.523,0Z" style="fill:#a9a9b3;fill-rule:nonzero;"/><path d="M242.674,418.855c-0.967,0 -1.834,-0.198 -2.599,-0.594c-0.765,-0.395 -1.374,-0.94 -1.827,-1.633c-0.452,-0.693 -0.693,-1.485 -0.721,-2.375l1.545,-0c0.051,0.924 0.414,1.684 1.09,2.278c0.675,0.595 1.512,0.892 2.512,0.892c0.783,0 1.477,-0.186 2.083,-0.559c0.606,-0.373 1.081,-0.885 1.426,-1.534c0.345,-0.65 0.516,-1.384 0.514,-2.202c-0.002,-0.852 -0.185,-1.604 -0.55,-2.256c-0.364,-0.651 -0.857,-1.161 -1.48,-1.528c-0.622,-0.368 -1.32,-0.553 -2.095,-0.557c-0.585,-0.004 -1.158,0.094 -1.719,0.293c-0.56,0.198 -1.029,0.453 -1.406,0.764l-1.591,-0.205l1.046,-8.477l8.625,-0l-0,1.432l-7.284,-0l-0.705,5.841l0.091,-0c0.384,-0.324 0.853,-0.589 1.406,-0.794c0.553,-0.206 1.141,-0.309 1.764,-0.309c1.025,0 1.949,0.247 2.772,0.74c0.823,0.494 1.474,1.174 1.954,2.04c0.481,0.867 0.72,1.864 0.718,2.993c-0.002,1.102 -0.243,2.086 -0.722,2.952c-0.479,0.865 -1.138,1.548 -1.977,2.048c-0.839,0.5 -1.796,0.75 -2.87,0.75Z" style="fill:#a9a9b3;fill-rule:nonzero;"/><path d="M290.67,418.855c-0.723,-0.007 -1.429,-0.154 -2.116,-0.44c-0.688,-0.286 -1.307,-0.749 -1.857,-1.388c-0.55,-0.639 -0.987,-1.484 -1.312,-2.536c-0.325,-1.051 -0.487,-2.342 -0.487,-3.875c-0,-1.422 0.124,-2.724 0.373,-3.907c0.249,-1.183 0.624,-2.206 1.124,-3.07c0.5,-0.863 1.126,-1.532 1.878,-2.005c0.751,-0.474 1.63,-0.711 2.636,-0.711c0.939,0 1.771,0.195 2.494,0.584c0.724,0.389 1.309,0.93 1.756,1.622c0.447,0.693 0.727,1.491 0.841,2.397l-1.568,-0c-0.158,-0.923 -0.535,-1.682 -1.132,-2.277c-0.598,-0.596 -1.395,-0.894 -2.391,-0.894c-1.432,0 -2.541,0.663 -3.327,1.99c-0.786,1.327 -1.181,3.209 -1.184,5.646l0.113,0c0.275,-0.515 0.633,-0.962 1.076,-1.342c0.442,-0.38 0.943,-0.675 1.504,-0.886c0.56,-0.211 1.151,-0.317 1.772,-0.317c0.972,-0 1.861,0.245 2.667,0.736c0.806,0.49 1.451,1.164 1.936,2.02c0.485,0.856 0.727,1.831 0.727,2.926c0,1.041 -0.23,1.999 -0.689,2.872c-0.459,0.873 -1.102,1.569 -1.929,2.088c-0.827,0.519 -1.795,0.775 -2.905,0.767Zm0,-1.432c0.758,0 1.436,-0.193 2.036,-0.579c0.599,-0.387 1.073,-0.905 1.42,-1.554c0.348,-0.65 0.522,-1.371 0.522,-2.162c-0,-0.788 -0.174,-1.504 -0.522,-2.147c-0.347,-0.642 -0.821,-1.154 -1.42,-1.534c-0.6,-0.379 -1.278,-0.569 -2.036,-0.569c-0.581,-0 -1.122,0.117 -1.622,0.351c-0.5,0.234 -0.933,0.554 -1.3,0.96c-0.366,0.406 -0.644,0.871 -0.833,1.393c-0.19,0.523 -0.264,1.072 -0.222,1.648c0.064,0.803 0.274,1.521 0.629,2.153c0.355,0.633 0.821,1.131 1.398,1.495c0.577,0.363 1.227,0.545 1.95,0.545Z" style="fill:#a9a9b3;fill-rule:nonzero;"/><path d="M334.087,418.616l7.954,-15.909l0,-0.113l-9.159,-0l-0,-1.432l10.83,-0l-0,1.5l-7.944,15.954l-1.681,0Z" style="fill:#a9a9b3;fill-rule:nonzero;"/><path d="M386.224,418.855c-1.113,0 -2.105,-0.21 -2.975,-0.631c-0.871,-0.42 -1.553,-0.995 -2.049,-1.724c-0.495,-0.729 -0.741,-1.554 -0.737,-2.475c-0.004,-0.723 0.145,-1.398 0.447,-2.025c0.303,-0.627 0.717,-1.156 1.245,-1.587c0.527,-0.431 1.122,-0.711 1.785,-0.842l0,-0.091c-0.858,-0.248 -1.549,-0.74 -2.072,-1.477c-0.524,-0.737 -0.784,-1.574 -0.78,-2.512c-0.004,-0.867 0.218,-1.645 0.666,-2.333c0.448,-0.689 1.06,-1.233 1.837,-1.634c0.776,-0.4 1.654,-0.601 2.633,-0.601c0.968,0 1.839,0.2 2.614,0.6c0.775,0.399 1.388,0.943 1.839,1.632c0.452,0.688 0.68,1.467 0.684,2.336c-0.004,0.934 -0.267,1.771 -0.79,2.51c-0.523,0.74 -1.21,1.233 -2.063,1.479l0,0.091c0.66,0.127 1.25,0.406 1.772,0.838c0.522,0.432 0.935,0.962 1.241,1.59c0.306,0.627 0.461,1.303 0.465,2.026c-0.004,0.921 -0.254,1.746 -0.752,2.475c-0.497,0.729 -1.179,1.304 -2.045,1.724c-0.867,0.421 -1.855,0.631 -2.965,0.631Zm0,-1.432c0.83,0 1.559,-0.149 2.186,-0.447c0.628,-0.298 1.119,-0.709 1.472,-1.233c0.353,-0.524 0.532,-1.123 0.536,-1.797c-0.004,-0.697 -0.19,-1.321 -0.559,-1.871c-0.368,-0.55 -0.867,-0.985 -1.497,-1.307c-0.63,-0.321 -1.342,-0.481 -2.138,-0.481c-0.799,-0 -1.515,0.16 -2.149,0.481c-0.633,0.322 -1.133,0.757 -1.5,1.307c-0.366,0.55 -0.548,1.174 -0.544,1.871c-0.004,0.674 0.17,1.273 0.522,1.797c0.351,0.524 0.843,0.935 1.475,1.233c0.633,0.298 1.365,0.447 2.196,0.447Zm0,-8.5c0.68,0 1.29,-0.145 1.83,-0.434c0.54,-0.29 0.967,-0.686 1.283,-1.189c0.315,-0.503 0.475,-1.076 0.478,-1.718c-0.003,-0.636 -0.161,-1.199 -0.473,-1.689c-0.311,-0.489 -0.736,-0.872 -1.274,-1.147c-0.538,-0.276 -1.152,-0.414 -1.844,-0.414c-0.697,0 -1.316,0.138 -1.859,0.414c-0.543,0.275 -0.968,0.658 -1.276,1.147c-0.307,0.49 -0.459,1.053 -0.456,1.689c-0.003,0.642 0.152,1.215 0.465,1.718c0.313,0.503 0.741,0.899 1.284,1.189c0.543,0.289 1.157,0.434 1.842,0.434Z" style="fill:#a9a9b3;fill-rule:nonzero;"/><path d="M433.777,400.923c0.725,0.004 1.431,0.15 2.118,0.439c0.686,0.289 1.305,0.75 1.855,1.384c0.55,0.633 0.988,1.474 1.313,2.521c0.324,1.047 0.487,2.334 0.487,3.861c-0,1.426 -0.125,2.733 -0.375,3.92c-0.25,1.188 -0.624,2.215 -1.122,3.083c-0.499,0.867 -1.124,1.538 -1.875,2.012c-0.752,0.475 -1.632,0.712 -2.64,0.712c-0.939,0 -1.77,-0.195 -2.494,-0.587c-0.723,-0.391 -1.31,-0.934 -1.758,-1.63c-0.449,-0.696 -0.729,-1.503 -0.838,-2.419l1.568,-0c0.153,0.932 0.53,1.699 1.13,2.301c0.601,0.602 1.398,0.903 2.392,0.903c1.427,0 2.535,-0.665 3.326,-1.994c0.79,-1.33 1.186,-3.222 1.186,-5.676l-0.114,-0c-0.273,0.511 -0.63,0.958 -1.071,1.339c-0.441,0.382 -0.942,0.678 -1.503,0.89c-0.56,0.211 -1.153,0.316 -1.778,0.316c-0.974,0 -1.864,-0.245 -2.672,-0.736c-0.808,-0.49 -1.453,-1.163 -1.935,-2.019c-0.482,-0.856 -0.723,-1.832 -0.723,-2.927c0,-1.034 0.229,-1.984 0.686,-2.852c0.458,-0.867 1.1,-1.56 1.926,-2.079c0.827,-0.519 1.797,-0.773 2.911,-0.762Zm0,1.432c-0.758,0 -1.436,0.191 -2.035,0.574c-0.6,0.383 -1.073,0.897 -1.421,1.543c-0.347,0.645 -0.521,1.36 -0.521,2.144c-0,0.792 0.174,1.509 0.521,2.152c0.348,0.643 0.821,1.154 1.421,1.532c0.599,0.378 1.277,0.566 2.035,0.566c0.581,0 1.122,-0.116 1.622,-0.35c0.5,-0.234 0.933,-0.556 1.3,-0.965c0.366,-0.409 0.645,-0.874 0.835,-1.396c0.19,-0.522 0.264,-1.069 0.22,-1.641c-0.064,-0.795 -0.274,-1.506 -0.629,-2.133c-0.355,-0.627 -0.821,-1.121 -1.398,-1.483c-0.576,-0.362 -1.227,-0.543 -1.95,-0.543Z" style="fill:#a9a9b3;fill-rule:nonzero;"/><path d="M475.664,401.162l0,17.454l-1.591,0l0,-15.784l-0.102,0l-4.091,2.716l-0,-1.648l4.125,-2.738l1.659,-0Z" style="fill:#a9a9b3;fill-rule:nonzero;"/><path d="M487.734,418.855c-1.226,0 -2.272,-0.354 -3.141,-1.062c-0.868,-0.709 -1.533,-1.732 -1.995,-3.071c-0.463,-1.339 -0.694,-2.95 -0.694,-4.833c0,-1.875 0.232,-3.482 0.696,-4.821c0.464,-1.339 1.131,-2.364 2.002,-3.077c0.87,-0.712 1.914,-1.068 3.132,-1.068c1.218,0 2.262,0.356 3.132,1.068c0.87,0.713 1.537,1.738 2.001,3.077c0.464,1.339 0.696,2.946 0.696,4.821c0,1.883 -0.231,3.494 -0.693,4.833c-0.462,1.339 -1.127,2.362 -1.996,3.071c-0.868,0.708 -1.915,1.062 -3.14,1.062Zm-0,-1.432c1.345,0 2.395,-0.658 3.15,-1.974c0.756,-1.316 1.134,-3.17 1.134,-5.56c-0,-1.591 -0.172,-2.95 -0.516,-4.078c-0.343,-1.128 -0.834,-1.99 -1.473,-2.585c-0.638,-0.596 -1.403,-0.894 -2.295,-0.894c-1.337,0 -2.386,0.663 -3.145,1.989c-0.759,1.326 -1.139,3.182 -1.139,5.568c-0,1.591 0.171,2.949 0.513,4.073c0.341,1.124 0.832,1.982 1.471,2.574c0.639,0.591 1.406,0.887 2.3,0.887Z" style="fill:#a9a9b3;fill-rule:nonzero;"/><path d="M525.376,401.162l-0,17.454l-1.591,0l-0,-15.784l-0.102,0l-4.091,2.716l-0,-1.648l4.125,-2.738l1.659,-0Z" style="fill:#a9a9b3;fill-rule:nonzero;"/><path d="M537.411,401.162l0,17.454l-1.59,0l-0,-15.784l-0.103,0l-4.091,2.716l0,-1.648l4.125,-2.738l1.659,-0Z" style="fill:#a9a9b3;fill-rule:nonzero;"/><path d="M571.474,401.162l-0,17.454l-1.591,0l-0,-15.784l-0.102,0l-4.091,2.716l-0,-1.648l4.125,-2.738l1.659,-0Z" style="fill:#a9a9b3;fill-rule:nonzero;"/><path d="M578.123,418.616l0,-1.17l5.705,-6.409c0.742,-0.837 1.341,-1.555 1.795,-2.152c0.455,-0.598 0.786,-1.149 0.994,-1.654c0.209,-0.504 0.313,-1.031 0.313,-1.58c-0,-0.663 -0.156,-1.244 -0.467,-1.742c-0.312,-0.498 -0.737,-0.885 -1.276,-1.162c-0.539,-0.276 -1.147,-0.415 -1.825,-0.415c-0.716,0 -1.342,0.153 -1.878,0.459c-0.536,0.306 -0.952,0.726 -1.247,1.26c-0.296,0.534 -0.443,1.147 -0.443,1.838l-1.523,0c-0,-0.964 0.223,-1.819 0.669,-2.567c0.446,-0.747 1.057,-1.333 1.832,-1.76c0.776,-0.426 1.654,-0.639 2.635,-0.639c0.974,0 1.838,0.209 2.594,0.627c0.756,0.417 1.349,0.984 1.781,1.699c0.432,0.715 0.648,1.515 0.648,2.402c-0,0.642 -0.112,1.264 -0.337,1.866c-0.224,0.602 -0.61,1.273 -1.156,2.011c-0.546,0.739 -1.302,1.643 -2.268,2.713l-4.33,4.83l0,0.114l8.636,-0l0,1.431l-10.852,0Z" style="fill:#a9a9b3;fill-rule:nonzero;"/><path d="M618.884,401.162l0,17.454l-1.591,0l0,-15.784l-0.102,0l-4.091,2.716l0,-1.648l4.125,-2.738l1.659,-0Z" style="fill:#a9a9b3;fill-rule:nonzero;"/><path d="M631.204,418.855c-1.077,0 -2.039,-0.195 -2.885,-0.585c-0.845,-0.39 -1.515,-0.931 -2.01,-1.622c-0.494,-0.692 -0.756,-1.49 -0.787,-2.395l1.614,-0c0.03,0.636 0.227,1.192 0.591,1.666c0.364,0.474 0.846,0.844 1.447,1.108c0.602,0.264 1.271,0.396 2.008,0.396c0.808,0 1.521,-0.15 2.139,-0.451c0.617,-0.302 1.101,-0.714 1.45,-1.239c0.349,-0.525 0.524,-1.12 0.524,-1.787c0,-0.706 -0.18,-1.329 -0.54,-1.866c-0.359,-0.538 -0.873,-0.958 -1.541,-1.26c-0.667,-0.303 -1.462,-0.454 -2.385,-0.454l-1.023,0l0,-1.431l1.023,-0c0.754,-0 1.423,-0.138 2.006,-0.412c0.583,-0.275 1.042,-0.662 1.378,-1.162c0.335,-0.5 0.503,-1.089 0.503,-1.767c-0,-0.644 -0.146,-1.21 -0.438,-1.699c-0.292,-0.489 -0.699,-0.871 -1.223,-1.148c-0.524,-0.276 -1.137,-0.415 -1.839,-0.415c-0.673,0 -1.291,0.131 -1.856,0.391c-0.564,0.26 -1.018,0.63 -1.362,1.108c-0.343,0.478 -0.525,1.043 -0.544,1.695l-1.545,-0c0.023,-0.91 0.274,-1.71 0.755,-2.401c0.481,-0.691 1.12,-1.231 1.917,-1.619c0.796,-0.389 1.682,-0.583 2.657,-0.583c1.025,0 1.913,0.21 2.664,0.63c0.751,0.419 1.332,0.978 1.743,1.676c0.411,0.698 0.616,1.463 0.616,2.297c0,0.996 -0.269,1.847 -0.807,2.553c-0.538,0.707 -1.265,1.197 -2.182,1.469l0,0.114c1.116,0.218 1.993,0.709 2.633,1.474c0.639,0.765 0.958,1.702 0.958,2.81c0,0.93 -0.245,1.766 -0.734,2.509c-0.49,0.742 -1.16,1.328 -2.01,1.757c-0.85,0.429 -1.822,0.643 -2.915,0.643Z" style="fill:#a9a9b3;fill-rule:nonzero;"/><path d="M666.602,401.162l-0,17.454l-1.591,0l-0,-15.784l-0.102,0l-4.091,2.716l-0,-1.648l4.125,-2.738l1.659,-0Z" style="fill:#a9a9b3;fill-rule:nonzero;"/><path d="M672.831,414.866l-0,-1.295l7.784,-12.409l0.954,-0l0,2.17l-0.704,0l-6.25,9.989l-0,0.114l10.204,-0l0,1.431l-11.988,0Zm8.147,3.75l0,-17.454l1.523,-0l0,17.454l-1.523,0Z" style="fill:#a9a9b3;fill-rule:nonzero;"/><path d="M714.796,401.162l0,17.454l-1.59,0l-0,-15.784l-0.103,0l-4.091,2.716l0,-1.648l4.125,-2.738l1.659,-0Z" style="fill:#a9a9b3;fill-rule:nonzero;"/><path d="M726.548,418.855c-0.968,0 -1.834,-0.198 -2.599,-0.594c-0.765,-0.395 -1.374,-0.94 -1.827,-1.633c-0.453,-0.693 -0.693,-1.485 -0.722,-2.375l1.546,-0c0.051,0.924 0.414,1.684 1.089,2.278c0.676,0.595 1.513,0.892 2.513,0.892c0.782,0 1.476,-0.186 2.083,-0.559c0.606,-0.373 1.081,-0.885 1.426,-1.534c0.344,-0.65 0.516,-1.384 0.514,-2.202c-0.002,-0.852 -0.185,-1.604 -0.55,-2.256c-0.364,-0.651 -0.858,-1.161 -1.48,-1.528c-0.622,-0.368 -1.321,-0.553 -2.095,-0.557c-0.585,-0.004 -1.158,0.094 -1.719,0.293c-0.561,0.198 -1.029,0.453 -1.406,0.764l-1.591,-0.205l1.045,-8.477l8.625,-0l0,1.432l-7.284,-0l-0.704,5.841l0.091,-0c0.384,-0.324 0.853,-0.589 1.406,-0.794c0.553,-0.206 1.141,-0.309 1.764,-0.309c1.025,0 1.949,0.247 2.771,0.74c0.823,0.494 1.475,1.174 1.955,2.04c0.48,0.867 0.719,1.864 0.717,2.993c-0.002,1.102 -0.242,2.086 -0.721,2.952c-0.479,0.865 -1.139,1.548 -1.978,2.048c-0.839,0.5 -1.795,0.75 -2.869,0.75Z" style="fill:#a9a9b3;fill-rule:nonzero;"/><path d="M762.395,401.162l-0,17.454l-1.591,0l-0,-15.784l-0.103,0l-4.091,2.716l0,-1.648l4.125,-2.738l1.66,-0Z" style="fill:#a9a9b3;fill-rule:nonzero;"/><path d="M774.544,418.855c-0.724,-0.007 -1.429,-0.154 -2.117,-0.44c-0.687,-0.286 -1.306,-0.749 -1.856,-1.388c-0.55,-0.639 -0.988,-1.484 -1.313,-2.536c-0.324,-1.051 -0.487,-2.342 -0.487,-3.875c0,-1.422 0.125,-2.724 0.374,-3.907c0.249,-1.183 0.623,-2.206 1.123,-3.07c0.5,-0.863 1.126,-1.532 1.878,-2.005c0.752,-0.474 1.631,-0.711 2.637,-0.711c0.939,0 1.77,0.195 2.494,0.584c0.723,0.389 1.309,0.93 1.756,1.622c0.447,0.693 0.727,1.491 0.841,2.397l-1.569,-0c-0.157,-0.923 -0.534,-1.682 -1.132,-2.277c-0.597,-0.596 -1.394,-0.894 -2.39,-0.894c-1.432,0 -2.541,0.663 -3.327,1.99c-0.786,1.327 -1.181,3.209 -1.185,5.646l0.114,0c0.275,-0.515 0.633,-0.962 1.075,-1.342c0.442,-0.38 0.944,-0.675 1.504,-0.886c0.561,-0.211 1.152,-0.317 1.773,-0.317c0.972,-0 1.86,0.245 2.666,0.736c0.806,0.49 1.452,1.164 1.936,2.02c0.485,0.856 0.728,1.831 0.728,2.926c-0,1.041 -0.23,1.999 -0.689,2.872c-0.459,0.873 -1.102,1.569 -1.929,2.088c-0.827,0.519 -1.795,0.775 -2.905,0.767Zm-0,-1.432c0.758,0 1.436,-0.193 2.035,-0.579c0.6,-0.387 1.073,-0.905 1.421,-1.554c0.347,-0.65 0.521,-1.371 0.521,-2.162c0,-0.788 -0.174,-1.504 -0.521,-2.147c-0.348,-0.642 -0.821,-1.154 -1.421,-1.534c-0.599,-0.379 -1.277,-0.569 -2.035,-0.569c-0.582,-0 -1.122,0.117 -1.622,0.351c-0.5,0.234 -0.933,0.554 -1.3,0.96c-0.366,0.406 -0.644,0.871 -0.834,1.393c-0.189,0.523 -0.263,1.072 -0.221,1.648c0.064,0.803 0.274,1.521 0.629,2.153c0.355,0.633 0.821,1.131 1.398,1.495c0.576,0.363 1.226,0.545 1.95,0.545Z" style="fill:#a9a9b3;fill-rule:nonzero;"/><path d="M810.811,401.162l-0,17.454l-1.591,0l-0,-15.784l-0.102,0l-4.091,2.716l-0,-1.648l4.125,-2.738l1.659,-0Z" style="fill:#a9a9b3;fill-rule:nonzero;"/><path d="M817.96,418.616l7.955,-15.909l-0,-0.113l-9.159,-0l-0,-1.432l10.829,-0l0,1.5l-7.943,15.954l-1.682,0Z" style="fill:#a9a9b3;fill-rule:nonzero;"/><path d="M858.051,401.162l-0,17.454l-1.591,0l-0,-15.784l-0.102,0l-4.091,2.716l-0,-1.648l4.125,-2.738l1.659,-0Z" style="fill:#a9a9b3;fill-rule:nonzero;"/><path d="M870.098,418.855c-1.114,0 -2.106,-0.21 -2.976,-0.631c-0.87,-0.42 -1.553,-0.995 -2.048,-1.724c-0.495,-0.729 -0.741,-1.554 -0.737,-2.475c-0.004,-0.723 0.145,-1.398 0.447,-2.025c0.302,-0.627 0.717,-1.156 1.244,-1.587c0.528,-0.431 1.123,-0.711 1.786,-0.842l-0,-0.091c-0.858,-0.248 -1.549,-0.74 -2.073,-1.477c-0.523,-0.737 -0.783,-1.574 -0.779,-2.512c-0.004,-0.867 0.218,-1.645 0.666,-2.333c0.448,-0.689 1.06,-1.233 1.837,-1.634c0.776,-0.4 1.654,-0.601 2.633,-0.601c0.968,0 1.839,0.2 2.614,0.6c0.774,0.399 1.387,0.943 1.839,1.632c0.452,0.688 0.68,1.467 0.683,2.336c-0.003,0.934 -0.267,1.771 -0.789,2.51c-0.523,0.74 -1.211,1.233 -2.063,1.479l0,0.091c0.659,0.127 1.25,0.406 1.771,0.838c0.522,0.432 0.936,0.962 1.242,1.59c0.306,0.627 0.461,1.303 0.464,2.026c-0.003,0.921 -0.254,1.746 -0.751,2.475c-0.497,0.729 -1.179,1.304 -2.045,1.724c-0.867,0.421 -1.855,0.631 -2.965,0.631Zm-0,-1.432c0.83,0 1.558,-0.149 2.186,-0.447c0.628,-0.298 1.118,-0.709 1.472,-1.233c0.353,-0.524 0.531,-1.123 0.535,-1.797c-0.004,-0.697 -0.19,-1.321 -0.558,-1.871c-0.368,-0.55 -0.867,-0.985 -1.497,-1.307c-0.63,-0.321 -1.343,-0.481 -2.138,-0.481c-0.799,-0 -1.516,0.16 -2.149,0.481c-0.634,0.322 -1.134,0.757 -1.5,1.307c-0.367,0.55 -0.548,1.174 -0.544,1.871c-0.004,0.674 0.17,1.273 0.521,1.797c0.351,0.524 0.843,0.935 1.476,1.233c0.633,0.298 1.365,0.447 2.196,0.447Zm-0,-8.5c0.68,0 1.29,-0.145 1.83,-0.434c0.539,-0.29 0.967,-0.686 1.282,-1.189c0.316,-0.503 0.475,-1.076 0.479,-1.718c-0.004,-0.636 -0.162,-1.199 -0.473,-1.689c-0.312,-0.489 -0.736,-0.872 -1.274,-1.147c-0.538,-0.276 -1.153,-0.414 -1.844,-0.414c-0.697,0 -1.317,0.138 -1.859,0.414c-0.543,0.275 -0.968,0.658 -1.276,1.147c-0.308,0.49 -0.46,1.053 -0.456,1.689c-0.004,0.642 0.151,1.215 0.465,1.718c0.313,0.503 0.741,0.899 1.284,1.189c0.542,0.289 1.156,0.434 1.842,0.434Z" style="fill:#a9a9b3;fill-rule:nonzero;"/><path d="M905.751,401.162l0,17.454l-1.591,0l0,-15.784l-0.102,0l-4.091,2.716l0,-1.648l4.125,-2.738l1.659,-0Z" style="fill:#a9a9b3;fill-rule:nonzero;"/><path d="M917.651,400.923c0.725,0.004 1.431,0.15 2.118,0.439c0.686,0.289 1.304,0.75 1.855,1.384c0.55,0.633 0.987,1.474 1.312,2.521c0.325,1.047 0.487,2.334 0.487,3.861c0,1.426 -0.125,2.733 -0.375,3.92c-0.25,1.188 -0.624,2.215 -1.122,3.083c-0.498,0.867 -1.123,1.538 -1.875,2.012c-0.752,0.475 -1.631,0.712 -2.639,0.712c-0.939,0 -1.771,-0.195 -2.494,-0.587c-0.724,-0.391 -1.31,-0.934 -1.759,-1.63c-0.449,-0.696 -0.728,-1.503 -0.838,-2.419l1.568,-0c0.154,0.932 0.531,1.699 1.131,2.301c0.6,0.602 1.398,0.903 2.392,0.903c1.426,0 2.535,-0.665 3.325,-1.994c0.791,-1.33 1.186,-3.222 1.186,-5.676l-0.113,-0c-0.273,0.511 -0.63,0.958 -1.071,1.339c-0.442,0.382 -0.942,0.678 -1.503,0.89c-0.561,0.211 -1.154,0.316 -1.779,0.316c-0.973,0 -1.864,-0.245 -2.671,-0.736c-0.808,-0.49 -1.453,-1.163 -1.935,-2.019c-0.482,-0.856 -0.723,-1.832 -0.723,-2.927c-0,-1.034 0.229,-1.984 0.686,-2.852c0.457,-0.867 1.099,-1.56 1.926,-2.079c0.827,-0.519 1.797,-0.773 2.911,-0.762Zm-0,1.432c-0.758,0 -1.436,0.191 -2.036,0.574c-0.599,0.383 -1.073,0.897 -1.42,1.543c-0.348,0.645 -0.522,1.36 -0.522,2.144c0,0.792 0.174,1.509 0.522,2.152c0.347,0.643 0.821,1.154 1.42,1.532c0.6,0.378 1.278,0.566 2.036,0.566c0.581,0 1.122,-0.116 1.622,-0.35c0.5,-0.234 0.933,-0.556 1.299,-0.965c0.367,-0.409 0.645,-0.874 0.836,-1.396c0.19,-0.522 0.263,-1.069 0.22,-1.641c-0.064,-0.795 -0.274,-1.506 -0.629,-2.133c-0.355,-0.627 -0.821,-1.121 -1.398,-1.483c-0.577,-0.362 -1.227,-0.543 -1.95,-0.543Z" style="fill:#a9a9b3;fill-rule:nonzero;"/><path d="M946.446,418.616l-0,-1.17l5.704,-6.409c0.743,-0.837 1.341,-1.555 1.796,-2.152c0.455,-0.598 0.786,-1.149 0.994,-1.654c0.209,-0.504 0.313,-1.031 0.313,-1.58c-0,-0.663 -0.156,-1.244 -0.468,-1.742c-0.311,-0.498 -0.736,-0.885 -1.275,-1.162c-0.539,-0.276 -1.147,-0.415 -1.825,-0.415c-0.716,0 -1.342,0.153 -1.878,0.459c-0.536,0.306 -0.952,0.726 -1.247,1.26c-0.296,0.534 -0.444,1.147 -0.444,1.838l-1.522,0c-0,-0.964 0.223,-1.819 0.669,-2.567c0.446,-0.747 1.057,-1.333 1.832,-1.76c0.776,-0.426 1.654,-0.639 2.635,-0.639c0.974,0 1.838,0.209 2.594,0.627c0.755,0.417 1.349,0.984 1.781,1.699c0.432,0.715 0.648,1.515 0.648,2.402c-0,0.642 -0.112,1.264 -0.337,1.866c-0.224,0.602 -0.61,1.273 -1.156,2.011c-0.547,0.739 -1.303,1.643 -2.269,2.713l-4.329,4.83l-0,0.114l8.636,-0l0,1.431l-10.852,0Z" style="fill:#a9a9b3;fill-rule:nonzero;"/><path d="M967.277,418.855c-1.225,0 -2.272,-0.354 -3.14,-1.062c-0.869,-0.709 -1.534,-1.732 -1.996,-3.071c-0.462,-1.339 -0.693,-2.95 -0.693,-4.833c-0,-1.875 0.232,-3.482 0.696,-4.821c0.464,-1.339 1.131,-2.364 2.001,-3.077c0.87,-0.712 1.914,-1.068 3.132,-1.068c1.218,0 2.262,0.356 3.132,1.068c0.871,0.713 1.538,1.738 2.002,3.077c0.464,1.339 0.696,2.946 0.696,4.821c-0,1.883 -0.231,3.494 -0.694,4.833c-0.462,1.339 -1.127,2.362 -1.995,3.071c-0.869,0.708 -1.915,1.062 -3.141,1.062Zm0,-1.432c1.345,0 2.395,-0.658 3.151,-1.974c0.755,-1.316 1.133,-3.17 1.133,-5.56c0,-1.591 -0.172,-2.95 -0.515,-4.078c-0.344,-1.128 -0.835,-1.99 -1.473,-2.585c-0.639,-0.596 -1.404,-0.894 -2.296,-0.894c-1.337,0 -2.385,0.663 -3.145,1.989c-0.759,1.326 -1.139,3.182 -1.139,5.568c0,1.591 0.171,2.949 0.513,4.073c0.342,1.124 0.832,1.982 1.471,2.574c0.64,0.591 1.406,0.887 2.3,0.887Z" style="fill:#a9a9b3;fill-rule:nonzero;"/><path d="M996.158,418.616l-0,-1.17l5.704,-6.409c0.743,-0.837 1.341,-1.555 1.796,-2.152c0.454,-0.598 0.786,-1.149 0.994,-1.654c0.208,-0.504 0.312,-1.031 0.312,-1.58c0,-0.663 -0.155,-1.244 -0.467,-1.742c-0.311,-0.498 -0.737,-0.885 -1.275,-1.162c-0.539,-0.276 -1.148,-0.415 -1.826,-0.415c-0.716,0 -1.341,0.153 -1.877,0.459c-0.536,0.306 -0.952,0.726 -1.248,1.26c-0.295,0.534 -0.443,1.147 -0.443,1.838l-1.523,0c0,-0.964 0.223,-1.819 0.669,-2.567c0.446,-0.747 1.057,-1.333 1.833,-1.76c0.775,-0.426 1.654,-0.639 2.635,-0.639c0.973,0 1.838,0.209 2.593,0.627c0.756,0.417 1.35,0.984 1.782,1.699c0.432,0.715 0.647,1.515 0.647,2.402c0,0.642 -0.112,1.264 -0.336,1.866c-0.225,0.602 -0.61,1.273 -1.156,2.011c-0.547,0.739 -1.303,1.643 -2.269,2.713l-4.329,4.83l-0,0.114l8.636,-0l-0,1.431l-10.852,0Z" style="fill:#a9a9b3;fill-rule:nonzero;"/><path d="M1016.96,401.162l-0,17.454l-1.591,0l-0,-15.784l-0.102,0l-4.091,2.716l-0,-1.648l4.125,-2.738l1.659,-0Z" style="fill:#a9a9b3;fill-rule:nonzero;"/><path d="M1042.26,418.616l-0,-1.17l5.704,-6.409c0.743,-0.837 1.341,-1.555 1.796,-2.152c0.454,-0.598 0.786,-1.149 0.994,-1.654c0.208,-0.504 0.313,-1.031 0.313,-1.58c-0,-0.663 -0.156,-1.244 -0.468,-1.742c-0.311,-0.498 -0.736,-0.885 -1.275,-1.162c-0.539,-0.276 -1.148,-0.415 -1.826,-0.415c-0.715,0 -1.341,0.153 -1.877,0.459c-0.536,0.306 -0.952,0.726 -1.248,1.26c-0.295,0.534 -0.443,1.147 -0.443,1.838l-1.523,0c0,-0.964 0.223,-1.819 0.669,-2.567c0.447,-0.747 1.057,-1.333 1.833,-1.76c0.775,-0.426 1.654,-0.639 2.635,-0.639c0.973,0 1.838,0.209 2.594,0.627c0.755,0.417 1.349,0.984 1.781,1.699c0.432,0.715 0.648,1.515 0.648,2.402c-0,0.642 -0.113,1.264 -0.337,1.866c-0.225,0.602 -0.61,1.273 -1.156,2.011c-0.547,0.739 -1.303,1.643 -2.269,2.713l-4.329,4.83l-0,0.114l8.636,-0l-0,1.431l-10.852,0Z" style="fill:#a9a9b3;fill-rule:nonzero;"/><path d="M1057.67,418.616l0,-1.17l5.705,-6.409c0.742,-0.837 1.341,-1.555 1.795,-2.152c0.455,-0.598 0.786,-1.149 0.995,-1.654c0.208,-0.504 0.312,-1.031 0.312,-1.58c0,-0.663 -0.155,-1.244 -0.467,-1.742c-0.312,-0.498 -0.737,-0.885 -1.276,-1.162c-0.538,-0.276 -1.147,-0.415 -1.825,-0.415c-0.716,0 -1.342,0.153 -1.878,0.459c-0.536,0.306 -0.951,0.726 -1.247,1.26c-0.295,0.534 -0.443,1.147 -0.443,1.838l-1.523,0c0,-0.964 0.223,-1.819 0.669,-2.567c0.446,-0.747 1.057,-1.333 1.833,-1.76c0.775,-0.426 1.653,-0.639 2.635,-0.639c0.973,0 1.838,0.209 2.593,0.627c0.756,0.417 1.35,0.984 1.782,1.699c0.431,0.715 0.647,1.515 0.647,2.402c0,0.642 -0.112,1.264 -0.336,1.866c-0.225,0.602 -0.61,1.273 -1.157,2.011c-0.546,0.739 -1.302,1.643 -2.268,2.713l-4.33,4.83l0,0.114l8.637,-0l-0,1.431l-10.853,0Z" style="fill:#a9a9b3;fill-rule:nonzero;"/><path d="M1089.67,418.616l0,-1.17l5.705,-6.409c0.742,-0.837 1.341,-1.555 1.795,-2.152c0.455,-0.598 0.786,-1.149 0.995,-1.654c0.208,-0.504 0.312,-1.031 0.312,-1.58c0,-0.663 -0.156,-1.244 -0.467,-1.742c-0.312,-0.498 -0.737,-0.885 -1.276,-1.162c-0.539,-0.276 -1.147,-0.415 -1.825,-0.415c-0.716,0 -1.342,0.153 -1.878,0.459c-0.536,0.306 -0.952,0.726 -1.247,1.26c-0.295,0.534 -0.443,1.147 -0.443,1.838l-1.523,0c0,-0.964 0.223,-1.819 0.669,-2.567c0.446,-0.747 1.057,-1.333 1.832,-1.76c0.776,-0.426 1.654,-0.639 2.635,-0.639c0.974,0 1.838,0.209 2.594,0.627c0.756,0.417 1.35,0.984 1.781,1.699c0.432,0.715 0.648,1.515 0.648,2.402c0,0.642 -0.112,1.264 -0.337,1.866c-0.224,0.602 -0.609,1.273 -1.156,2.011c-0.546,0.739 -1.302,1.643 -2.268,2.713l-4.33,4.83l0,0.114l8.637,-0l-0,1.431l-10.853,0Z" style="fill:#a9a9b3;fill-rule:nonzero;"/><path d="M1110.75,418.855c-1.077,0 -2.039,-0.195 -2.884,-0.585c-0.846,-0.39 -1.516,-0.931 -2.01,-1.622c-0.495,-0.692 -0.757,-1.49 -0.787,-2.395l1.613,-0c0.031,0.636 0.228,1.192 0.591,1.666c0.364,0.474 0.846,0.844 1.448,1.108c0.601,0.264 1.27,0.396 2.007,0.396c0.809,0 1.522,-0.15 2.139,-0.451c0.617,-0.302 1.101,-0.714 1.45,-1.239c0.35,-0.525 0.524,-1.12 0.524,-1.787c0,-0.706 -0.18,-1.329 -0.539,-1.866c-0.36,-0.538 -0.874,-0.958 -1.541,-1.26c-0.668,-0.303 -1.463,-0.454 -2.386,-0.454l-1.022,0l-0,-1.431l1.022,-0c0.754,-0 1.423,-0.138 2.006,-0.412c0.584,-0.275 1.043,-0.662 1.378,-1.162c0.335,-0.5 0.503,-1.089 0.503,-1.767c-0,-0.644 -0.146,-1.21 -0.438,-1.699c-0.291,-0.489 -0.699,-0.871 -1.223,-1.148c-0.523,-0.276 -1.136,-0.415 -1.839,-0.415c-0.672,0 -1.291,0.131 -1.855,0.391c-0.565,0.26 -1.019,0.63 -1.362,1.108c-0.344,0.478 -0.526,1.043 -0.545,1.695l-1.545,-0c0.023,-0.91 0.275,-1.71 0.756,-2.401c0.481,-0.691 1.12,-1.231 1.916,-1.619c0.796,-0.389 1.682,-0.583 2.658,-0.583c1.024,0 1.912,0.21 2.663,0.63c0.751,0.419 1.332,0.978 1.743,1.676c0.411,0.698 0.616,1.463 0.616,2.297c0,0.996 -0.269,1.847 -0.806,2.553c-0.538,0.707 -1.266,1.197 -2.182,1.469l-0,0.114c1.115,0.218 1.993,0.709 2.632,1.474c0.639,0.765 0.959,1.702 0.959,2.81c-0,0.93 -0.245,1.766 -0.735,2.509c-0.489,0.742 -1.159,1.328 -2.01,1.757c-0.85,0.429 -1.822,0.643 -2.915,0.643Z" style="fill:#a9a9b3;fill-rule:nonzero;"/><path d="M1137.57,418.616l0,-1.17l5.705,-6.409c0.742,-0.837 1.341,-1.555 1.795,-2.152c0.455,-0.598 0.786,-1.149 0.995,-1.654c0.208,-0.504 0.312,-1.031 0.312,-1.58c0,-0.663 -0.156,-1.244 -0.467,-1.742c-0.312,-0.498 -0.737,-0.885 -1.276,-1.162c-0.539,-0.276 -1.147,-0.415 -1.825,-0.415c-0.716,0 -1.342,0.153 -1.878,0.459c-0.536,0.306 -0.952,0.726 -1.247,1.26c-0.296,0.534 -0.443,1.147 -0.443,1.838l-1.523,0c-0,-0.964 0.223,-1.819 0.669,-2.567c0.446,-0.747 1.057,-1.333 1.832,-1.76c0.776,-0.426 1.654,-0.639 2.635,-0.639c0.974,0 1.838,0.209 2.594,0.627c0.756,0.417 1.349,0.984 1.781,1.699c0.432,0.715 0.648,1.515 0.648,2.402c0,0.642 -0.112,1.264 -0.337,1.866c-0.224,0.602 -0.609,1.273 -1.156,2.011c-0.546,0.739 -1.302,1.643 -2.268,2.713l-4.33,4.83l0,0.114l8.636,-0l0,1.431l-10.852,0Z" style="fill:#a9a9b3;fill-rule:nonzero;"/><path d="M1152.19,414.866l-0,-1.295l7.784,-12.409l0.954,-0l0,2.17l-0.704,0l-6.25,9.989l-0,0.114l10.204,-0l0,1.431l-11.988,0Zm8.147,3.75l0,-17.454l1.523,-0l0,17.454l-1.523,0Z" style="fill:#a9a9b3;fill-rule:nonzero;"/><path d="M1185.58,418.616l0,-1.17l5.705,-6.409c0.742,-0.837 1.341,-1.555 1.795,-2.152c0.455,-0.598 0.786,-1.149 0.995,-1.654c0.208,-0.504 0.312,-1.031 0.312,-1.58c0,-0.663 -0.156,-1.244 -0.467,-1.742c-0.312,-0.498 -0.737,-0.885 -1.276,-1.162c-0.538,-0.276 -1.147,-0.415 -1.825,-0.415c-0.716,0 -1.342,0.153 -1.878,0.459c-0.536,0.306 -0.951,0.726 -1.247,1.26c-0.295,0.534 -0.443,1.147 -0.443,1.838l-1.523,0c0,-0.964 0.223,-1.819 0.669,-2.567c0.446,-0.747 1.057,-1.333 1.833,-1.76c0.775,-0.426 1.653,-0.639 2.635,-0.639c0.973,0 1.838,0.209 2.593,0.627c0.756,0.417 1.35,0.984 1.781,1.699c0.432,0.715 0.648,1.515 0.648,2.402c0,0.642 -0.112,1.264 -0.336,1.866c-0.225,0.602 -0.61,1.273 -1.157,2.011c-0.546,0.739 -1.302,1.643 -2.268,2.713l-4.33,4.83l0,0.114l8.637,-0l-0,1.431l-10.853,0Z" style="fill:#a9a9b3;fill-rule:nonzero;"/><path d="M1206.09,418.855c-0.967,0 -1.834,-0.198 -2.599,-0.594c-0.765,-0.395 -1.374,-0.94 -1.827,-1.633c-0.452,-0.693 -0.693,-1.485 -0.721,-2.375l1.545,-0c0.051,0.924 0.414,1.684 1.09,2.278c0.675,0.595 1.512,0.892 2.512,0.892c0.783,0 1.477,-0.186 2.083,-0.559c0.606,-0.373 1.081,-0.885 1.426,-1.534c0.345,-0.65 0.516,-1.384 0.514,-2.202c-0.002,-0.852 -0.185,-1.604 -0.55,-2.256c-0.364,-0.651 -0.858,-1.161 -1.48,-1.528c-0.622,-0.368 -1.32,-0.553 -2.095,-0.557c-0.585,-0.004 -1.158,0.094 -1.719,0.293c-0.56,0.198 -1.029,0.453 -1.406,0.764l-1.591,-0.205l1.046,-8.477l8.625,-0l-0,1.432l-7.284,-0l-0.705,5.841l0.091,-0c0.384,-0.324 0.853,-0.589 1.406,-0.794c0.553,-0.206 1.141,-0.309 1.764,-0.309c1.025,0 1.949,0.247 2.772,0.74c0.823,0.494 1.474,1.174 1.954,2.04c0.48,0.867 0.72,1.864 0.718,2.993c-0.002,1.102 -0.243,2.086 -0.722,2.952c-0.479,0.865 -1.138,1.548 -1.977,2.048c-0.839,0.5 -1.796,0.75 -2.87,0.75Z" style="fill:#a9a9b3;fill-rule:nonzero;"/><path d="M1233.18,418.616l0,-1.17l5.705,-6.409c0.742,-0.837 1.341,-1.555 1.795,-2.152c0.455,-0.598 0.786,-1.149 0.995,-1.654c0.208,-0.504 0.312,-1.031 0.312,-1.58c0,-0.663 -0.155,-1.244 -0.467,-1.742c-0.312,-0.498 -0.737,-0.885 -1.276,-1.162c-0.538,-0.276 -1.147,-0.415 -1.825,-0.415c-0.716,0 -1.342,0.153 -1.878,0.459c-0.536,0.306 -0.951,0.726 -1.247,1.26c-0.295,0.534 -0.443,1.147 -0.443,1.838l-1.523,0c0,-0.964 0.223,-1.819 0.669,-2.567c0.446,-0.747 1.057,-1.333 1.833,-1.76c0.775,-0.426 1.653,-0.639 2.635,-0.639c0.973,0 1.838,0.209 2.593,0.627c0.756,0.417 1.35,0.984 1.782,1.699c0.431,0.715 0.647,1.515 0.647,2.402c0,0.642 -0.112,1.264 -0.336,1.866c-0.225,0.602 -0.61,1.273 -1.157,2.011c-0.546,0.739 -1.302,1.643 -2.268,2.713l-4.33,4.83l0,0.114l8.637,-0l-0,1.431l-10.853,0Z" style="fill:#a9a9b3;fill-rule:nonzero;"/><path d="M1254.09,418.855c-0.723,-0.007 -1.429,-0.154 -2.116,-0.44c-0.688,-0.286 -1.307,-0.749 -1.857,-1.388c-0.55,-0.639 -0.988,-1.484 -1.312,-2.536c-0.325,-1.051 -0.488,-2.342 -0.488,-3.875c0,-1.422 0.125,-2.724 0.374,-3.907c0.249,-1.183 0.624,-2.206 1.124,-3.07c0.5,-0.863 1.126,-1.532 1.877,-2.005c0.752,-0.474 1.631,-0.711 2.637,-0.711c0.939,0 1.771,0.195 2.494,0.584c0.724,0.389 1.309,0.93 1.756,1.622c0.447,0.693 0.727,1.491 0.841,2.397l-1.568,-0c-0.158,-0.923 -0.535,-1.682 -1.132,-2.277c-0.598,-0.596 -1.395,-0.894 -2.391,-0.894c-1.432,0 -2.541,0.663 -3.327,1.99c-0.786,1.327 -1.181,3.209 -1.185,5.646l0.114,0c0.275,-0.515 0.633,-0.962 1.075,-1.342c0.443,-0.38 0.944,-0.675 1.505,-0.886c0.56,-0.211 1.151,-0.317 1.772,-0.317c0.972,-0 1.861,0.245 2.667,0.736c0.806,0.49 1.451,1.164 1.936,2.02c0.485,0.856 0.727,1.831 0.727,2.926c0,1.041 -0.23,1.999 -0.689,2.872c-0.459,0.873 -1.102,1.569 -1.929,2.088c-0.827,0.519 -1.795,0.775 -2.905,0.767Zm0,-1.432c0.758,0 1.436,-0.193 2.036,-0.579c0.599,-0.387 1.073,-0.905 1.42,-1.554c0.348,-0.65 0.521,-1.371 0.521,-2.162c0,-0.788 -0.173,-1.504 -0.521,-2.147c-0.347,-0.642 -0.821,-1.154 -1.42,-1.534c-0.6,-0.379 -1.278,-0.569 -2.036,-0.569c-0.581,-0 -1.122,0.117 -1.622,0.351c-0.5,0.234 -0.933,0.554 -1.3,0.96c-0.366,0.406 -0.644,0.871 -0.833,1.393c-0.19,0.523 -0.264,1.072 -0.222,1.648c0.064,0.803 0.274,1.521 0.629,2.153c0.355,0.633 0.821,1.131 1.398,1.495c0.577,0.363 1.227,0.545 1.95,0.545Z" style="fill:#a9a9b3;fill-rule:nonzero;"/></g><path id="B-blue-horizontal" serif:id="B blue horizontal" d="M4.7,291.3l1288,-0" style="fill:none;stroke:#4a3d90;stroke-width:2px;stroke-dasharray:2,8,0,0;"/><path id="A-red-horizontal" serif:id="A red horizontal" d="M4.7,195.7l1288,-0" style="fill:none;stroke:#ff0068;stroke-width:2px;stroke-dasharray:2,8,0,0;"/><path id="y-axis-right" serif:id="y axis right" d="M1293.1,394.5l-0,-392" style="fill:none;stroke:#a9a9b3;stroke-width:5px;"/><path id="y-axis-left" serif:id="y axis left" d="M2.5,396.5l0,-392" style="fill:none;stroke:#a9a9b3;stroke-width:5px;"/><path id="correspondence-line" serif:id="correspondence line" d="M219.142,195.7l-121.042,95.6" style="fill:none;stroke:#a9a9b3;stroke-width:2px;"/><path id="correspondence-line1" serif:id="correspondence line" d="M600.459,195.7l-72.159,95.6" style="fill:none;stroke:#a9a9b3;stroke-width:2px;"/><path id="correspondence-line2" serif:id="correspondence line" d="M647.83,195.7l-119.53,95.6" style="fill:none;stroke:#a9a9b3;stroke-width:2px;"/><path id="correspondence-line3" serif:id="correspondence line" d="M170.864,195.7l-72.764,95.6" style="fill:none;stroke:#a9a9b3;stroke-width:2px;"/><path d="M88.323,199.926l-0,9.868l-14.097,-14.097l14.097,-14.097l-0,9.869l81.503,-0l-0,8.457l-81.503,-0Z" style="fill:#4cf281;"/><g transform="matrix(0.744816,0,0,0.662353,-463.62,-404.341)"><g transform="matrix(1.34261,0,0,1.50977,-221.287,-414.455)"><rect x="646.256" y="801.979" width="209.304" height="78.562" style="fill:#dee2ea;fill-opacity:0;"/></g><g transform="matrix(1.34261,0,0,1.50977,-221.287,-414.455)"><g transform="matrix(48,0,0,48,646.256,846.628)"><path d="M0.05,-0.008c-0,-0.004 0.008,-0.017 0.025,-0.039l0.487,-0.65c0.01,-0.012 0.021,-0.019 0.032,-0.019c0.014,0 0.022,0.009 0.025,0.026l0.164,0.663c0.002,0.008 0.003,0.013 0.003,0.014c0,0.009 -0.007,0.013 -0.021,0.013l-0.691,0c-0.016,0 -0.024,-0.003 -0.024,-0.008Zm0.082,-0.068l0.54,-0l-0.135,-0.54l-0.405,0.54Z" style="fill:#4cf281;fill-rule:nonzero;"/></g><g transform="matrix(48,0,0,48,686.217,846.628)"><path d="M0.091,-0.412c-0,-0.009 0.002,-0.014 0.006,-0.016c0.005,-0.002 0.012,-0.003 0.022,-0.003l0.085,-0l0.039,-0.159c0.007,-0.024 0.02,-0.036 0.039,-0.036c0.018,0 0.027,0.009 0.027,0.026c0,0.004 -0.001,0.011 -0.004,0.021l-0.037,0.148l0.08,-0c0.007,-0 0.011,0 0.014,0c0.003,0.001 0.005,0.002 0.008,0.004c0.002,0.001 0.003,0.004 0.003,0.008c0,0.009 -0.002,0.014 -0.007,0.016c-0.004,0.002 -0.011,0.003 -0.021,0.003l-0.085,0l-0.074,0.297c-0.005,0.019 -0.007,0.036 -0.007,0.051c0,0.027 0.009,0.041 0.027,0.041l0,-0c0.025,-0 0.048,-0.013 0.068,-0.038c0.019,-0.025 0.035,-0.054 0.047,-0.085c0.004,-0.009 0.007,-0.015 0.008,-0.016c0.002,-0.002 0.006,-0.003 0.012,-0.003c0.01,0 0.015,0.003 0.015,0.01c-0,0.002 -0.002,0.008 -0.006,0.018c-0.004,0.01 -0.01,0.023 -0.019,0.039c-0.009,0.015 -0.019,0.03 -0.03,0.044c-0.011,0.015 -0.026,0.027 -0.043,0.038c-0.017,0.01 -0.035,0.015 -0.054,0.015c-0.025,0 -0.046,-0.008 -0.061,-0.026c-0.016,-0.017 -0.024,-0.039 -0.024,-0.064c0,-0.01 0.002,-0.021 0.005,-0.034l0.072,-0.287l-0.08,0c-0.006,0 -0.011,-0 -0.014,-0c-0.002,-0.001 -0.005,-0.002 -0.008,-0.004c-0.002,-0.001 -0.003,-0.004 -0.003,-0.008Z" style="fill:#4cf281;fill-rule:nonzero;"/></g><g transform="matrix(27.984,0,0,27.984,702.131,862.612)"><path d="M0.083,-0.288c0,-0.002 0.001,-0.008 0.004,-0.018c0.003,-0.01 0.007,-0.023 0.014,-0.038c0.007,-0.016 0.015,-0.031 0.024,-0.046c0.009,-0.014 0.022,-0.026 0.037,-0.037c0.015,-0.01 0.032,-0.015 0.049,-0.015c0.02,0 0.038,0.007 0.053,0.021c0.015,0.013 0.022,0.033 0.022,0.059c0,0.014 -0.004,0.033 -0.012,0.056l-0.064,0.171c-0.017,0.05 -0.026,0.082 -0.026,0.096c0,0.018 0.007,0.028 0.022,0.028c0.039,-0 0.07,-0.042 0.093,-0.125c0.002,-0.008 0.004,-0.013 0.005,-0.015c0.002,-0.001 0.006,-0.002 0.012,-0.002c0.01,0 0.015,0.003 0.015,0.01c0,0.002 -0.001,0.008 -0.004,0.018c-0.002,0.009 -0.007,0.022 -0.014,0.038c-0.006,0.015 -0.014,0.03 -0.023,0.045c-0.01,0.015 -0.022,0.027 -0.037,0.038c-0.015,0.01 -0.032,0.015 -0.049,0.015c-0.025,0 -0.044,-0.008 -0.057,-0.024c-0.013,-0.016 -0.019,-0.035 -0.019,-0.056c-0,-0.013 0.006,-0.036 0.018,-0.069c0.016,-0.044 0.028,-0.077 0.037,-0.099l0.03,-0.083c0.012,-0.032 0.018,-0.056 0.018,-0.072c-0,-0.019 -0.007,-0.028 -0.022,-0.028c-0.039,0 -0.07,0.042 -0.093,0.126c-0.002,0.008 -0.004,0.012 -0.006,0.014c-0.002,0.001 -0.006,0.002 -0.012,0.002c-0.01,-0 -0.015,-0.004 -0.015,-0.01Zm0.161,-0.32c0,-0.013 0.005,-0.025 0.016,-0.034c0.01,-0.009 0.021,-0.014 0.032,-0.014c0.009,0 0.017,0.003 0.024,0.008c0.007,0.005 0.01,0.014 0.01,0.025c0,0.013 -0.005,0.025 -0.015,0.034c-0.011,0.009 -0.022,0.014 -0.033,0.014c-0.009,-0 -0.017,-0.003 -0.024,-0.008c-0.006,-0.005 -0.01,-0.014 -0.01,-0.025Z" style="fill:#4cf281;fill-rule:nonzero;"/></g><g transform="matrix(48,0,0,48,720.701,846.628)"><path d="M0.138,-0.142c-0.014,-0 -0.022,-0.004 -0.022,-0.011c0,-0.007 0.009,-0.011 0.025,-0.011l0.558,-0c0.011,-0 0.018,0.001 0.02,0.002c0.003,0.001 0.005,0.004 0.006,0.007c0.001,0.003 -0,0.006 -0.003,0.009c-0.003,0.003 -0.011,0.004 -0.025,0.004l-0.559,-0Zm0.027,-0.205c0,-0.008 0.007,-0.011 0.02,-0.011l0.569,0c0.013,0 0.019,0.004 0.019,0.011c-0,0.007 -0.008,0.011 -0.025,0.011l-0.534,0l-0.022,0.001l-0.003,0c-0.016,0 -0.024,-0.004 -0.024,-0.012Z" style="fill:#4cf281;fill-rule:nonzero;"/></g><g transform="matrix(48,0,0,48,774.631,846.628)"><path d="M0.086,-0.201c0.003,-0.024 0.008,-0.037 0.017,-0.04c0.003,-0.002 0.007,-0.002 0.013,-0.002l0.199,-0c0.015,-0 0.022,0.005 0.022,0.014c-0,0.001 -0,0.004 -0.001,0.009c-0.001,0.005 -0.002,0.01 -0.004,0.017c-0.003,0.007 -0.006,0.011 -0.009,0.013c-0.004,0.002 -0.009,0.003 -0.015,0.003l-0.2,-0c-0.015,-0 -0.022,-0.005 -0.022,-0.014Z" style="fill:#4cf281;fill-rule:nonzero;"/></g><g transform="matrix(48,0,0,48,791.81,846.628)"><path d="M0.084,0.012c-0,-0.002 0.001,-0.01 0.004,-0.021c0.003,-0.012 0.012,-0.031 0.025,-0.057c0.014,-0.027 0.031,-0.052 0.052,-0.077c0.013,-0.016 0.028,-0.031 0.044,-0.045c0.017,-0.014 0.03,-0.024 0.039,-0.03c0.009,-0.006 0.025,-0.015 0.046,-0.028c0.057,-0.034 0.103,-0.074 0.136,-0.119c0.033,-0.046 0.05,-0.102 0.05,-0.169c-0,-0.038 -0.009,-0.066 -0.026,-0.084c-0.017,-0.017 -0.038,-0.026 -0.062,-0.026c-0.037,-0 -0.072,0.017 -0.104,0.051c-0.032,0.034 -0.055,0.07 -0.07,0.108c-0.016,0.038 -0.023,0.069 -0.023,0.094c-0,0.022 0.007,0.033 0.022,0.033c0.026,0 0.05,-0.017 0.069,-0.051c0.019,-0.035 0.029,-0.063 0.029,-0.084c-0,-0.012 -0.003,-0.024 -0.01,-0.037c-0,-0.001 -0.001,-0.003 -0.001,-0.006c0,-0.008 0.004,-0.011 0.011,-0.011c0.006,0 0.011,0.006 0.015,0.019c0.005,0.012 0.007,0.023 0.007,0.034c-0,0.015 -0.004,0.035 -0.013,0.058c-0.009,0.023 -0.023,0.046 -0.043,0.068c-0.019,0.021 -0.041,0.032 -0.065,0.032c-0.034,0 -0.051,-0.021 -0.051,-0.063c0,-0.014 0.003,-0.032 0.01,-0.053c0.006,-0.021 0.016,-0.044 0.029,-0.069c0.013,-0.025 0.028,-0.048 0.046,-0.07c0.017,-0.021 0.039,-0.039 0.064,-0.054c0.026,-0.014 0.053,-0.021 0.081,-0.021c0.043,-0 0.079,0.015 0.11,0.044c0.03,0.029 0.046,0.071 0.046,0.125c-0,0.031 -0.005,0.059 -0.015,0.084c-0.01,0.025 -0.027,0.049 -0.051,0.071c-0.024,0.023 -0.049,0.042 -0.074,0.06c-0.026,0.017 -0.061,0.038 -0.105,0.063c-0.07,0.04 -0.121,0.089 -0.154,0.145c0.004,-0.002 0.011,-0.003 0.022,-0.003c0.02,-0 0.055,0.006 0.106,0.017c0.032,0.008 0.059,0.012 0.083,0.012c0.03,0 0.055,-0.011 0.075,-0.034c0.021,-0.023 0.036,-0.047 0.045,-0.074c0.002,-0.008 0.004,-0.013 0.006,-0.014c0.001,-0.002 0.005,-0.003 0.011,-0.003c0.01,0 0.015,0.003 0.015,0.01c0,0.004 -0.003,0.016 -0.009,0.034c-0.007,0.018 -0.016,0.039 -0.027,0.062c-0.012,0.023 -0.029,0.044 -0.052,0.062c-0.022,0.018 -0.046,0.027 -0.073,0.027c-0.026,-0 -0.058,-0.013 -0.097,-0.04c-0.036,-0.025 -0.065,-0.037 -0.085,-0.037c-0.026,-0 -0.044,0.021 -0.056,0.064c-0.001,0.005 -0.003,0.008 -0.005,0.01c-0.002,0.002 -0.006,0.003 -0.012,0.003c-0.01,-0 -0.015,-0.003 -0.015,-0.01Z" style="fill:#4cf281;fill-rule:nonzero;"/></g><g transform="matrix(48,0,0,48,816.326,846.628)"><path d="M0.112,-0.043c-0,-0.015 0.006,-0.03 0.019,-0.043c0.013,-0.013 0.028,-0.02 0.045,-0.02c0.012,0 0.023,0.004 0.031,0.012c0.008,0.009 0.012,0.019 0.012,0.031c0,0.015 -0.006,0.03 -0.019,0.043c-0.013,0.013 -0.028,0.02 -0.045,0.02c-0.013,0 -0.023,-0.004 -0.031,-0.012c-0.008,-0.009 -0.012,-0.019 -0.012,-0.031Z" style="fill:#4cf281;fill-rule:nonzero;"/></g><g transform="matrix(48,0,0,48,831.045,846.628)"><path d="M0.117,-0.148c0,-0.045 0.009,-0.105 0.028,-0.178c0.019,-0.074 0.04,-0.134 0.064,-0.179c0.029,-0.055 0.061,-0.095 0.098,-0.121c0.037,-0.027 0.075,-0.04 0.114,-0.04c0.025,-0 0.046,0.005 0.064,0.014c0.017,0.01 0.031,0.021 0.039,0.034c0.009,0.013 0.016,0.028 0.02,0.045c0.005,0.018 0.008,0.032 0.009,0.043c0.002,0.011 0.002,0.022 0.002,0.034c0,0.04 -0.008,0.094 -0.024,0.161c-0.016,0.067 -0.034,0.124 -0.055,0.171c-0.029,0.066 -0.064,0.114 -0.105,0.143c-0.041,0.028 -0.081,0.043 -0.12,0.043c-0.022,-0 -0.04,-0.003 -0.057,-0.01c-0.016,-0.007 -0.029,-0.016 -0.038,-0.028c-0.008,-0.012 -0.016,-0.024 -0.022,-0.035c-0.006,-0.011 -0.01,-0.025 -0.012,-0.04c-0.002,-0.015 -0.003,-0.026 -0.004,-0.033c-0,-0.007 -0.001,-0.015 -0.001,-0.024Zm0.064,0.05c0,0.035 0.008,0.061 0.023,0.076c0.015,0.015 0.032,0.022 0.052,0.022c0.025,-0 0.048,-0.01 0.071,-0.03c0.023,-0.019 0.041,-0.042 0.053,-0.068c0.021,-0.047 0.046,-0.125 0.073,-0.234c0.027,-0.108 0.04,-0.181 0.04,-0.218c0,-0.03 -0.007,-0.054 -0.022,-0.07c-0.014,-0.016 -0.033,-0.024 -0.055,-0.024c-0.02,-0 -0.042,0.008 -0.065,0.023c-0.024,0.015 -0.043,0.04 -0.06,0.074c-0.018,0.038 -0.041,0.112 -0.068,0.223c-0.028,0.11 -0.042,0.186 -0.042,0.226Z" style="fill:#4cf281;fill-rule:nonzero;"/></g></g></g><circle id="point-b" serif:id="point b" cx="50.404" cy="291.3" r="16" style="fill:#4a3d90;"/><circle id="point-b1" serif:id="point b" cx="98.204" cy="291.3" r="16" style="fill:#4a3d90;"/><circle id="point-b2" serif:id="point b" cx="480.602" cy="291.3" r="16" style="fill:#4a3d90;"/><circle id="point-b3" serif:id="point b" cx="528.402" cy="291.3" r="16" style="fill:#4a3d90;"/><circle id="point-a" serif:id="point a" cx="169.802" cy="195.7" r="16" style="fill:#ff0068;"/><circle id="point-a1" serif:id="point a" cx="217.602" cy="195.7" r="16" style="fill:#ff0068;"/><circle id="point-a2" serif:id="point a" cx="600" cy="195.7" r="16" style="fill:#ff0068;"/><circle id="point-a3" serif:id="point a" cx="647.8" cy="195.7" r="16" style="fill:#ff0068;"/><circle id="legend-point-b" serif:id="legend point b" cx="1033.84" cy="72.984" r="16" style="fill:#4a3d90;"/><circle id="legend-point-a" serif:id="legend point a" cx="1033.84" cy="35.727" r="16" style="fill:#ff0068;"/><g transform="matrix(1,0,0,1,853.068,-1084.78)"><g transform="matrix(24,0,0,24,219.399,1128.12)"><path d="M0.28,0.011c-0.045,0 -0.084,-0.011 -0.118,-0.035c-0.033,-0.024 -0.06,-0.057 -0.078,-0.099c-0.019,-0.042 -0.029,-0.092 -0.029,-0.148c0,-0.056 0.01,-0.106 0.029,-0.148c0.019,-0.042 0.045,-0.075 0.079,-0.099c0.034,-0.023 0.073,-0.035 0.118,-0.035c0.033,-0 0.061,0.006 0.083,0.018c0.022,0.011 0.039,0.026 0.053,0.043c0.013,0.017 0.023,0.034 0.03,0.051l0.006,-0l0,-0.286l0.064,-0l-0,0.727l-0.062,0l0,-0.101l-0.008,-0c-0.007,0.016 -0.017,0.033 -0.031,0.051c-0.013,0.017 -0.031,0.032 -0.053,0.044c-0.023,0.011 -0.05,0.017 -0.083,0.017Zm0.007,-0.057c0.036,-0 0.066,-0.01 0.091,-0.029c0.024,-0.02 0.043,-0.047 0.056,-0.08c0.014,-0.034 0.02,-0.073 0.02,-0.117c0,-0.044 -0.006,-0.082 -0.019,-0.116c-0.013,-0.033 -0.032,-0.06 -0.057,-0.079c-0.025,-0.019 -0.055,-0.028 -0.091,-0.028c-0.036,-0 -0.067,0.01 -0.092,0.029c-0.025,0.02 -0.044,0.047 -0.057,0.08c-0.013,0.034 -0.019,0.072 -0.019,0.114c-0,0.042 0.006,0.08 0.019,0.114c0.013,0.035 0.032,0.062 0.057,0.082c0.026,0.02 0.056,0.03 0.092,0.03Z" style="fill:#a9a9b3;fill-rule:nonzero;"/></g><g transform="matrix(24,0,0,24,234.297,1128.12)"><path d="M0.236,0.012c-0.033,0 -0.063,-0.006 -0.09,-0.019c-0.028,-0.013 -0.049,-0.032 -0.065,-0.056c-0.017,-0.025 -0.025,-0.054 -0.025,-0.089c0,-0.027 0.005,-0.05 0.016,-0.069c0.01,-0.018 0.024,-0.033 0.043,-0.045c0.019,-0.012 0.041,-0.021 0.066,-0.028c0.026,-0.007 0.054,-0.012 0.085,-0.016c0.031,-0.004 0.056,-0.007 0.078,-0.01c0.021,-0.003 0.037,-0.007 0.048,-0.013c0.011,-0.006 0.017,-0.016 0.017,-0.03l-0,-0.013c-0,-0.037 -0.011,-0.067 -0.034,-0.088c-0.022,-0.021 -0.053,-0.032 -0.095,-0.032c-0.039,-0 -0.071,0.008 -0.096,0.026c-0.025,0.017 -0.042,0.037 -0.052,0.061l-0.06,-0.022c0.012,-0.03 0.029,-0.053 0.051,-0.071c0.022,-0.018 0.046,-0.031 0.073,-0.039c0.027,-0.008 0.055,-0.012 0.082,-0.012c0.021,-0 0.043,0.003 0.066,0.008c0.022,0.006 0.043,0.015 0.062,0.028c0.02,0.014 0.036,0.032 0.048,0.056c0.012,0.024 0.018,0.054 0.018,0.091l0,0.37l-0.063,0l-0,-0.086l-0.004,-0c-0.008,0.016 -0.019,0.032 -0.034,0.047c-0.015,0.015 -0.033,0.027 -0.056,0.037c-0.022,0.009 -0.049,0.014 -0.079,0.014Zm0.008,-0.057c0.034,-0 0.063,-0.008 0.088,-0.023c0.024,-0.015 0.043,-0.034 0.057,-0.059c0.013,-0.025 0.02,-0.052 0.02,-0.082l-0,-0.079c-0.005,0.005 -0.013,0.009 -0.024,0.012c-0.011,0.004 -0.024,0.007 -0.038,0.009c-0.014,0.003 -0.028,0.005 -0.043,0.007c-0.014,0.002 -0.027,0.004 -0.038,0.005c-0.031,0.004 -0.057,0.01 -0.079,0.018c-0.022,0.008 -0.038,0.019 -0.05,0.033c-0.011,0.014 -0.017,0.032 -0.017,0.054c-0,0.034 0.012,0.059 0.035,0.077c0.024,0.018 0.054,0.028 0.089,0.028Z" style="fill:#a9a9b3;fill-rule:nonzero;"/></g><g transform="matrix(24,0,0,24,247.831,1128.12)"><path d="M0.298,-0.545l0,0.054l-0.26,0l-0,-0.054l0.26,-0Zm-0.179,-0.131l0.064,-0l-0,0.533c-0,0.023 0.004,0.041 0.011,0.054c0.008,0.013 0.018,0.022 0.031,0.028c0.013,0.005 0.026,0.007 0.04,0.007c0.009,0 0.016,-0 0.022,-0.001c0.006,-0.001 0.011,-0.002 0.015,-0.004l0.014,0.058c-0.006,0.002 -0.014,0.004 -0.023,0.006c-0.009,0.002 -0.02,0.003 -0.034,0.003c-0.023,0 -0.045,-0.005 -0.066,-0.015c-0.022,-0.01 -0.039,-0.026 -0.053,-0.046c-0.014,-0.02 -0.021,-0.045 -0.021,-0.074l0,-0.549Z" style="fill:#a9a9b3;fill-rule:nonzero;"/></g><g transform="matrix(24,0,0,24,256.558,1128.12)"><path d="M0.236,0.012c-0.033,0 -0.063,-0.006 -0.09,-0.019c-0.028,-0.013 -0.049,-0.032 -0.065,-0.056c-0.017,-0.025 -0.025,-0.054 -0.025,-0.089c0,-0.027 0.005,-0.05 0.016,-0.069c0.01,-0.018 0.024,-0.033 0.043,-0.045c0.019,-0.012 0.041,-0.021 0.066,-0.028c0.026,-0.007 0.054,-0.012 0.085,-0.016c0.031,-0.004 0.056,-0.007 0.078,-0.01c0.021,-0.003 0.037,-0.007 0.048,-0.013c0.011,-0.006 0.017,-0.016 0.017,-0.03l-0,-0.013c-0,-0.037 -0.011,-0.067 -0.034,-0.088c-0.022,-0.021 -0.053,-0.032 -0.095,-0.032c-0.039,-0 -0.071,0.008 -0.096,0.026c-0.025,0.017 -0.042,0.037 -0.052,0.061l-0.06,-0.022c0.012,-0.03 0.029,-0.053 0.051,-0.071c0.022,-0.018 0.046,-0.031 0.073,-0.039c0.027,-0.008 0.055,-0.012 0.082,-0.012c0.021,-0 0.043,0.003 0.066,0.008c0.022,0.006 0.043,0.015 0.062,0.028c0.02,0.014 0.036,0.032 0.048,0.056c0.012,0.024 0.018,0.054 0.018,0.091l0,0.37l-0.063,0l-0,-0.086l-0.004,-0c-0.008,0.016 -0.019,0.032 -0.034,0.047c-0.015,0.015 -0.033,0.027 -0.056,0.037c-0.022,0.009 -0.049,0.014 -0.079,0.014Zm0.008,-0.057c0.034,-0 0.063,-0.008 0.088,-0.023c0.024,-0.015 0.043,-0.034 0.057,-0.059c0.013,-0.025 0.02,-0.052 0.02,-0.082l-0,-0.079c-0.005,0.005 -0.013,0.009 -0.024,0.012c-0.011,0.004 -0.024,0.007 -0.038,0.009c-0.014,0.003 -0.028,0.005 -0.043,0.007c-0.014,0.002 -0.027,0.004 -0.038,0.005c-0.031,0.004 -0.057,0.01 -0.079,0.018c-0.022,0.008 -0.038,0.019 -0.05,0.033c-0.011,0.014 -0.017,0.032 -0.017,0.054c-0,0.034 0.012,0.059 0.035,0.077c0.024,0.018 0.054,0.028 0.089,0.028Z" style="fill:#a9a9b3;fill-rule:nonzero;"/></g><g transform="matrix(24,0,0,24,276.842,1128.12)"><path d="M0.298,-0.545l0,0.054l-0.26,0l-0,-0.054l0.26,-0Zm-0.179,-0.131l0.064,-0l-0,0.533c-0,0.023 0.004,0.041 0.011,0.054c0.008,0.013 0.018,0.022 0.031,0.028c0.013,0.005 0.026,0.007 0.04,0.007c0.009,0 0.016,-0 0.022,-0.001c0.006,-0.001 0.011,-0.002 0.015,-0.004l0.014,0.058c-0.006,0.002 -0.014,0.004 -0.023,0.006c-0.009,0.002 -0.02,0.003 -0.034,0.003c-0.023,0 -0.045,-0.005 -0.066,-0.015c-0.022,-0.01 -0.039,-0.026 -0.053,-0.046c-0.014,-0.02 -0.021,-0.045 -0.021,-0.074l0,-0.549Z" style="fill:#a9a9b3;fill-rule:nonzero;"/></g><g transform="matrix(24,0,0,24,285.433,1128.12)"><path d="M0.295,0.011c-0.047,0 -0.088,-0.012 -0.124,-0.035c-0.036,-0.024 -0.065,-0.057 -0.085,-0.1c-0.02,-0.042 -0.031,-0.091 -0.031,-0.146c0,-0.056 0.011,-0.105 0.031,-0.148c0.02,-0.042 0.049,-0.075 0.085,-0.099c0.036,-0.024 0.077,-0.036 0.124,-0.036c0.048,-0 0.089,0.012 0.125,0.036c0.036,0.024 0.064,0.057 0.085,0.099c0.02,0.043 0.031,0.092 0.031,0.148c-0,0.055 -0.011,0.104 -0.031,0.146c-0.02,0.043 -0.049,0.076 -0.085,0.1c-0.036,0.023 -0.077,0.035 -0.125,0.035Zm0,-0.057c0.038,-0 0.07,-0.011 0.097,-0.031c0.026,-0.02 0.046,-0.047 0.06,-0.081c0.013,-0.034 0.02,-0.072 0.02,-0.112c0,-0.041 -0.007,-0.078 -0.02,-0.113c-0.014,-0.034 -0.034,-0.061 -0.06,-0.081c-0.027,-0.021 -0.059,-0.031 -0.097,-0.031c-0.037,-0 -0.069,0.01 -0.096,0.031c-0.026,0.02 -0.046,0.047 -0.06,0.081c-0.013,0.035 -0.02,0.072 -0.02,0.113c-0,0.04 0.007,0.078 0.02,0.112c0.014,0.034 0.034,0.061 0.06,0.081c0.027,0.02 0.059,0.031 0.096,0.031Z" style="fill:#a9a9b3;fill-rule:nonzero;"/></g><g transform="matrix(24,0,0,24,306.501,1128.12)"><path d="M0.308,-0.545l-0,0.054l-0.268,0l-0,-0.054l0.268,-0Zm-0.184,0.545l-0,-0.625c-0,-0.03 0.006,-0.055 0.02,-0.075c0.014,-0.02 0.031,-0.035 0.053,-0.045c0.022,-0.011 0.046,-0.016 0.071,-0.016c0.016,0 0.03,0.001 0.041,0.004c0.011,0.003 0.02,0.006 0.026,0.008l-0.018,0.056c-0.005,-0.002 -0.011,-0.004 -0.018,-0.006c-0.007,-0.001 -0.015,-0.002 -0.026,-0.002c-0.027,-0 -0.049,0.007 -0.064,0.023c-0.014,0.015 -0.022,0.037 -0.022,0.066l-0,0.612l-0.063,-0Z" style="fill:#a9a9b3;fill-rule:nonzero;"/></g><g transform="matrix(24,0,0,24,315.16,1128.12)"><path d="M0.084,-0l0,-0.545l0.064,-0l-0,0.545l-0.064,-0Zm0.032,-0.639c-0.012,-0 -0.024,-0.005 -0.033,-0.014c-0.009,-0.008 -0.014,-0.019 -0.014,-0.032c0,-0.012 0.005,-0.023 0.014,-0.032c0.009,-0.009 0.02,-0.013 0.033,-0.013c0.013,-0 0.025,0.004 0.034,0.013c0.009,0.009 0.014,0.02 0.014,0.032c-0,0.013 -0.005,0.024 -0.014,0.032c-0.009,0.009 -0.021,0.014 -0.034,0.014Z" style="fill:#a9a9b3;fill-rule:nonzero;"/></g><g transform="matrix(24,0,0,24,320.854,1128.12)"><path d="M0.298,-0.545l0,0.054l-0.26,0l-0,-0.054l0.26,-0Zm-0.179,-0.131l0.064,-0l-0,0.533c-0,0.023 0.004,0.041 0.011,0.054c0.008,0.013 0.018,0.022 0.031,0.028c0.013,0.005 0.026,0.007 0.04,0.007c0.009,0 0.016,-0 0.022,-0.001c0.006,-0.001 0.011,-0.002 0.015,-0.004l0.014,0.058c-0.006,0.002 -0.014,0.004 -0.023,0.006c-0.009,0.002 -0.02,0.003 -0.034,0.003c-0.023,0 -0.045,-0.005 -0.066,-0.015c-0.022,-0.01 -0.039,-0.026 -0.053,-0.046c-0.014,-0.02 -0.021,-0.045 -0.021,-0.074l0,-0.549Z" style="fill:#a9a9b3;fill-rule:nonzero;"/></g><g transform="matrix(24,0,0,24,335.371,1128.12)"><path d="M0.152,-0.047c-0,-0.065 0.011,-0.141 0.033,-0.227c0.022,-0.087 0.058,-0.171 0.108,-0.253c0.026,-0.042 0.056,-0.082 0.09,-0.119c0.034,-0.037 0.062,-0.063 0.084,-0.08c0.021,-0.016 0.034,-0.024 0.039,-0.024c0.006,0 0.01,0.003 0.01,0.01c0,0.002 -0.005,0.008 -0.015,0.018c-0.056,0.048 -0.105,0.106 -0.147,0.176c-0.042,0.069 -0.073,0.139 -0.094,0.208c-0.02,0.069 -0.035,0.13 -0.044,0.185c-0.009,0.055 -0.014,0.102 -0.014,0.142c0,0.095 0.021,0.174 0.062,0.237c0.005,0.007 0.007,0.011 0.007,0.014c-0,0.007 -0.003,0.01 -0.01,0.01c-0.007,0 -0.02,-0.013 -0.038,-0.039c-0.017,-0.025 -0.032,-0.054 -0.044,-0.086c-0.018,-0.05 -0.027,-0.107 -0.027,-0.172Z" style="fill:#a9a9b3;fill-rule:nonzero;"/></g><g transform="matrix(24,0,0,24,345.156,1128.12)"><path d="M0.059,-0.014c0,-0.009 0.004,-0.014 0.011,-0.016c0.007,-0.002 0.017,-0.003 0.027,-0.004c0.011,-0 0.025,-0.007 0.043,-0.02c0.017,-0.013 0.034,-0.032 0.05,-0.059l0.327,-0.576c0.001,-0.001 0.002,-0.003 0.004,-0.006c0.001,-0.003 0.003,-0.006 0.004,-0.008c0.002,-0.001 0.004,-0.003 0.006,-0.006c0.003,-0.003 0.006,-0.004 0.009,-0.005c0.002,-0.001 0.006,-0.002 0.009,-0.002c0.002,0 0.005,0 0.007,0.001c0.002,-0 0.004,0.001 0.005,0.003c0.001,0.001 0.002,0.002 0.003,0.003c0.001,0.001 0.001,0.002 0.002,0.005c0.001,0.003 0.001,0.004 0.001,0.005c-0,0 0,0.003 0.001,0.006l-0,0.005l0.043,0.621c0,0.015 0.004,0.025 0.011,0.029c0.006,0.004 0.02,0.006 0.041,0.007c0.018,0 0.027,0.005 0.027,0.014c-0,0.011 -0.007,0.017 -0.02,0.017c-0.003,0 -0.015,-0 -0.036,-0.001c-0.021,-0.001 -0.043,-0.002 -0.067,-0.002c-0.023,0 -0.043,0 -0.06,0.001c-0.017,-0 -0.029,0 -0.038,0.001c-0.008,0.001 -0.013,0.001 -0.014,0.001c-0.01,0 -0.015,-0.005 -0.015,-0.014c-0,-0.007 0.003,-0.011 0.008,-0.014c0.005,-0.003 0.012,-0.004 0.02,-0.003c0.007,-0 0.016,-0.001 0.026,-0.003c0.01,-0.002 0.019,-0.006 0.026,-0.012c0.005,-0.004 0.008,-0.014 0.008,-0.027c-0,-0.004 -0.001,-0.012 -0.002,-0.024c-0.001,-0.012 -0.002,-0.031 -0.004,-0.056c-0.001,-0.024 -0.003,-0.05 -0.005,-0.077l-0.228,0c-0.006,0.011 -0.012,0.022 -0.019,0.035c-0.008,0.012 -0.013,0.022 -0.018,0.029c-0.004,0.008 -0.008,0.016 -0.013,0.024c-0.006,0.009 -0.009,0.016 -0.012,0.021c-0.003,0.005 -0.005,0.01 -0.008,0.016c-0.004,0.005 -0.006,0.01 -0.007,0.013c-0.001,0.003 -0.003,0.007 -0.004,0.01c-0.002,0.004 -0.003,0.007 -0.003,0.009c-0.001,0.003 -0.001,0.005 -0.001,0.008c0,0.009 0.003,0.017 0.009,0.022c0.005,0.005 0.012,0.008 0.019,0.009c0.007,0 0.013,0.002 0.018,0.004c0.006,0.003 0.009,0.006 0.009,0.011c-0,0.013 -0.007,0.019 -0.02,0.019c-0.002,0 -0.007,-0 -0.015,-0.001c-0.007,-0.001 -0.018,-0.001 -0.031,-0.001c-0.013,-0.001 -0.028,-0.001 -0.043,-0.001c-0.013,0 -0.027,0.001 -0.043,0.002c-0.015,0.001 -0.024,0.001 -0.026,0.001c-0.015,0 -0.022,-0.005 -0.022,-0.014Zm0.248,-0.246l0.208,0l-0.022,-0.327l-0.186,0.327Z" style="fill:#a9a9b3;fill-rule:nonzero;"/></g><g transform="matrix(24,0,0,24,362.98,1128.12)"><path d="M0.018,0.24c0,-0.002 0.005,-0.008 0.015,-0.018c0.056,-0.048 0.105,-0.106 0.147,-0.176c0.042,-0.069 0.073,-0.139 0.094,-0.208c0.02,-0.069 0.035,-0.13 0.044,-0.185c0.009,-0.055 0.014,-0.102 0.014,-0.142c0,-0.095 -0.021,-0.174 -0.062,-0.237c-0.005,-0.007 -0.007,-0.011 -0.007,-0.014c0,-0.007 0.003,-0.01 0.01,-0.01c0.007,0 0.02,0.013 0.038,0.039c0.017,0.025 0.032,0.054 0.044,0.086c0.018,0.05 0.027,0.107 0.027,0.172c-0,0.065 -0.011,0.141 -0.033,0.227c-0.022,0.087 -0.058,0.171 -0.108,0.253c-0.026,0.042 -0.056,0.082 -0.09,0.119c-0.034,0.037 -0.062,0.063 -0.083,0.08c-0.022,0.016 -0.035,0.024 -0.04,0.024c-0.007,0 -0.01,-0.003 -0.01,-0.01Z" style="fill:#a9a9b3;fill-rule:nonzero;"/></g></g><path id="legend-correspondence-line" serif:id="legend correspondence line" d="M1046.99,108.145l-26.297,-0" style="fill:none;stroke:#a9a9b3;stroke-width:2px;"/><g transform="matrix(1,0,0,1,829.541,-1050.06)"><g transform="matrix(24,0,0,24,244.393,1128.12)"><path d="M0.308,-0.545l-0,0.054l-0.268,0l-0,-0.054l0.268,-0Zm-0.184,0.545l-0,-0.625c-0,-0.03 0.006,-0.055 0.02,-0.075c0.014,-0.02 0.031,-0.035 0.053,-0.045c0.022,-0.011 0.046,-0.016 0.071,-0.016c0.016,0 0.03,0.001 0.041,0.004c0.011,0.003 0.02,0.006 0.026,0.008l-0.018,0.056c-0.005,-0.002 -0.011,-0.004 -0.018,-0.006c-0.007,-0.001 -0.015,-0.002 -0.026,-0.002c-0.027,-0 -0.049,0.007 -0.064,0.023c-0.014,0.015 -0.022,0.037 -0.022,0.066l-0,0.612l-0.063,-0Z" style="fill:#a9a9b3;fill-rule:nonzero;"/></g><g transform="matrix(24,0,0,24,253.052,1128.12)"><path d="M0.084,-0l0,-0.545l0.064,-0l-0,0.545l-0.064,-0Zm0.032,-0.639c-0.012,-0 -0.024,-0.005 -0.033,-0.014c-0.009,-0.008 -0.014,-0.019 -0.014,-0.032c0,-0.012 0.005,-0.023 0.014,-0.032c0.009,-0.009 0.02,-0.013 0.033,-0.013c0.013,-0 0.025,0.004 0.034,0.013c0.009,0.009 0.014,0.02 0.014,0.032c-0,0.013 -0.005,0.024 -0.014,0.032c-0.009,0.009 -0.021,0.014 -0.034,0.014Z" style="fill:#a9a9b3;fill-rule:nonzero;"/></g><g transform="matrix(24,0,0,24,258.745,1128.12)"><path d="M0.123,-0.545l0.14,0.232l0.141,-0.232l0.073,-0l-0.175,0.272l0.175,0.273l-0.073,-0l-0.141,-0.225l-0.14,0.225l-0.074,-0l0.174,-0.273l-0.174,-0.272l0.074,-0Z" style="fill:#a9a9b3;fill-rule:nonzero;"/></g><g transform="matrix(24,0,0,24,271.154,1128.12)"><path d="M0.304,0.011c-0.051,0 -0.095,-0.012 -0.132,-0.035c-0.037,-0.024 -0.066,-0.057 -0.086,-0.099c-0.021,-0.043 -0.031,-0.091 -0.031,-0.146c0,-0.055 0.011,-0.104 0.031,-0.147c0.02,-0.043 0.048,-0.076 0.084,-0.101c0.036,-0.024 0.077,-0.036 0.125,-0.036c0.029,-0 0.058,0.005 0.085,0.016c0.028,0.011 0.052,0.027 0.074,0.05c0.022,0.022 0.039,0.049 0.052,0.083c0.013,0.034 0.019,0.073 0.019,0.119l0,0.031l-0.426,0l-0,-0.056l0.362,0c-0,-0.035 -0.007,-0.066 -0.021,-0.094c-0.015,-0.028 -0.034,-0.05 -0.059,-0.067c-0.025,-0.016 -0.054,-0.024 -0.086,-0.024c-0.035,-0 -0.066,0.009 -0.092,0.027c-0.026,0.019 -0.047,0.043 -0.062,0.073c-0.014,0.031 -0.022,0.064 -0.022,0.1l-0,0.033c-0,0.043 0.007,0.081 0.023,0.114c0.015,0.032 0.036,0.057 0.064,0.075c0.027,0.018 0.06,0.027 0.098,0.027c0.026,-0 0.049,-0.004 0.068,-0.013c0.02,-0.008 0.036,-0.019 0.049,-0.032c0.014,-0.014 0.024,-0.029 0.031,-0.045l0.06,0.02c-0.009,0.022 -0.022,0.044 -0.041,0.063c-0.019,0.019 -0.042,0.035 -0.07,0.047c-0.028,0.011 -0.061,0.017 -0.097,0.017Z" style="fill:#a9a9b3;fill-rule:nonzero;"/></g><g transform="matrix(24,0,0,24,285.132,1128.12)"><path d="M0.28,0.011c-0.045,0 -0.084,-0.011 -0.118,-0.035c-0.033,-0.024 -0.06,-0.057 -0.078,-0.099c-0.019,-0.042 -0.029,-0.092 -0.029,-0.148c0,-0.056 0.01,-0.106 0.029,-0.148c0.019,-0.042 0.045,-0.075 0.079,-0.099c0.034,-0.023 0.073,-0.035 0.118,-0.035c0.033,-0 0.061,0.006 0.083,0.018c0.022,0.011 0.039,0.026 0.053,0.043c0.013,0.017 0.023,0.034 0.03,0.051l0.006,-0l0,-0.286l0.064,-0l-0,0.727l-0.062,0l0,-0.101l-0.008,-0c-0.007,0.016 -0.017,0.033 -0.031,0.051c-0.013,0.017 -0.031,0.032 -0.053,0.044c-0.023,0.011 -0.05,0.017 -0.083,0.017Zm0.007,-0.057c0.036,-0 0.066,-0.01 0.091,-0.029c0.024,-0.02 0.043,-0.047 0.056,-0.08c0.014,-0.034 0.02,-0.073 0.02,-0.117c0,-0.044 -0.006,-0.082 -0.019,-0.116c-0.013,-0.033 -0.032,-0.06 -0.057,-0.079c-0.025,-0.019 -0.055,-0.028 -0.091,-0.028c-0.036,-0 -0.067,0.01 -0.092,0.029c-0.025,0.02 -0.044,0.047 -0.057,0.08c-0.013,0.034 -0.019,0.072 -0.019,0.114c-0,0.042 0.006,0.08 0.019,0.114c0.013,0.035 0.032,0.062 0.057,0.082c0.026,0.02 0.056,0.03 0.092,0.03Z" style="fill:#a9a9b3;fill-rule:nonzero;"/></g><g transform="matrix(24,0,0,24,306.779,1128.12)"><path d="M0.152,-0.047c-0,-0.065 0.011,-0.141 0.033,-0.227c0.022,-0.087 0.058,-0.171 0.108,-0.253c0.026,-0.042 0.056,-0.082 0.09,-0.119c0.034,-0.037 0.062,-0.063 0.084,-0.08c0.021,-0.016 0.034,-0.024 0.039,-0.024c0.006,0 0.01,0.003 0.01,0.01c0,0.002 -0.005,0.008 -0.015,0.018c-0.056,0.048 -0.105,0.106 -0.147,0.176c-0.042,0.069 -0.073,0.139 -0.094,0.208c-0.02,0.069 -0.035,0.13 -0.044,0.185c-0.009,0.055 -0.014,0.102 -0.014,0.142c0,0.095 0.021,0.174 0.062,0.237c0.005,0.007 0.007,0.011 0.007,0.014c-0,0.007 -0.003,0.01 -0.01,0.01c-0.007,0 -0.02,-0.013 -0.038,-0.039c-0.017,-0.025 -0.032,-0.054 -0.044,-0.086c-0.018,-0.05 -0.027,-0.107 -0.027,-0.172Z" style="fill:#a9a9b3;fill-rule:nonzero;"/></g><g transform="matrix(24,0,0,24,316.564,1128.12)"><path d="M0.065,-0.012c-0,-0.009 0.002,-0.014 0.006,-0.016c0.004,-0.002 0.011,-0.003 0.021,-0.003c0.032,0 0.053,-0.002 0.062,-0.007c0.009,-0.005 0.016,-0.017 0.02,-0.035l0.135,-0.543c0.003,-0.01 0.004,-0.016 0.004,-0.019c-0,-0.007 -0.005,-0.012 -0.014,-0.014c-0.009,-0.002 -0.024,-0.003 -0.044,-0.003c-0.008,0 -0.013,-0 -0.016,-0c-0.003,-0.001 -0.005,-0.002 -0.008,-0.004c-0.002,-0.001 -0.003,-0.004 -0.003,-0.008c0,-0.009 0.002,-0.014 0.006,-0.016c0.004,-0.002 0.011,-0.003 0.021,-0.003l0.311,-0c0.052,-0 0.093,0.013 0.123,0.039c0.03,0.027 0.045,0.059 0.045,0.097c-0,0.04 -0.018,0.078 -0.054,0.115c-0.036,0.037 -0.083,0.062 -0.142,0.075c0.039,0.005 0.072,0.019 0.099,0.043c0.026,0.024 0.04,0.056 0.04,0.095c-0,0.054 -0.026,0.104 -0.077,0.15c-0.051,0.046 -0.111,0.069 -0.18,0.069l-0.33,0c-0.007,0 -0.011,-0 -0.014,-0c-0.003,-0.001 -0.005,-0.002 -0.008,-0.004c-0.002,-0.001 -0.003,-0.004 -0.003,-0.008Zm0.18,-0.041c-0.001,0.005 -0.002,0.009 -0.002,0.012c0,0.003 0,0.005 0.001,0.006c0.001,0.001 0.003,0.002 0.008,0.003c0.005,0.001 0.012,0.001 0.022,0.001l0.124,0c0.053,0 0.098,-0.021 0.134,-0.062c0.037,-0.042 0.056,-0.088 0.056,-0.139c-0,-0.01 -0.001,-0.02 -0.003,-0.029c-0.002,-0.01 -0.006,-0.022 -0.012,-0.036c-0.005,-0.014 -0.015,-0.025 -0.03,-0.034c-0.015,-0.009 -0.033,-0.013 -0.054,-0.013l-0.172,-0l-0.07,0.281c0,0.001 -0.001,0.004 -0.002,0.01Zm0.078,-0.313l0.132,-0c0.054,-0 0.099,-0.02 0.136,-0.06c0.037,-0.039 0.055,-0.082 0.055,-0.127c-0,-0.01 -0.001,-0.02 -0.003,-0.029c-0.002,-0.01 -0.006,-0.02 -0.012,-0.032c-0.006,-0.011 -0.016,-0.02 -0.029,-0.027c-0.014,-0.007 -0.031,-0.011 -0.05,-0.011l-0.118,0c-0.017,0 -0.029,0.002 -0.034,0.005c-0.006,0.003 -0.011,0.014 -0.015,0.031l-0.062,0.25Z" style="fill:#a9a9b3;fill-rule:nonzero;"/></g><g transform="matrix(24,0,0,24,333.428,1128.12)"><path d="M0.018,0.24c0,-0.002 0.005,-0.008 0.015,-0.018c0.056,-0.048 0.105,-0.106 0.147,-0.176c0.042,-0.069 0.073,-0.139 0.094,-0.208c0.02,-0.069 0.035,-0.13 0.044,-0.185c0.009,-0.055 0.014,-0.102 0.014,-0.142c0,-0.095 -0.021,-0.174 -0.062,-0.237c-0.005,-0.007 -0.007,-0.011 -0.007,-0.014c0,-0.007 0.003,-0.01 0.01,-0.01c0.007,0 0.02,0.013 0.038,0.039c0.017,0.025 0.032,0.054 0.044,0.086c0.018,0.05 0.027,0.107 0.027,0.172c-0,0.065 -0.011,0.141 -0.033,0.227c-0.022,0.087 -0.058,0.171 -0.108,0.253c-0.026,0.042 -0.056,0.082 -0.09,0.119c-0.034,0.037 -0.062,0.063 -0.083,0.08c-0.022,0.016 -0.035,0.024 -0.04,0.024c-0.007,0 -0.01,-0.003 -0.01,-0.01Z" style="fill:#a9a9b3;fill-rule:nonzero;"/></g></g><path d="M1080.67,114.01c-1.171,-0 -2.189,-0.292 -3.056,-0.877c-0.866,-0.584 -1.538,-1.385 -2.014,-2.404c-0.476,-1.019 -0.715,-2.179 -0.715,-3.48c0,-1.313 0.243,-2.48 0.728,-3.502c0.485,-1.022 1.159,-1.824 2.024,-2.408c0.864,-0.583 1.868,-0.875 3.01,-0.875c0.875,0 1.668,0.17 2.379,0.51c0.711,0.34 1.298,0.816 1.76,1.426c0.462,0.611 0.753,1.322 0.872,2.133l-1.534,-0c-0.161,-0.741 -0.543,-1.373 -1.146,-1.897c-0.603,-0.523 -1.373,-0.785 -2.308,-0.785c-0.836,-0 -1.574,0.226 -2.215,0.677c-0.641,0.452 -1.142,1.08 -1.504,1.884c-0.362,0.804 -0.543,1.734 -0.543,2.791c0,1.061 0.177,1.998 0.53,2.813c0.353,0.814 0.85,1.452 1.49,1.914c0.64,0.462 1.387,0.693 2.242,0.693c0.581,0 1.111,-0.109 1.59,-0.328c0.48,-0.218 0.883,-0.53 1.209,-0.936c0.327,-0.405 0.549,-0.885 0.666,-1.44l1.534,-0c-0.117,0.79 -0.398,1.492 -0.843,2.108c-0.445,0.615 -1.022,1.1 -1.73,1.453c-0.709,0.353 -1.517,0.53 -2.426,0.53Z" style="fill:#a9a9b3;fill-rule:nonzero;"/><path d="M1094.05,114.01c-1.131,-0 -2.129,-0.287 -2.995,-0.86c-0.865,-0.572 -1.543,-1.367 -2.032,-2.383c-0.49,-1.016 -0.735,-2.189 -0.735,-3.518c0,-1.34 0.245,-2.519 0.735,-3.537c0.489,-1.019 1.167,-1.815 2.032,-2.388c0.866,-0.573 1.864,-0.86 2.995,-0.86c1.13,0 2.128,0.287 2.992,0.861c0.865,0.574 1.543,1.37 2.033,2.389c0.491,1.019 0.736,2.197 0.736,3.535c-0,1.329 -0.245,2.502 -0.734,3.518c-0.49,1.016 -1.168,1.811 -2.033,2.383c-0.866,0.573 -1.864,0.86 -2.994,0.86Zm-0,-1.387c0.907,0 1.676,-0.244 2.308,-0.733c0.631,-0.488 1.111,-1.14 1.439,-1.954c0.327,-0.814 0.491,-1.71 0.491,-2.687c0,-0.978 -0.164,-1.875 -0.493,-2.692c-0.328,-0.817 -0.808,-1.473 -1.439,-1.966c-0.63,-0.493 -1.399,-0.74 -2.306,-0.74c-0.906,-0 -1.674,0.247 -2.306,0.74c-0.632,0.493 -1.112,1.149 -1.44,1.966c-0.329,0.817 -0.493,1.714 -0.493,2.692c-0,0.977 0.164,1.873 0.491,2.687c0.328,0.814 0.808,1.466 1.439,1.954c0.632,0.489 1.401,0.733 2.309,0.733Z" style="fill:#a9a9b3;fill-rule:nonzero;"/><path d="M1103.28,113.737l-0,-13.091l1.477,0l0,2.012l0.114,-0c0.261,-0.66 0.717,-1.192 1.368,-1.597c0.65,-0.405 1.387,-0.608 2.211,-0.608c0.121,-0 0.26,0.002 0.415,0.006c0.155,0.004 0.282,0.009 0.381,0.017l-0,1.545c-0.068,-0.011 -0.187,-0.029 -0.355,-0.054c-0.169,-0.024 -0.354,-0.037 -0.554,-0.037c-0.682,0 -1.289,0.144 -1.82,0.432c-0.531,0.288 -0.95,0.685 -1.256,1.19c-0.306,0.506 -0.459,1.083 -0.459,1.731l0,8.454l-1.522,0Z" style="fill:#a9a9b3;fill-rule:nonzero;"/><path d="M1112.21,113.737l-0,-13.091l1.477,0l-0,2.012l0.113,-0c0.262,-0.66 0.718,-1.192 1.368,-1.597c0.651,-0.405 1.388,-0.608 2.212,-0.608c0.121,-0 0.26,0.002 0.415,0.006c0.155,0.004 0.282,0.009 0.381,0.017l-0,1.545c-0.069,-0.011 -0.187,-0.029 -0.356,-0.054c-0.168,-0.024 -0.353,-0.037 -0.554,-0.037c-0.681,0 -1.288,0.144 -1.819,0.432c-0.531,0.288 -0.95,0.685 -1.256,1.19c-0.306,0.506 -0.459,1.083 -0.459,1.731l0,8.454l-1.522,0Z" style="fill:#a9a9b3;fill-rule:nonzero;"/><path d="M1126.03,114.01c-1.222,-0 -2.279,-0.286 -3.172,-0.858c-0.893,-0.572 -1.582,-1.365 -2.067,-2.378c-0.485,-1.013 -0.727,-2.181 -0.727,-3.503c-0,-1.322 0.243,-2.495 0.729,-3.52c0.485,-1.024 1.159,-1.828 2.021,-2.412c0.862,-0.583 1.858,-0.875 2.988,-0.875c0.709,0 1.393,0.13 2.053,0.39c0.66,0.259 1.252,0.654 1.777,1.184c0.525,0.531 0.94,1.199 1.246,2.005c0.306,0.805 0.459,1.757 0.459,2.853l-0,0.75l-10.228,0l0,-1.341l8.682,0c0,-0.842 -0.169,-1.6 -0.508,-2.271c-0.339,-0.671 -0.809,-1.203 -1.409,-1.595c-0.601,-0.392 -1.291,-0.588 -2.072,-0.588c-0.833,-0 -1.565,0.22 -2.195,0.662c-0.631,0.441 -1.124,1.025 -1.478,1.753c-0.354,0.727 -0.535,1.524 -0.542,2.392l-0,0.795c-0,1.04 0.181,1.948 0.544,2.723c0.362,0.776 0.876,1.377 1.541,1.805c0.665,0.428 1.451,0.642 2.358,0.642c0.621,0 1.166,-0.097 1.635,-0.292c0.468,-0.195 0.862,-0.456 1.182,-0.781c0.319,-0.326 0.562,-0.684 0.728,-1.074l1.443,0.466c-0.2,0.549 -0.526,1.057 -0.977,1.522c-0.451,0.466 -1.013,0.84 -1.687,1.123c-0.675,0.282 -1.449,0.423 -2.324,0.423Z" style="fill:#a9a9b3;fill-rule:nonzero;"/><path d="M1143.5,103.521l-1.386,0.387c-0.135,-0.391 -0.327,-0.744 -0.578,-1.061c-0.251,-0.318 -0.578,-0.571 -0.979,-0.759c-0.402,-0.188 -0.898,-0.283 -1.489,-0.283c-0.882,0 -1.609,0.211 -2.179,0.632c-0.57,0.422 -0.855,0.965 -0.855,1.63c0,0.562 0.195,1.018 0.584,1.366c0.389,0.349 0.99,0.624 1.803,0.827l1.977,0.488c1.1,0.269 1.925,0.693 2.473,1.27c0.548,0.578 0.822,1.306 0.822,2.185c0,0.737 -0.205,1.392 -0.615,1.966c-0.41,0.574 -0.979,1.024 -1.709,1.351c-0.729,0.327 -1.575,0.49 -2.539,0.49c-1.279,-0 -2.333,-0.288 -3.162,-0.864c-0.83,-0.576 -1.359,-1.409 -1.588,-2.5l1.454,-0.363c0.186,0.778 0.554,1.367 1.104,1.765c0.55,0.399 1.273,0.598 2.169,0.598c1.004,0 1.808,-0.226 2.412,-0.679c0.604,-0.452 0.906,-1.018 0.906,-1.696c0,-0.528 -0.176,-0.973 -0.528,-1.335c-0.353,-0.362 -0.889,-0.629 -1.608,-0.801l-2.137,-0.511c-1.134,-0.273 -1.975,-0.704 -2.521,-1.293c-0.546,-0.589 -0.82,-1.321 -0.82,-2.196c0,-0.722 0.197,-1.358 0.59,-1.908c0.393,-0.55 0.933,-0.981 1.619,-1.294c0.687,-0.312 1.469,-0.469 2.348,-0.469c1.201,0 2.161,0.273 2.881,0.817c0.72,0.545 1.237,1.291 1.551,2.24Z" style="fill:#a9a9b3;fill-rule:nonzero;"/><path d="M1147.25,118.646l0,-18l1.477,0l0,2.5l0.182,0c0.178,-0.394 0.426,-0.797 0.745,-1.21c0.318,-0.413 0.74,-0.761 1.265,-1.045c0.526,-0.285 1.189,-0.427 1.99,-0.427c1.08,0 2.025,0.283 2.837,0.848c0.811,0.566 1.443,1.356 1.895,2.371c0.451,1.015 0.677,2.196 0.677,3.543c0,1.352 -0.226,2.537 -0.679,3.554c-0.452,1.017 -1.083,1.809 -1.892,2.378c-0.809,0.568 -1.747,0.852 -2.815,0.852c-0.792,-0 -1.454,-0.142 -1.986,-0.425c-0.532,-0.283 -0.961,-0.633 -1.287,-1.051c-0.326,-0.418 -0.576,-0.827 -0.75,-1.229l-0.136,0l-0,7.341l-1.523,0Zm1.5,-11.443c0,1.053 0.158,1.987 0.473,2.803c0.315,0.815 0.771,1.455 1.367,1.92c0.595,0.465 1.315,0.697 2.16,0.697c0.868,0 1.602,-0.24 2.203,-0.72c0.602,-0.48 1.059,-1.129 1.372,-1.949c0.314,-0.819 0.471,-1.736 0.471,-2.751c-0,-1.008 -0.155,-1.915 -0.464,-2.723c-0.308,-0.808 -0.763,-1.448 -1.365,-1.92c-0.601,-0.473 -1.34,-0.709 -2.217,-0.709c-0.854,-0 -1.579,0.229 -2.175,0.686c-0.595,0.457 -1.048,1.088 -1.359,1.892c-0.311,0.804 -0.466,1.729 -0.466,2.774Z" style="fill:#a9a9b3;fill-rule:nonzero;"/><path d="M1166.97,114.01c-1.131,-0 -2.129,-0.287 -2.994,-0.86c-0.866,-0.572 -1.543,-1.367 -2.033,-2.383c-0.49,-1.016 -0.734,-2.189 -0.734,-3.518c-0,-1.34 0.244,-2.519 0.734,-3.537c0.49,-1.019 1.167,-1.815 2.033,-2.388c0.865,-0.573 1.863,-0.86 2.994,-0.86c1.131,0 2.128,0.287 2.993,0.861c0.864,0.574 1.542,1.37 2.033,2.389c0.49,1.019 0.735,2.197 0.735,3.535c0,1.329 -0.244,2.502 -0.734,3.518c-0.49,1.016 -1.167,1.811 -2.033,2.383c-0.865,0.573 -1.863,0.86 -2.994,0.86Zm-0,-1.387c0.907,0 1.677,-0.244 2.308,-0.733c0.632,-0.488 1.111,-1.14 1.439,-1.954c0.328,-0.814 0.492,-1.71 0.492,-2.687c-0,-0.978 -0.165,-1.875 -0.493,-2.692c-0.329,-0.817 -0.808,-1.473 -1.439,-1.966c-0.631,-0.493 -1.4,-0.74 -2.307,-0.74c-0.905,-0 -1.674,0.247 -2.305,0.74c-0.632,0.493 -1.112,1.149 -1.441,1.966c-0.328,0.817 -0.493,1.714 -0.493,2.692c0,0.977 0.164,1.873 0.492,2.687c0.327,0.814 0.807,1.466 1.439,1.954c0.631,0.489 1.401,0.733 2.308,0.733Z" style="fill:#a9a9b3;fill-rule:nonzero;"/><path d="M1177.72,105.555l-0,8.182l-1.523,0l0,-13.091l1.478,0l-0,2.057l0.136,-0c0.307,-0.67 0.785,-1.209 1.436,-1.616c0.651,-0.408 1.456,-0.611 2.416,-0.611c0.883,-0 1.657,0.183 2.324,0.551c0.667,0.367 1.187,0.906 1.56,1.616c0.373,0.711 0.559,1.583 0.559,2.617l0,8.477l-1.522,0l-0,-8.386c-0,-1.072 -0.3,-1.922 -0.898,-2.549c-0.599,-0.626 -1.402,-0.94 -2.409,-0.94c-0.686,0 -1.296,0.149 -1.831,0.446c-0.535,0.297 -0.957,0.723 -1.264,1.276c-0.308,0.553 -0.462,1.21 -0.462,1.971Z" style="fill:#a9a9b3;fill-rule:nonzero;"/><path d="M1194.96,114.01c-1.072,-0 -2.013,-0.284 -2.821,-0.851c-0.809,-0.567 -1.439,-1.359 -1.89,-2.376c-0.45,-1.018 -0.676,-2.203 -0.676,-3.557c0,-1.345 0.227,-2.525 0.679,-3.54c0.453,-1.015 1.085,-1.806 1.898,-2.372c0.812,-0.566 1.757,-0.85 2.832,-0.85c0.8,0 1.462,0.142 1.989,0.425c0.527,0.283 0.95,0.632 1.27,1.046c0.32,0.413 0.567,0.817 0.741,1.211l0.137,0l-0,-6.863l1.522,-0l0,17.454l-1.477,0l0,-2.432l-0.182,0c-0.178,0.4 -0.429,0.809 -0.752,1.226c-0.324,0.418 -0.752,0.769 -1.283,1.053c-0.531,0.284 -1.194,0.426 -1.987,0.426Zm0.181,-1.387c0.847,0 1.568,-0.232 2.164,-0.697c0.595,-0.465 1.05,-1.105 1.365,-1.92c0.314,-0.816 0.471,-1.75 0.471,-2.803c0,-1.045 -0.155,-1.97 -0.467,-2.774c-0.311,-0.804 -0.765,-1.435 -1.361,-1.892c-0.595,-0.457 -1.319,-0.686 -2.172,-0.686c-0.875,-0 -1.613,0.236 -2.214,0.709c-0.601,0.472 -1.057,1.112 -1.366,1.92c-0.31,0.808 -0.465,1.715 -0.465,2.723c0,1.015 0.156,1.932 0.469,2.751c0.312,0.82 0.769,1.469 1.37,1.949c0.602,0.48 1.337,0.72 2.206,0.72Z" style="fill:#a9a9b3;fill-rule:nonzero;"/><path d="M1210.43,114.01c-1.222,-0 -2.279,-0.286 -3.172,-0.858c-0.893,-0.572 -1.582,-1.365 -2.067,-2.378c-0.485,-1.013 -0.727,-2.181 -0.727,-3.503c-0,-1.322 0.243,-2.495 0.729,-3.52c0.485,-1.024 1.159,-1.828 2.021,-2.412c0.862,-0.583 1.858,-0.875 2.989,-0.875c0.708,0 1.392,0.13 2.052,0.39c0.66,0.259 1.253,0.654 1.777,1.184c0.525,0.531 0.94,1.199 1.246,2.005c0.306,0.805 0.459,1.757 0.459,2.853l-0,0.75l-10.228,0l0,-1.341l8.682,0c0,-0.842 -0.169,-1.6 -0.508,-2.271c-0.339,-0.671 -0.809,-1.203 -1.409,-1.595c-0.601,-0.392 -1.291,-0.588 -2.071,-0.588c-0.834,-0 -1.566,0.22 -2.196,0.662c-0.631,0.441 -1.123,1.025 -1.478,1.753c-0.354,0.727 -0.535,1.524 -0.542,2.392l-0,0.795c-0,1.04 0.181,1.948 0.544,2.723c0.362,0.776 0.876,1.377 1.541,1.805c0.665,0.428 1.451,0.642 2.358,0.642c0.621,0 1.166,-0.097 1.635,-0.292c0.469,-0.195 0.863,-0.456 1.182,-0.781c0.319,-0.326 0.562,-0.684 0.728,-1.074l1.443,0.466c-0.2,0.549 -0.526,1.057 -0.977,1.522c-0.451,0.466 -1.013,0.84 -1.687,1.123c-0.674,0.282 -1.449,0.423 -2.324,0.423Z" style="fill:#a9a9b3;fill-rule:nonzero;"/><path d="M1220.64,105.555l0,8.182l-1.522,0l-0,-13.091l1.477,0l-0,2.057l0.136,-0c0.307,-0.67 0.786,-1.209 1.436,-1.616c0.651,-0.408 1.456,-0.611 2.417,-0.611c0.882,-0 1.657,0.183 2.323,0.551c0.667,0.367 1.187,0.906 1.56,1.616c0.373,0.711 0.56,1.583 0.56,2.617l-0,8.477l-1.523,0l0,-8.386c0,-1.072 -0.299,-1.922 -0.898,-2.549c-0.598,-0.626 -1.401,-0.94 -2.409,-0.94c-0.685,0 -1.296,0.149 -1.831,0.446c-0.535,0.297 -0.956,0.723 -1.264,1.276c-0.308,0.553 -0.462,1.21 -0.462,1.971Z" style="fill:#a9a9b3;fill-rule:nonzero;"/><path d="M1238.28,114.01c-1.171,-0 -2.189,-0.292 -3.056,-0.877c-0.866,-0.584 -1.537,-1.385 -2.014,-2.404c-0.476,-1.019 -0.714,-2.179 -0.714,-3.48c-0,-1.313 0.242,-2.48 0.727,-3.502c0.485,-1.022 1.16,-1.824 2.024,-2.408c0.865,-0.583 1.868,-0.875 3.01,-0.875c0.875,0 1.668,0.17 2.379,0.51c0.711,0.34 1.298,0.816 1.76,1.426c0.462,0.611 0.753,1.322 0.872,2.133l-1.534,-0c-0.161,-0.741 -0.543,-1.373 -1.146,-1.897c-0.603,-0.523 -1.373,-0.785 -2.308,-0.785c-0.835,-0 -1.574,0.226 -2.215,0.677c-0.641,0.452 -1.142,1.08 -1.504,1.884c-0.362,0.804 -0.543,1.734 -0.543,2.791c0,1.061 0.177,1.998 0.53,2.813c0.354,0.814 0.85,1.452 1.49,1.914c0.64,0.462 1.388,0.693 2.242,0.693c0.581,0 1.112,-0.109 1.591,-0.328c0.479,-0.218 0.882,-0.53 1.209,-0.936c0.326,-0.405 0.548,-0.885 0.666,-1.44l1.534,-0c-0.118,0.79 -0.399,1.492 -0.844,2.108c-0.445,0.615 -1.022,1.1 -1.73,1.453c-0.708,0.353 -1.517,0.53 -2.426,0.53Z" style="fill:#a9a9b3;fill-rule:nonzero;"/><path d="M1251.85,114.01c-1.221,-0 -2.279,-0.286 -3.171,-0.858c-0.893,-0.572 -1.582,-1.365 -2.067,-2.378c-0.485,-1.013 -0.728,-2.181 -0.728,-3.503c0,-1.322 0.243,-2.495 0.729,-3.52c0.486,-1.024 1.16,-1.828 2.021,-2.412c0.862,-0.583 1.858,-0.875 2.989,-0.875c0.708,0 1.393,0.13 2.053,0.39c0.66,0.259 1.252,0.654 1.777,1.184c0.524,0.531 0.94,1.199 1.245,2.005c0.306,0.805 0.459,1.757 0.459,2.853l0,0.75l-10.227,0l-0,-1.341l8.682,0c-0,-0.842 -0.17,-1.6 -0.509,-2.271c-0.339,-0.671 -0.809,-1.203 -1.409,-1.595c-0.6,-0.392 -1.291,-0.588 -2.071,-0.588c-0.833,-0 -1.565,0.22 -2.196,0.662c-0.631,0.441 -1.123,1.025 -1.477,1.753c-0.354,0.727 -0.535,1.524 -0.543,2.392l0,0.795c0,1.04 0.182,1.948 0.544,2.723c0.363,0.776 0.877,1.377 1.541,1.805c0.665,0.428 1.451,0.642 2.358,0.642c0.622,0 1.167,-0.097 1.635,-0.292c0.469,-0.195 0.863,-0.456 1.182,-0.781c0.319,-0.326 0.562,-0.684 0.729,-1.074l1.443,0.466c-0.201,0.549 -0.527,1.057 -0.977,1.522c-0.451,0.466 -1.014,0.84 -1.688,1.123c-0.674,0.282 -1.449,0.423 -2.324,0.423Z" style="fill:#a9a9b3;fill-rule:nonzero;"/><path d="M1269.33,103.521l-1.387,0.387c-0.134,-0.391 -0.327,-0.744 -0.578,-1.061c-0.251,-0.318 -0.577,-0.571 -0.979,-0.759c-0.401,-0.188 -0.897,-0.283 -1.488,-0.283c-0.883,0 -1.609,0.211 -2.179,0.632c-0.57,0.422 -0.855,0.965 -0.855,1.63c-0,0.562 0.194,1.018 0.584,1.366c0.389,0.349 0.99,0.624 1.802,0.827l1.977,0.488c1.101,0.269 1.925,0.693 2.473,1.27c0.549,0.578 0.823,1.306 0.823,2.185c-0,0.737 -0.205,1.392 -0.615,1.966c-0.41,0.574 -0.98,1.024 -1.709,1.351c-0.729,0.327 -1.576,0.49 -2.54,0.49c-1.278,-0 -2.332,-0.288 -3.162,-0.864c-0.829,-0.576 -1.359,-1.409 -1.588,-2.5l1.455,-0.363c0.185,0.778 0.553,1.367 1.103,1.765c0.551,0.399 1.274,0.598 2.169,0.598c1.004,0 1.808,-0.226 2.412,-0.679c0.605,-0.452 0.907,-1.018 0.907,-1.696c-0,-0.528 -0.177,-0.973 -0.529,-1.335c-0.352,-0.362 -0.888,-0.629 -1.608,-0.801l-2.136,-0.511c-1.135,-0.273 -1.975,-0.704 -2.521,-1.293c-0.547,-0.589 -0.82,-1.321 -0.82,-2.196c-0,-0.722 0.196,-1.358 0.589,-1.908c0.393,-0.55 0.933,-0.981 1.62,-1.294c0.686,-0.312 1.469,-0.469 2.348,-0.469c1.201,0 2.161,0.273 2.88,0.817c0.72,0.545 1.237,1.291 1.552,2.24Z" style="fill:#a9a9b3;fill-rule:nonzero;"/></svg>