<?xml version="1.0" encoding="UTF-8" standalone="no"?>
<!DOCTYPE svg PUBLIC "-//W3C//DTD SVG 1.1//EN" "http://www.w3.org/Graphics/SVG/1.1/DTD/svg11.dtd">
<svg width="100%" height="100%" viewBox="0 0 900 100" version="1.1" xmlns="http://www.w3.org/2000/svg" xmlns:xlink="http://www.w3.org/1999/xlink" xml:space="preserve" xmlns:serif="http://www.serif.com/" style="fill-rule:evenodd;clip-rule:evenodd;stroke-linejoin:round;">
    <path d="M36.614,81.812L36.614,11.811" style="fill:none;fill-rule:nonzero;stroke:rgb(169,169,179);stroke-width:1px;"/>
    <path d="M161.104,81.812L161.104,11.811" style="fill:none;fill-rule:nonzero;stroke:rgb(169,169,179);stroke-width:1px;"/>
    <path d="M285.592,81.812L285.592,11.811" style="fill:none;fill-rule:nonzero;stroke:rgb(169,169,179);stroke-width:1px;"/>
    <path d="M410.083,81.812L410.083,11.811" style="fill:none;fill-rule:nonzero;stroke:rgb(169,169,179);stroke-width:1px;"/>
    <path d="M534.573,81.812L534.573,11.811" style="fill:none;fill-rule:nonzero;stroke:rgb(169,169,179);stroke-width:1px;"/>
    <path d="M659.063,81.812L659.063,11.811" style="fill:none;fill-rule:nonzero;stroke:rgb(169,169,179);stroke-width:1px;"/>
    <path d="M783.553,81.812L783.553,11.811" style="fill:none;fill-rule:nonzero;stroke:rgb(169,169,179);stroke-width:1px;"/>
    <path d="M11.811,81.812L888.19,81.812" style="fill:none;fill-rule:nonzero;stroke:rgb(169,169,179);stroke-width:1px;"/>
    <path d="M36.614,81.812L36.614,77.088" style="fill:none;fill-rule:nonzero;stroke:rgb(169,169,179);stroke-width:1px;"/>
    <path d="M161.104,81.812L161.104,77.088" style="fill:none;fill-rule:nonzero;stroke:rgb(169,169,179);stroke-width:1px;"/>
    <path d="M285.592,81.812L285.592,77.088" style="fill:none;fill-rule:nonzero;stroke:rgb(169,169,179);stroke-width:1px;"/>
    <path d="M410.083,81.812L410.083,77.088" style="fill:none;fill-rule:nonzero;stroke:rgb(169,169,179);stroke-width:1px;"/>
    <path d="M534.573,81.812L534.573,77.088" style="fill:none;fill-rule:nonzero;stroke:rgb(169,169,179);stroke-width:1px;"/>
    <path d="M659.063,81.812L659.063,77.088" style="fill:none;fill-rule:nonzero;stroke:rgb(169,169,179);stroke-width:1px;"/>
    <path d="M783.553,81.812L783.553,77.088" style="fill:none;fill-rule:nonzero;stroke:rgb(169,169,179);stroke-width:1px;"/>
    <path d="M30.96,91.942C30.358,91.942 29.905,92.239 29.6,92.833C29.299,93.423 29.149,94.312 29.149,95.501C29.149,96.685 29.299,97.574 29.6,98.168C29.905,98.759 30.358,99.054 30.96,99.054C31.566,99.054 32.019,98.759 32.32,98.168C32.625,97.574 32.778,96.685 32.778,95.501C32.778,94.312 32.625,93.423 32.32,92.833C32.019,92.239 31.566,91.942 30.96,91.942M30.96,91.016C31.929,91.016 32.667,91.4 33.177,92.167C33.69,92.931 33.946,94.042 33.946,95.501C33.946,96.955 33.69,98.066 33.177,98.834C32.667,99.598 31.929,99.98 30.96,99.98C29.992,99.98 29.251,99.598 28.738,98.834C28.229,98.066 27.974,96.955 27.974,95.501C27.974,94.042 28.229,92.931 28.738,92.167C29.251,91.4 29.992,91.016 30.96,91.016Z" style="fill:rgb(169,169,179);"/>
    <rect x="36.001" y="98.342" width="1.221" height="1.47" style="fill:rgb(169,169,179);"/>
    <path d="M42.268,91.942C41.666,91.942 41.213,92.239 40.908,92.833C40.607,93.423 40.457,94.312 40.457,95.501C40.457,96.685 40.607,97.574 40.908,98.168C41.213,98.759 41.666,99.054 42.268,99.054C42.874,99.054 43.327,98.759 43.628,98.168C43.933,97.574 44.085,96.685 44.085,95.501C44.085,94.312 43.933,93.423 43.628,92.833C43.327,92.239 42.874,91.942 42.268,91.942M42.268,91.016C43.236,91.016 43.975,91.4 44.484,92.167C44.998,92.931 45.254,94.042 45.254,95.501C45.254,96.955 44.998,98.066 44.484,98.834C43.975,99.598 43.236,99.98 42.268,99.98C41.3,99.98 40.559,99.598 40.046,98.834C39.537,98.066 39.282,96.955 39.282,95.501C39.282,94.042 39.537,92.931 40.046,92.167C40.559,91.4 41.3,91.016 42.268,91.016Z" style="fill:rgb(169,169,179);"/>
    <path d="M155.65,91.942C155.048,91.942 154.594,92.239 154.29,92.833C153.989,93.423 153.838,94.312 153.838,95.501C153.838,96.685 153.989,97.574 154.29,98.168C154.594,98.759 155.048,99.054 155.65,99.054C156.255,99.054 156.708,98.759 157.01,98.168C157.314,97.574 157.467,96.685 157.467,95.501C157.467,94.312 157.314,93.423 157.01,92.833C156.708,92.239 156.255,91.942 155.65,91.942M155.65,91.016C156.618,91.016 157.357,91.4 157.866,92.167C158.379,92.931 158.636,94.042 158.636,95.501C158.636,96.955 158.379,98.066 157.866,98.834C157.357,99.598 156.618,99.98 155.65,99.98C154.681,99.98 153.94,99.598 153.427,98.834C152.918,98.066 152.664,96.955 152.664,95.501C152.664,94.042 152.918,92.931 153.427,92.167C153.94,91.4 154.681,91.016 155.65,91.016Z" style="fill:rgb(169,169,179);"/>
    <rect x="160.69" y="98.342" width="1.221" height="1.47" style="fill:rgb(169,169,179);"/>
    <path d="M165.464,98.828L169.544,98.828L169.544,99.812L164.058,99.812L164.058,98.828C164.502,98.369 165.106,97.754 165.869,96.982C166.637,96.207 167.119,95.707 167.316,95.483C167.69,95.063 167.951,94.708 168.098,94.418C168.248,94.125 168.323,93.838 168.323,93.556C168.323,93.097 168.161,92.723 167.837,92.434C167.517,92.144 167.098,92 166.581,92C166.215,92 165.827,92.063 165.418,92.191C165.013,92.318 164.579,92.511 164.116,92.769L164.116,91.589C164.587,91.4 165.027,91.257 165.436,91.161C165.844,91.064 166.219,91.016 166.558,91.016C167.453,91.016 168.167,91.239 168.699,91.687C169.232,92.135 169.498,92.733 169.498,93.481C169.498,93.836 169.43,94.174 169.295,94.494C169.164,94.81 168.923,95.184 168.572,95.617C168.475,95.728 168.169,96.052 167.652,96.589C167.135,97.121 166.406,97.868 165.464,98.828Z" style="fill:rgb(169,169,179);"/>
    <path d="M279.88,91.942C279.277,91.942 278.823,92.239 278.52,92.833C278.218,93.423 278.068,94.312 278.068,95.501C278.068,96.685 278.218,97.574 278.52,98.168C278.823,98.759 279.277,99.054 279.88,99.054C280.485,99.054 280.938,98.759 281.238,98.168C281.543,97.574 281.695,96.685 281.695,95.501C281.695,94.312 281.543,93.423 281.238,92.833C280.938,92.239 280.485,91.942 279.88,91.942M279.88,91.016C280.848,91.016 281.587,91.4 282.095,92.167C282.608,92.931 282.865,94.042 282.865,95.501C282.865,96.955 282.608,98.066 282.095,98.834C281.587,99.598 280.848,99.98 279.88,99.98C278.91,99.98 278.169,99.598 277.658,98.834C277.148,98.066 276.893,96.955 276.893,95.501C276.893,94.042 277.148,92.931 277.658,92.167C278.169,91.4 278.91,91.016 279.88,91.016Z" style="fill:rgb(169,169,179);"/>
    <rect x="284.92" y="98.342" width="1.22" height="1.47" style="fill:rgb(169,169,179);"/>
    <path d="M291.898,92.191L288.948,96.803L291.898,96.803L291.898,92.191M291.592,91.172L293.063,91.172L293.063,96.803L294.295,96.803L294.295,97.775L293.063,97.775L293.063,99.812L291.898,99.812L291.898,97.775L287.998,97.775L287.998,96.647L291.592,91.172Z" style="fill:rgb(169,169,179);"/>
    <path d="M404.41,91.942C403.807,91.942 403.353,92.239 403.05,92.833C402.748,93.423 402.598,94.312 402.598,95.501C402.598,96.685 402.748,97.574 403.05,98.168C403.353,98.759 403.807,99.054 404.41,99.054C405.015,99.054 405.468,98.759 405.77,98.168C406.073,97.574 406.225,96.685 406.225,95.501C406.225,94.312 406.073,93.423 405.77,92.833C405.468,92.239 405.015,91.942 404.41,91.942M404.41,91.016C405.378,91.016 406.117,91.4 406.625,92.167C407.138,92.931 407.395,94.042 407.395,95.501C407.395,96.955 407.138,98.066 406.625,98.834C406.117,99.598 405.378,99.98 404.41,99.98C403.442,99.98 402.701,99.598 402.188,98.834C401.678,98.066 401.423,96.955 401.423,95.501C401.423,94.042 401.678,92.931 402.188,92.167C402.701,91.4 403.442,91.016 404.41,91.016Z" style="fill:rgb(169,169,179);"/>
    <rect x="409.45" y="98.342" width="1.22" height="1.47" style="fill:rgb(169,169,179);"/>
    <path d="M415.863,95.026C415.337,95.026 414.921,95.205 414.613,95.564C414.308,95.923 414.155,96.415 414.155,97.04C414.155,97.661 414.308,98.153 414.613,98.516C414.921,98.874 415.337,99.054 415.863,99.054C416.386,99.054 416.8,98.874 417.105,98.516C417.413,98.153 417.568,97.661 417.568,97.04C417.568,96.415 417.413,95.923 417.105,95.564C416.8,95.205 416.386,95.026 415.863,95.026M418.183,91.363L418.183,92.428C417.889,92.289 417.592,92.183 417.29,92.11C416.993,92.036 416.698,92 416.405,92C415.633,92 415.043,92.26 414.635,92.781C414.23,93.302 413.998,94.089 413.94,95.142C414.168,94.806 414.454,94.55 414.798,94.372C415.141,94.191 415.518,94.1 415.93,94.1C416.798,94.1 417.483,94.365 417.985,94.893C418.49,95.418 418.743,96.133 418.743,97.04C418.743,97.927 418.481,98.639 417.958,99.176C417.433,99.712 416.734,99.98 415.863,99.98C414.863,99.98 414.098,99.598 413.57,98.834C413.042,98.066 412.777,96.955 412.777,95.501C412.777,94.135 413.102,93.047 413.75,92.237C414.398,91.423 415.268,91.016 416.36,91.016C416.653,91.016 416.948,91.045 417.245,91.103C417.545,91.16 417.858,91.247 418.183,91.363Z" style="fill:rgb(169,169,179);"/>
    <path d="M528.93,91.942C528.328,91.942 527.875,92.239 527.57,92.833C527.27,93.423 527.12,94.312 527.12,95.501C527.12,96.685 527.27,97.574 527.57,98.168C527.875,98.759 528.328,99.054 528.93,99.054C529.537,99.054 529.99,98.759 530.29,98.168C530.595,97.574 530.747,96.685 530.747,95.501C530.747,94.312 530.595,93.423 530.29,92.833C529.99,92.239 529.537,91.942 528.93,91.942M528.93,91.016C529.898,91.016 530.638,91.4 531.148,92.167C531.661,92.931 531.918,94.042 531.918,95.501C531.918,96.955 531.661,98.066 531.148,98.834C530.638,99.598 529.898,99.98 528.93,99.98C527.962,99.98 527.221,99.598 526.708,98.834C526.199,98.066 525.945,96.955 525.945,95.501C525.945,94.042 526.199,92.931 526.708,92.167C527.221,91.4 527.962,91.016 528.93,91.016Z" style="fill:rgb(169,169,179);"/>
    <rect x="533.97" y="98.342" width="1.222" height="1.47" style="fill:rgb(169,169,179);"/>
    <path d="M540.238,95.709C539.683,95.709 539.245,95.858 538.925,96.155C538.608,96.452 538.45,96.861 538.45,97.382C538.45,97.902 538.608,98.311 538.925,98.608C539.245,98.905 539.683,99.054 540.238,99.054C540.794,99.054 541.233,98.905 541.553,98.608C541.873,98.307 542.033,97.899 542.033,97.382C542.033,96.861 541.873,96.452 541.553,96.155C541.236,95.858 540.798,95.709 540.238,95.709M539.07,95.211C538.568,95.088 538.177,94.854 537.895,94.511C537.617,94.168 537.478,93.749 537.478,93.255C537.478,92.565 537.723,92.019 538.213,91.618C538.706,91.216 539.381,91.016 540.238,91.016C541.098,91.016 541.773,91.216 542.263,91.618C542.752,92.019 542.997,92.565 542.997,93.255C542.997,93.749 542.857,94.168 542.575,94.511C542.298,94.854 541.911,95.088 541.413,95.211C541.976,95.342 542.414,95.599 542.728,95.981C543.043,96.363 543.2,96.83 543.2,97.382C543.2,98.219 542.944,98.861 542.433,99.309C541.923,99.756 541.191,99.98 540.238,99.98C539.286,99.98 538.553,99.756 538.04,99.309C537.53,98.861 537.275,98.219 537.275,97.382C537.275,96.83 537.433,96.363 537.75,95.981C538.067,95.599 538.507,95.342 539.07,95.211M538.64,93.365C538.64,93.813 538.779,94.162 539.058,94.413C539.339,94.663 539.733,94.789 540.238,94.789C540.739,94.789 541.131,94.663 541.413,94.413C541.698,94.162 541.84,93.813 541.84,93.365C541.84,92.918 541.698,92.569 541.413,92.318C541.131,92.067 540.739,91.942 540.238,91.942C539.733,91.942 539.339,92.067 539.058,92.318C538.779,92.569 538.64,92.918 538.64,93.365Z" style="fill:rgb(169,169,179);"/>
    <path d="M650.85,98.828L652.76,98.828L652.76,92.237L650.683,92.653L650.683,91.589L652.747,91.172L653.918,91.172L653.918,98.828L655.828,98.828L655.828,99.812L650.85,99.812L650.85,98.828Z" style="fill:rgb(169,169,179);"/>
    <rect x="658.188" y="98.342" width="1.222" height="1.47" style="fill:rgb(169,169,179);"/>
    <path d="M664.455,91.942C663.853,91.942 663.4,92.239 663.095,92.833C662.795,93.423 662.645,94.312 662.645,95.501C662.645,96.685 662.795,97.574 663.095,98.168C663.4,98.759 663.853,99.054 664.455,99.054C665.062,99.054 665.515,98.759 665.815,98.168C666.12,97.574 666.273,96.685 666.273,95.501C666.273,94.312 666.12,93.423 665.815,92.833C665.515,92.239 665.062,91.942 664.455,91.942M664.455,91.016C665.423,91.016 666.163,91.4 666.673,92.167C667.186,92.931 667.443,94.042 667.443,95.501C667.443,96.955 667.186,98.066 666.673,98.834C666.163,99.598 665.423,99.98 664.455,99.98C663.487,99.98 662.746,99.598 662.233,98.834C661.724,98.066 661.47,96.955 661.47,95.501C661.47,94.042 661.724,92.931 662.233,92.167C662.746,91.4 663.487,91.016 664.455,91.016Z" style="fill:rgb(169,169,179);"/>
    <path d="M775.54,98.828L777.45,98.828L777.45,92.237L775.372,92.653L775.372,91.589L777.438,91.172L778.608,91.172L778.608,98.828L780.518,98.828L780.518,99.812L775.54,99.812L775.54,98.828Z" style="fill:rgb(169,169,179);"/>
    <rect x="782.878" y="98.342" width="1.222" height="1.47" style="fill:rgb(169,169,179);"/>
    <path d="M787.653,98.828L791.733,98.828L791.733,99.812L786.245,99.812L786.245,98.828C786.69,98.369 787.294,97.754 788.058,96.982C788.826,96.207 789.308,95.707 789.505,95.483C789.878,95.063 790.138,94.708 790.285,94.418C790.435,94.125 790.51,93.838 790.51,93.556C790.51,93.097 790.348,92.723 790.025,92.434C789.705,92.144 789.287,92 788.77,92C788.403,92 788.015,92.063 787.605,92.191C787.2,92.318 786.766,92.511 786.303,92.769L786.303,91.589C786.774,91.4 787.214,91.257 787.622,91.161C788.032,91.064 788.407,91.016 788.745,91.016C789.64,91.016 790.354,91.239 790.888,91.687C791.419,92.135 791.685,92.733 791.685,93.481C791.685,93.836 791.617,94.174 791.483,94.494C791.353,94.81 791.112,95.184 790.76,95.617C790.663,95.728 790.357,96.052 789.84,96.589C789.323,97.121 788.594,97.868 787.653,98.828Z" style="fill:rgb(169,169,179);"/>
    <path d="M11.811,81.812L11.811,11.811" style="fill:none;fill-rule:nonzero;stroke:rgb(169,169,179);stroke-width:1px;"/>
    <circle cx="36.614" cy="58.478" r="7" style="fill:rgb(74,61,144);"/>
    <circle cx="659.063" cy="58.478" r="7" style="fill:rgb(74,61,144);"/>
    <circle cx="814.675" cy="58.478" r="7" style="fill:rgb(74,61,144);"/>
    <circle cx="853.578" cy="58.478" r="7" style="fill:rgb(74,61,144);"/>
    <circle cx="863.303" cy="58.478" r="7" style="fill:rgb(74,61,144);stroke:white;stroke-width:0.5px;stroke-linejoin:miter;"/>
    <circle cx="36.614" cy="35.145" r="7" style="fill:rgb(255,0,104);"/>
</svg>
