<?xml version="1.0" encoding="utf-8"?>
<svg xmlns="http://www.w3.org/2000/svg" xmlns:xlink="http://www.w3.org/1999/xlink" width="600" height="400" viewBox="0 0 2400 1600">
<defs>
  <clipPath id="clip100">
    <rect x="0" y="0" width="2400" height="1600"/>
  </clipPath>
</defs>
<path clip-path="url(#clip100)" d="
M0 1600 L2400 1600 L2400 0 L0 0  Z
  " fill="#ffffff" fill-rule="evenodd" fill-opacity="1"/>
<defs>
  <clipPath id="clip101">
    <rect x="480" y="0" width="1681" height="1600"/>
  </clipPath>
</defs>
<path clip-path="url(#clip100)" d="
M249.542 1423.18 L2352.76 1423.18 L2352.76 47.2441 L249.542 47.2441  Z
  " fill="#ffffff" fill-rule="evenodd" fill-opacity="1"/>
<defs>
  <clipPath id="clip102">
    <rect x="249" y="47" width="2104" height="1377"/>
  </clipPath>
</defs>
<polyline clip-path="url(#clip102)" style="stroke:#000000; stroke-linecap:butt; stroke-linejoin:round; stroke-width:2; stroke-opacity:0.1; fill:none" points="
  301.598,1423.18 301.598,47.2441 
  "/>
<polyline clip-path="url(#clip102)" style="stroke:#000000; stroke-linecap:butt; stroke-linejoin:round; stroke-width:2; stroke-opacity:0.1; fill:none" points="
  799.506,1423.18 799.506,47.2441 
  "/>
<polyline clip-path="url(#clip102)" style="stroke:#000000; stroke-linecap:butt; stroke-linejoin:round; stroke-width:2; stroke-opacity:0.1; fill:none" points="
  1297.41,1423.18 1297.41,47.2441 
  "/>
<polyline clip-path="url(#clip102)" style="stroke:#000000; stroke-linecap:butt; stroke-linejoin:round; stroke-width:2; stroke-opacity:0.1; fill:none" points="
  1795.32,1423.18 1795.32,47.2441 
  "/>
<polyline clip-path="url(#clip102)" style="stroke:#000000; stroke-linecap:butt; stroke-linejoin:round; stroke-width:2; stroke-opacity:0.1; fill:none" points="
  2293.23,1423.18 2293.23,47.2441 
  "/>
<polyline clip-path="url(#clip100)" style="stroke:#000000; stroke-linecap:butt; stroke-linejoin:round; stroke-width:4; stroke-opacity:1; fill:none" points="
  249.542,1423.18 2352.76,1423.18 
  "/>
<polyline clip-path="url(#clip100)" style="stroke:#000000; stroke-linecap:butt; stroke-linejoin:round; stroke-width:4; stroke-opacity:1; fill:none" points="
  301.598,1423.18 301.598,1404.28 
  "/>
<polyline clip-path="url(#clip100)" style="stroke:#000000; stroke-linecap:butt; stroke-linejoin:round; stroke-width:4; stroke-opacity:1; fill:none" points="
  799.506,1423.18 799.506,1404.28 
  "/>
<polyline clip-path="url(#clip100)" style="stroke:#000000; stroke-linecap:butt; stroke-linejoin:round; stroke-width:4; stroke-opacity:1; fill:none" points="
  1297.41,1423.18 1297.41,1404.28 
  "/>
<polyline clip-path="url(#clip100)" style="stroke:#000000; stroke-linecap:butt; stroke-linejoin:round; stroke-width:4; stroke-opacity:1; fill:none" points="
  1795.32,1423.18 1795.32,1404.28 
  "/>
<polyline clip-path="url(#clip100)" style="stroke:#000000; stroke-linecap:butt; stroke-linejoin:round; stroke-width:4; stroke-opacity:1; fill:none" points="
  2293.23,1423.18 2293.23,1404.28 
  "/>
<path clip-path="url(#clip100)" d="M301.598 1454.1 Q297.987 1454.1 296.159 1457.66 Q294.353 1461.2 294.353 1468.33 Q294.353 1475.44 296.159 1479.01 Q297.987 1482.55 301.598 1482.55 Q305.233 1482.55 307.038 1479.01 Q308.867 1475.44 308.867 1468.33 Q308.867 1461.2 307.038 1457.66 Q305.233 1454.1 301.598 1454.1 M301.598 1450.39 Q307.408 1450.39 310.464 1455 Q313.543 1459.58 313.543 1468.33 Q313.543 1477.06 310.464 1481.67 Q307.408 1486.25 301.598 1486.25 Q295.788 1486.25 292.709 1481.67 Q289.654 1477.06 289.654 1468.33 Q289.654 1459.58 292.709 1455 Q295.788 1450.39 301.598 1450.39 Z" fill="#000000" fill-rule="evenodd" fill-opacity="1" /><path clip-path="url(#clip100)" d="M763.199 1481.64 L779.518 1481.64 L779.518 1485.58 L757.574 1485.58 L757.574 1481.64 Q760.236 1478.89 764.819 1474.26 Q769.426 1469.61 770.606 1468.27 Q772.852 1465.74 773.731 1464.01 Q774.634 1462.25 774.634 1460.56 Q774.634 1457.8 772.69 1456.07 Q770.768 1454.33 767.666 1454.33 Q765.467 1454.33 763.014 1455.09 Q760.583 1455.86 757.805 1457.41 L757.805 1452.69 Q760.629 1451.55 763.083 1450.97 Q765.537 1450.39 767.574 1450.39 Q772.944 1450.39 776.139 1453.08 Q779.333 1455.77 779.333 1460.26 Q779.333 1462.39 778.523 1464.31 Q777.736 1466.2 775.629 1468.8 Q775.051 1469.47 771.949 1472.69 Q768.847 1475.88 763.199 1481.64 Z" fill="#000000" fill-rule="evenodd" fill-opacity="1" /><path clip-path="url(#clip100)" d="M799.333 1454.1 Q795.722 1454.1 793.893 1457.66 Q792.088 1461.2 792.088 1468.33 Q792.088 1475.44 793.893 1479.01 Q795.722 1482.55 799.333 1482.55 Q802.967 1482.55 804.773 1479.01 Q806.601 1475.44 806.601 1468.33 Q806.601 1461.2 804.773 1457.66 Q802.967 1454.1 799.333 1454.1 M799.333 1450.39 Q805.143 1450.39 808.199 1455 Q811.277 1459.58 811.277 1468.33 Q811.277 1477.06 808.199 1481.67 Q805.143 1486.25 799.333 1486.25 Q793.523 1486.25 790.444 1481.67 Q787.389 1477.06 787.389 1468.33 Q787.389 1459.58 790.444 1455 Q793.523 1450.39 799.333 1450.39 Z" fill="#000000" fill-rule="evenodd" fill-opacity="1" /><path clip-path="url(#clip100)" d="M829.495 1454.1 Q825.884 1454.1 824.055 1457.66 Q822.249 1461.2 822.249 1468.33 Q822.249 1475.44 824.055 1479.01 Q825.884 1482.55 829.495 1482.55 Q833.129 1482.55 834.935 1479.01 Q836.763 1475.44 836.763 1468.33 Q836.763 1461.2 834.935 1457.66 Q833.129 1454.1 829.495 1454.1 M829.495 1450.39 Q835.305 1450.39 838.36 1455 Q841.439 1459.58 841.439 1468.33 Q841.439 1477.06 838.36 1481.67 Q835.305 1486.25 829.495 1486.25 Q823.685 1486.25 820.606 1481.67 Q817.55 1477.06 817.55 1468.33 Q817.55 1459.58 820.606 1455 Q823.685 1450.39 829.495 1450.39 Z" fill="#000000" fill-rule="evenodd" fill-opacity="1" /><path clip-path="url(#clip100)" d="M1270.51 1455.09 L1258.7 1473.54 L1270.51 1473.54 L1270.51 1455.09 M1269.28 1451.02 L1275.16 1451.02 L1275.16 1473.54 L1280.09 1473.54 L1280.09 1477.43 L1275.16 1477.43 L1275.16 1485.58 L1270.51 1485.58 L1270.51 1477.43 L1254.9 1477.43 L1254.9 1472.92 L1269.28 1451.02 Z" fill="#000000" fill-rule="evenodd" fill-opacity="1" /><path clip-path="url(#clip100)" d="M1297.82 1454.1 Q1294.21 1454.1 1292.38 1457.66 Q1290.57 1461.2 1290.57 1468.33 Q1290.57 1475.44 1292.38 1479.01 Q1294.21 1482.55 1297.82 1482.55 Q1301.45 1482.55 1303.26 1479.01 Q1305.09 1475.44 1305.09 1468.33 Q1305.09 1461.2 1303.26 1457.66 Q1301.45 1454.1 1297.82 1454.1 M1297.82 1450.39 Q1303.63 1450.39 1306.69 1455 Q1309.76 1459.58 1309.76 1468.33 Q1309.76 1477.06 1306.69 1481.67 Q1303.63 1486.25 1297.82 1486.25 Q1292.01 1486.25 1288.93 1481.67 Q1285.88 1477.06 1285.88 1468.33 Q1285.88 1459.58 1288.93 1455 Q1292.01 1450.39 1297.82 1450.39 Z" fill="#000000" fill-rule="evenodd" fill-opacity="1" /><path clip-path="url(#clip100)" d="M1327.98 1454.1 Q1324.37 1454.1 1322.54 1457.66 Q1320.74 1461.2 1320.74 1468.33 Q1320.74 1475.44 1322.54 1479.01 Q1324.37 1482.55 1327.98 1482.55 Q1331.62 1482.55 1333.42 1479.01 Q1335.25 1475.44 1335.25 1468.33 Q1335.25 1461.2 1333.42 1457.66 Q1331.62 1454.1 1327.98 1454.1 M1327.98 1450.39 Q1333.79 1450.39 1336.85 1455 Q1339.93 1459.58 1339.93 1468.33 Q1339.93 1477.06 1336.85 1481.67 Q1333.79 1486.25 1327.98 1486.25 Q1322.17 1486.25 1319.09 1481.67 Q1316.04 1477.06 1316.04 1468.33 Q1316.04 1459.58 1319.09 1455 Q1322.17 1450.39 1327.98 1450.39 Z" fill="#000000" fill-rule="evenodd" fill-opacity="1" /><path clip-path="url(#clip100)" d="M1765.65 1466.44 Q1762.5 1466.44 1760.65 1468.59 Q1758.82 1470.74 1758.82 1474.49 Q1758.82 1478.22 1760.65 1480.39 Q1762.5 1482.55 1765.65 1482.55 Q1768.8 1482.55 1770.62 1480.39 Q1772.48 1478.22 1772.48 1474.49 Q1772.48 1470.74 1770.62 1468.59 Q1768.8 1466.44 1765.65 1466.44 M1774.93 1451.78 L1774.93 1456.04 Q1773.17 1455.21 1771.36 1454.77 Q1769.58 1454.33 1767.82 1454.33 Q1763.19 1454.33 1760.74 1457.45 Q1758.31 1460.58 1757.96 1466.9 Q1759.33 1464.89 1761.39 1463.82 Q1763.45 1462.73 1765.92 1462.73 Q1771.13 1462.73 1774.14 1465.9 Q1777.17 1469.05 1777.17 1474.49 Q1777.17 1479.82 1774.03 1483.03 Q1770.88 1486.25 1765.65 1486.25 Q1759.65 1486.25 1756.48 1481.67 Q1753.31 1477.06 1753.31 1468.33 Q1753.31 1460.14 1757.2 1455.28 Q1761.09 1450.39 1767.64 1450.39 Q1769.4 1450.39 1771.18 1450.74 Q1772.98 1451.09 1774.93 1451.78 Z" fill="#000000" fill-rule="evenodd" fill-opacity="1" /><path clip-path="url(#clip100)" d="M1795.23 1454.1 Q1791.62 1454.1 1789.79 1457.66 Q1787.98 1461.2 1787.98 1468.33 Q1787.98 1475.44 1789.79 1479.01 Q1791.62 1482.55 1795.23 1482.55 Q1798.86 1482.55 1800.67 1479.01 Q1802.5 1475.44 1802.5 1468.33 Q1802.5 1461.2 1800.67 1457.66 Q1798.86 1454.1 1795.23 1454.1 M1795.23 1450.39 Q1801.04 1450.39 1804.1 1455 Q1807.17 1459.58 1807.17 1468.33 Q1807.17 1477.06 1804.1 1481.67 Q1801.04 1486.25 1795.23 1486.25 Q1789.42 1486.25 1786.34 1481.67 Q1783.29 1477.06 1783.29 1468.33 Q1783.29 1459.58 1786.34 1455 Q1789.42 1450.39 1795.23 1450.39 Z" fill="#000000" fill-rule="evenodd" fill-opacity="1" /><path clip-path="url(#clip100)" d="M1825.39 1454.1 Q1821.78 1454.1 1819.95 1457.66 Q1818.15 1461.2 1818.15 1468.33 Q1818.15 1475.44 1819.95 1479.01 Q1821.78 1482.55 1825.39 1482.55 Q1829.03 1482.55 1830.83 1479.01 Q1832.66 1475.44 1832.66 1468.33 Q1832.66 1461.2 1830.83 1457.66 Q1829.03 1454.1 1825.39 1454.1 M1825.39 1450.39 Q1831.2 1450.39 1834.26 1455 Q1837.34 1459.58 1837.34 1468.33 Q1837.34 1477.06 1834.26 1481.67 Q1831.2 1486.25 1825.39 1486.25 Q1819.58 1486.25 1816.5 1481.67 Q1813.45 1477.06 1813.45 1468.33 Q1813.45 1459.58 1816.5 1455 Q1819.58 1450.39 1825.39 1450.39 Z" fill="#000000" fill-rule="evenodd" fill-opacity="1" /><path clip-path="url(#clip100)" d="M2263.02 1469.17 Q2259.69 1469.17 2257.77 1470.95 Q2255.87 1472.73 2255.87 1475.86 Q2255.87 1478.98 2257.77 1480.77 Q2259.69 1482.55 2263.02 1482.55 Q2266.36 1482.55 2268.28 1480.77 Q2270.2 1478.96 2270.2 1475.86 Q2270.2 1472.73 2268.28 1470.95 Q2266.38 1469.17 2263.02 1469.17 M2258.35 1467.18 Q2255.34 1466.44 2253.65 1464.38 Q2251.98 1462.32 2251.98 1459.35 Q2251.98 1455.21 2254.92 1452.8 Q2257.88 1450.39 2263.02 1450.39 Q2268.18 1450.39 2271.12 1452.8 Q2274.06 1455.21 2274.06 1459.35 Q2274.06 1462.32 2272.37 1464.38 Q2270.71 1466.44 2267.72 1467.18 Q2271.1 1467.96 2272.98 1470.26 Q2274.87 1472.55 2274.87 1475.86 Q2274.87 1480.88 2271.8 1483.57 Q2268.74 1486.25 2263.02 1486.25 Q2257.31 1486.25 2254.23 1483.57 Q2251.17 1480.88 2251.17 1475.86 Q2251.17 1472.55 2253.07 1470.26 Q2254.97 1467.96 2258.35 1467.18 M2256.63 1459.79 Q2256.63 1462.48 2258.3 1463.98 Q2259.99 1465.49 2263.02 1465.49 Q2266.03 1465.49 2267.72 1463.98 Q2269.43 1462.48 2269.43 1459.79 Q2269.43 1457.11 2267.72 1455.6 Q2266.03 1454.1 2263.02 1454.1 Q2259.99 1454.1 2258.3 1455.6 Q2256.63 1457.11 2256.63 1459.79 Z" fill="#000000" fill-rule="evenodd" fill-opacity="1" /><path clip-path="url(#clip100)" d="M2293.18 1454.1 Q2289.57 1454.1 2287.74 1457.66 Q2285.94 1461.2 2285.94 1468.33 Q2285.94 1475.44 2287.74 1479.01 Q2289.57 1482.55 2293.18 1482.55 Q2296.82 1482.55 2298.62 1479.01 Q2300.45 1475.44 2300.45 1468.33 Q2300.45 1461.2 2298.62 1457.66 Q2296.82 1454.1 2293.18 1454.1 M2293.18 1450.39 Q2298.99 1450.39 2302.05 1455 Q2305.13 1459.58 2305.13 1468.33 Q2305.13 1477.06 2302.05 1481.67 Q2298.99 1486.25 2293.18 1486.25 Q2287.37 1486.25 2284.3 1481.67 Q2281.24 1477.06 2281.24 1468.33 Q2281.24 1459.58 2284.3 1455 Q2287.37 1450.39 2293.18 1450.39 Z" fill="#000000" fill-rule="evenodd" fill-opacity="1" /><path clip-path="url(#clip100)" d="M2323.35 1454.1 Q2319.74 1454.1 2317.91 1457.66 Q2316.1 1461.2 2316.1 1468.33 Q2316.1 1475.44 2317.91 1479.01 Q2319.74 1482.55 2323.35 1482.55 Q2326.98 1482.55 2328.79 1479.01 Q2330.62 1475.44 2330.62 1468.33 Q2330.62 1461.2 2328.79 1457.66 Q2326.98 1454.1 2323.35 1454.1 M2323.35 1450.39 Q2329.16 1450.39 2332.21 1455 Q2335.29 1459.58 2335.29 1468.33 Q2335.29 1477.06 2332.21 1481.67 Q2329.16 1486.25 2323.35 1486.25 Q2317.54 1486.25 2314.46 1481.67 Q2311.4 1477.06 2311.4 1468.33 Q2311.4 1459.58 2314.46 1455 Q2317.54 1450.39 2323.35 1450.39 Z" fill="#000000" fill-rule="evenodd" fill-opacity="1" /><path clip-path="url(#clip100)" d="M1316.08 1546.53 L1316.08 1568.04 L1310.22 1568.04 L1310.22 1546.72 Q1310.22 1541.66 1308.25 1539.14 Q1306.27 1536.63 1302.33 1536.63 Q1297.58 1536.63 1294.85 1539.65 Q1292.11 1542.68 1292.11 1547.9 L1292.11 1568.04 L1286.22 1568.04 L1286.22 1532.4 L1292.11 1532.4 L1292.11 1537.93 Q1294.21 1534.72 1297.04 1533.13 Q1299.91 1531.54 1303.63 1531.54 Q1309.77 1531.54 1312.93 1535.36 Q1316.08 1539.14 1316.08 1546.53 Z" fill="#000000" fill-rule="evenodd" fill-opacity="1" /><polyline clip-path="url(#clip102)" style="stroke:#000000; stroke-linecap:butt; stroke-linejoin:round; stroke-width:2; stroke-opacity:0.1; fill:none" points="
  249.542,1384.24 2352.76,1384.24 
  "/>
<polyline clip-path="url(#clip102)" style="stroke:#000000; stroke-linecap:butt; stroke-linejoin:round; stroke-width:2; stroke-opacity:0.1; fill:none" points="
  249.542,1055.62 2352.76,1055.62 
  "/>
<polyline clip-path="url(#clip102)" style="stroke:#000000; stroke-linecap:butt; stroke-linejoin:round; stroke-width:2; stroke-opacity:0.1; fill:none" points="
  249.542,726.996 2352.76,726.996 
  "/>
<polyline clip-path="url(#clip102)" style="stroke:#000000; stroke-linecap:butt; stroke-linejoin:round; stroke-width:2; stroke-opacity:0.1; fill:none" points="
  249.542,398.376 2352.76,398.376 
  "/>
<polyline clip-path="url(#clip102)" style="stroke:#000000; stroke-linecap:butt; stroke-linejoin:round; stroke-width:2; stroke-opacity:0.1; fill:none" points="
  249.542,69.7546 2352.76,69.7546 
  "/>
<polyline clip-path="url(#clip100)" style="stroke:#000000; stroke-linecap:butt; stroke-linejoin:round; stroke-width:4; stroke-opacity:1; fill:none" points="
  249.542,1423.18 249.542,47.2441 
  "/>
<polyline clip-path="url(#clip100)" style="stroke:#000000; stroke-linecap:butt; stroke-linejoin:round; stroke-width:4; stroke-opacity:1; fill:none" points="
  249.542,1384.24 268.44,1384.24 
  "/>
<polyline clip-path="url(#clip100)" style="stroke:#000000; stroke-linecap:butt; stroke-linejoin:round; stroke-width:4; stroke-opacity:1; fill:none" points="
  249.542,1055.62 268.44,1055.62 
  "/>
<polyline clip-path="url(#clip100)" style="stroke:#000000; stroke-linecap:butt; stroke-linejoin:round; stroke-width:4; stroke-opacity:1; fill:none" points="
  249.542,726.996 268.44,726.996 
  "/>
<polyline clip-path="url(#clip100)" style="stroke:#000000; stroke-linecap:butt; stroke-linejoin:round; stroke-width:4; stroke-opacity:1; fill:none" points="
  249.542,398.376 268.44,398.376 
  "/>
<polyline clip-path="url(#clip100)" style="stroke:#000000; stroke-linecap:butt; stroke-linejoin:round; stroke-width:4; stroke-opacity:1; fill:none" points="
  249.542,69.7546 268.44,69.7546 
  "/>
<path clip-path="url(#clip100)" d="M126.205 1370.04 Q122.593 1370.04 120.765 1373.6 Q118.959 1377.14 118.959 1384.27 Q118.959 1391.38 120.765 1394.94 Q122.593 1398.49 126.205 1398.49 Q129.839 1398.49 131.644 1394.94 Q133.473 1391.38 133.473 1384.27 Q133.473 1377.14 131.644 1373.6 Q129.839 1370.04 126.205 1370.04 M126.205 1366.33 Q132.015 1366.33 135.07 1370.94 Q138.149 1375.52 138.149 1384.27 Q138.149 1393 135.07 1397.61 Q132.015 1402.19 126.205 1402.19 Q120.394 1402.19 117.316 1397.61 Q114.26 1393 114.26 1384.27 Q114.26 1375.52 117.316 1370.94 Q120.394 1366.33 126.205 1366.33 Z" fill="#000000" fill-rule="evenodd" fill-opacity="1" /><path clip-path="url(#clip100)" d="M146.366 1395.64 L151.251 1395.64 L151.251 1401.52 L146.366 1401.52 L146.366 1395.64 Z" fill="#000000" fill-rule="evenodd" fill-opacity="1" /><path clip-path="url(#clip100)" d="M171.436 1370.04 Q167.825 1370.04 165.996 1373.6 Q164.19 1377.14 164.19 1384.27 Q164.19 1391.38 165.996 1394.94 Q167.825 1398.49 171.436 1398.49 Q175.07 1398.49 176.876 1394.94 Q178.704 1391.38 178.704 1384.27 Q178.704 1377.14 176.876 1373.6 Q175.07 1370.04 171.436 1370.04 M171.436 1366.33 Q177.246 1366.33 180.301 1370.94 Q183.38 1375.52 183.38 1384.27 Q183.38 1393 180.301 1397.61 Q177.246 1402.19 171.436 1402.19 Q165.626 1402.19 162.547 1397.61 Q159.491 1393 159.491 1384.27 Q159.491 1375.52 162.547 1370.94 Q165.626 1366.33 171.436 1366.33 Z" fill="#000000" fill-rule="evenodd" fill-opacity="1" /><path clip-path="url(#clip100)" d="M201.598 1370.04 Q197.987 1370.04 196.158 1373.6 Q194.352 1377.14 194.352 1384.27 Q194.352 1391.38 196.158 1394.94 Q197.987 1398.49 201.598 1398.49 Q205.232 1398.49 207.037 1394.94 Q208.866 1391.38 208.866 1384.27 Q208.866 1377.14 207.037 1373.6 Q205.232 1370.04 201.598 1370.04 M201.598 1366.33 Q207.408 1366.33 210.463 1370.94 Q213.542 1375.52 213.542 1384.27 Q213.542 1393 210.463 1397.61 Q207.408 1402.19 201.598 1402.19 Q195.787 1402.19 192.709 1397.61 Q189.653 1393 189.653 1384.27 Q189.653 1375.52 192.709 1370.94 Q195.787 1366.33 201.598 1366.33 Z" fill="#000000" fill-rule="evenodd" fill-opacity="1" /><path clip-path="url(#clip100)" d="M127.2 1041.42 Q123.589 1041.42 121.76 1044.98 Q119.955 1048.52 119.955 1055.65 Q119.955 1062.76 121.76 1066.32 Q123.589 1069.86 127.2 1069.86 Q130.834 1069.86 132.64 1066.32 Q134.468 1062.76 134.468 1055.65 Q134.468 1048.52 132.64 1044.98 Q130.834 1041.42 127.2 1041.42 M127.2 1037.71 Q133.01 1037.71 136.066 1042.32 Q139.144 1046.9 139.144 1055.65 Q139.144 1064.38 136.066 1068.99 Q133.01 1073.57 127.2 1073.57 Q121.39 1073.57 118.311 1068.99 Q115.256 1064.38 115.256 1055.65 Q115.256 1046.9 118.311 1042.32 Q121.39 1037.71 127.2 1037.71 Z" fill="#000000" fill-rule="evenodd" fill-opacity="1" /><path clip-path="url(#clip100)" d="M147.362 1067.02 L152.246 1067.02 L152.246 1072.9 L147.362 1072.9 L147.362 1067.02 Z" fill="#000000" fill-rule="evenodd" fill-opacity="1" /><path clip-path="url(#clip100)" d="M166.459 1068.96 L182.778 1068.96 L182.778 1072.9 L160.834 1072.9 L160.834 1068.96 Q163.496 1066.21 168.079 1061.58 Q172.686 1056.93 173.866 1055.58 Q176.112 1053.06 176.991 1051.32 Q177.894 1049.56 177.894 1047.87 Q177.894 1045.12 175.95 1043.38 Q174.028 1041.65 170.927 1041.65 Q168.727 1041.65 166.274 1042.41 Q163.843 1043.18 161.065 1044.73 L161.065 1040 Q163.89 1038.87 166.343 1038.29 Q168.797 1037.71 170.834 1037.71 Q176.204 1037.71 179.399 1040.4 Q182.593 1043.08 182.593 1047.57 Q182.593 1049.7 181.783 1051.62 Q180.996 1053.52 178.889 1056.12 Q178.311 1056.79 175.209 1060 Q172.107 1063.2 166.459 1068.96 Z" fill="#000000" fill-rule="evenodd" fill-opacity="1" /><path clip-path="url(#clip100)" d="M192.639 1038.34 L210.996 1038.34 L210.996 1042.27 L196.922 1042.27 L196.922 1050.74 Q197.94 1050.4 198.959 1050.24 Q199.977 1050.05 200.996 1050.05 Q206.783 1050.05 210.162 1053.22 Q213.542 1056.39 213.542 1061.81 Q213.542 1067.39 210.07 1070.49 Q206.598 1073.57 200.278 1073.57 Q198.102 1073.57 195.834 1073.2 Q193.588 1072.83 191.181 1072.09 L191.181 1067.39 Q193.264 1068.52 195.487 1069.08 Q197.709 1069.63 200.186 1069.63 Q204.19 1069.63 206.528 1067.53 Q208.866 1065.42 208.866 1061.81 Q208.866 1058.2 206.528 1056.09 Q204.19 1053.99 200.186 1053.99 Q198.311 1053.99 196.436 1054.4 Q194.584 1054.82 192.639 1055.7 L192.639 1038.34 Z" fill="#000000" fill-rule="evenodd" fill-opacity="1" /><path clip-path="url(#clip100)" d="M126.205 712.795 Q122.593 712.795 120.765 716.36 Q118.959 719.902 118.959 727.031 Q118.959 734.138 120.765 737.702 Q122.593 741.244 126.205 741.244 Q129.839 741.244 131.644 737.702 Q133.473 734.138 133.473 727.031 Q133.473 719.902 131.644 716.36 Q129.839 712.795 126.205 712.795 M126.205 709.091 Q132.015 709.091 135.07 713.698 Q138.149 718.281 138.149 727.031 Q138.149 735.758 135.07 740.364 Q132.015 744.948 126.205 744.948 Q120.394 744.948 117.316 740.364 Q114.26 735.758 114.26 727.031 Q114.26 718.281 117.316 713.698 Q120.394 709.091 126.205 709.091 Z" fill="#000000" fill-rule="evenodd" fill-opacity="1" /><path clip-path="url(#clip100)" d="M146.366 738.397 L151.251 738.397 L151.251 744.276 L146.366 744.276 L146.366 738.397 Z" fill="#000000" fill-rule="evenodd" fill-opacity="1" /><path clip-path="url(#clip100)" d="M161.482 709.716 L179.839 709.716 L179.839 713.652 L165.765 713.652 L165.765 722.124 Q166.783 721.777 167.802 721.615 Q168.82 721.429 169.839 721.429 Q175.626 721.429 179.005 724.601 Q182.385 727.772 182.385 733.189 Q182.385 738.767 178.913 741.869 Q175.44 744.948 169.121 744.948 Q166.945 744.948 164.677 744.577 Q162.431 744.207 160.024 743.466 L160.024 738.767 Q162.107 739.901 164.329 740.457 Q166.552 741.013 169.028 741.013 Q173.033 741.013 175.371 738.906 Q177.709 736.8 177.709 733.189 Q177.709 729.577 175.371 727.471 Q173.033 725.365 169.028 725.365 Q167.153 725.365 165.278 725.781 Q163.427 726.198 161.482 727.077 L161.482 709.716 Z" fill="#000000" fill-rule="evenodd" fill-opacity="1" /><path clip-path="url(#clip100)" d="M201.598 712.795 Q197.987 712.795 196.158 716.36 Q194.352 719.902 194.352 727.031 Q194.352 734.138 196.158 737.702 Q197.987 741.244 201.598 741.244 Q205.232 741.244 207.037 737.702 Q208.866 734.138 208.866 727.031 Q208.866 719.902 207.037 716.36 Q205.232 712.795 201.598 712.795 M201.598 709.091 Q207.408 709.091 210.463 713.698 Q213.542 718.281 213.542 727.031 Q213.542 735.758 210.463 740.364 Q207.408 744.948 201.598 744.948 Q195.787 744.948 192.709 740.364 Q189.653 735.758 189.653 727.031 Q189.653 718.281 192.709 713.698 Q195.787 709.091 201.598 709.091 Z" fill="#000000" fill-rule="evenodd" fill-opacity="1" /><path clip-path="url(#clip100)" d="M127.2 384.174 Q123.589 384.174 121.76 387.739 Q119.955 391.281 119.955 398.41 Q119.955 405.517 121.76 409.081 Q123.589 412.623 127.2 412.623 Q130.834 412.623 132.64 409.081 Q134.468 405.517 134.468 398.41 Q134.468 391.281 132.64 387.739 Q130.834 384.174 127.2 384.174 M127.2 380.471 Q133.01 380.471 136.066 385.077 Q139.144 389.66 139.144 398.41 Q139.144 407.137 136.066 411.744 Q133.01 416.327 127.2 416.327 Q121.39 416.327 118.311 411.744 Q115.256 407.137 115.256 398.41 Q115.256 389.66 118.311 385.077 Q121.39 380.471 127.2 380.471 Z" fill="#000000" fill-rule="evenodd" fill-opacity="1" /><path clip-path="url(#clip100)" d="M147.362 409.776 L152.246 409.776 L152.246 415.656 L147.362 415.656 L147.362 409.776 Z" fill="#000000" fill-rule="evenodd" fill-opacity="1" /><path clip-path="url(#clip100)" d="M161.251 381.096 L183.473 381.096 L183.473 383.086 L170.927 415.656 L166.042 415.656 L177.848 385.031 L161.251 385.031 L161.251 381.096 Z" fill="#000000" fill-rule="evenodd" fill-opacity="1" /><path clip-path="url(#clip100)" d="M192.639 381.096 L210.996 381.096 L210.996 385.031 L196.922 385.031 L196.922 393.503 Q197.94 393.156 198.959 392.994 Q199.977 392.808 200.996 392.808 Q206.783 392.808 210.162 395.98 Q213.542 399.151 213.542 404.568 Q213.542 410.146 210.07 413.248 Q206.598 416.327 200.278 416.327 Q198.102 416.327 195.834 415.956 Q193.588 415.586 191.181 414.845 L191.181 410.146 Q193.264 411.281 195.487 411.836 Q197.709 412.392 200.186 412.392 Q204.19 412.392 206.528 410.285 Q208.866 408.179 208.866 404.568 Q208.866 400.957 206.528 398.85 Q204.19 396.744 200.186 396.744 Q198.311 396.744 196.436 397.16 Q194.584 397.577 192.639 398.457 L192.639 381.096 Z" fill="#000000" fill-rule="evenodd" fill-opacity="1" /><path clip-path="url(#clip100)" d="M117.015 83.0995 L124.654 83.0995 L124.654 56.7339 L116.343 58.4005 L116.343 54.1413 L124.607 52.4746 L129.283 52.4746 L129.283 83.0995 L136.922 83.0995 L136.922 87.0346 L117.015 87.0346 L117.015 83.0995 Z" fill="#000000" fill-rule="evenodd" fill-opacity="1" /><path clip-path="url(#clip100)" d="M146.366 81.155 L151.251 81.155 L151.251 87.0346 L146.366 87.0346 L146.366 81.155 Z" fill="#000000" fill-rule="evenodd" fill-opacity="1" /><path clip-path="url(#clip100)" d="M171.436 55.5533 Q167.825 55.5533 165.996 59.1181 Q164.19 62.6598 164.19 69.7893 Q164.19 76.8958 165.996 80.4606 Q167.825 84.0022 171.436 84.0022 Q175.07 84.0022 176.876 80.4606 Q178.704 76.8958 178.704 69.7893 Q178.704 62.6598 176.876 59.1181 Q175.07 55.5533 171.436 55.5533 M171.436 51.8496 Q177.246 51.8496 180.301 56.4561 Q183.38 61.0394 183.38 69.7893 Q183.38 78.5162 180.301 83.1226 Q177.246 87.7059 171.436 87.7059 Q165.626 87.7059 162.547 83.1226 Q159.491 78.5162 159.491 69.7893 Q159.491 61.0394 162.547 56.4561 Q165.626 51.8496 171.436 51.8496 Z" fill="#000000" fill-rule="evenodd" fill-opacity="1" /><path clip-path="url(#clip100)" d="M201.598 55.5533 Q197.987 55.5533 196.158 59.1181 Q194.352 62.6598 194.352 69.7893 Q194.352 76.8958 196.158 80.4606 Q197.987 84.0022 201.598 84.0022 Q205.232 84.0022 207.037 80.4606 Q208.866 76.8958 208.866 69.7893 Q208.866 62.6598 207.037 59.1181 Q205.232 55.5533 201.598 55.5533 M201.598 51.8496 Q207.408 51.8496 210.463 56.4561 Q213.542 61.0394 213.542 69.7893 Q213.542 78.5162 210.463 83.1226 Q207.408 87.7059 201.598 87.7059 Q195.787 87.7059 192.709 83.1226 Q189.653 78.5162 189.653 69.7893 Q189.653 61.0394 192.709 56.4561 Q195.787 51.8496 201.598 51.8496 Z" fill="#000000" fill-rule="evenodd" fill-opacity="1" /><path clip-path="url(#clip100)" d="M33.8307 784.737 Q33.2578 785.724 33.0032 786.902 Q32.7167 788.047 32.7167 789.448 Q32.7167 794.413 35.9632 797.087 Q39.1779 799.728 45.2253 799.728 L64.0042 799.728 L64.0042 805.617 L28.3562 805.617 L28.3562 799.728 L33.8944 799.728 Q30.6479 797.882 29.0883 794.922 Q27.4968 791.962 27.4968 787.729 Q27.4968 787.124 27.5923 786.392 Q27.656 785.66 27.8151 784.769 L33.8307 784.737 Z" fill="#000000" fill-rule="evenodd" fill-opacity="1" /><path clip-path="url(#clip100)" d="M46.0847 762.394 Q46.0847 769.491 47.7079 772.229 Q49.3312 774.966 53.2461 774.966 Q56.3653 774.966 58.2114 772.929 Q60.0256 770.86 60.0256 767.327 Q60.0256 762.457 56.5881 759.529 Q53.1188 756.569 47.3897 756.569 L46.0847 756.569 L46.0847 762.394 M43.6657 750.712 L64.0042 750.712 L64.0042 756.569 L58.5933 756.569 Q61.8398 758.574 63.3994 761.566 Q64.9272 764.558 64.9272 768.887 Q64.9272 774.361 61.8716 777.608 Q58.7843 780.822 53.6281 780.822 Q47.6125 780.822 44.5569 776.812 Q41.5014 772.77 41.5014 764.781 L41.5014 756.569 L40.9285 756.569 Q36.8862 756.569 34.6901 759.243 Q32.4621 761.884 32.4621 766.69 Q32.4621 769.746 33.1941 772.642 Q33.9262 775.539 35.3903 778.212 L29.9795 778.212 Q28.7381 774.998 28.1334 771.974 Q27.4968 768.95 27.4968 766.086 Q27.4968 758.351 31.5072 754.532 Q35.5176 750.712 43.6657 750.712 Z" fill="#000000" fill-rule="evenodd" fill-opacity="1" /><path clip-path="url(#clip100)" d="M18.2347 732.857 L28.3562 732.857 L28.3562 720.794 L32.9077 720.794 L32.9077 732.857 L52.2594 732.857 Q56.6199 732.857 57.8613 731.679 Q59.1026 730.47 59.1026 726.809 L59.1026 720.794 L64.0042 720.794 L64.0042 726.809 Q64.0042 733.589 61.4897 736.167 Q58.9434 738.745 52.2594 738.745 L32.9077 738.745 L32.9077 743.042 L28.3562 743.042 L28.3562 738.745 L18.2347 738.745 L18.2347 732.857 Z" fill="#000000" fill-rule="evenodd" fill-opacity="1" /><path clip-path="url(#clip100)" d="M28.3562 713.091 L28.3562 707.235 L64.0042 707.235 L64.0042 713.091 L28.3562 713.091 M14.479 713.091 L14.479 707.235 L21.895 707.235 L21.895 713.091 L14.479 713.091 Z" fill="#000000" fill-rule="evenodd" fill-opacity="1" /><path clip-path="url(#clip100)" d="M32.4621 681.167 Q32.4621 685.878 36.1542 688.615 Q39.8145 691.352 46.212 691.352 Q52.6095 691.352 56.3017 688.647 Q59.9619 685.91 59.9619 681.167 Q59.9619 676.488 56.2698 673.751 Q52.5777 671.014 46.212 671.014 Q39.8781 671.014 36.186 673.751 Q32.4621 676.488 32.4621 681.167 M27.4968 681.167 Q27.4968 673.528 32.4621 669.168 Q37.4273 664.807 46.212 664.807 Q54.9649 664.807 59.9619 669.168 Q64.9272 673.528 64.9272 681.167 Q64.9272 688.838 59.9619 693.198 Q54.9649 697.527 46.212 697.527 Q37.4273 697.527 32.4621 693.198 Q27.4968 688.838 27.4968 681.167 Z" fill="#000000" fill-rule="evenodd" fill-opacity="1" /><polyline clip-path="url(#clip102)" style="stroke:#009af9; stroke-linecap:butt; stroke-linejoin:round; stroke-width:4; stroke-opacity:1; fill:none" points="
  309.067,1384.24 309.672,1384.24 310.278,1384.24 310.884,1384.24 311.489,1384.24 312.095,1384.24 312.7,1384.24 313.003,1384.24 313.306,1384.24 313.457,1384.24 
  313.608,1384.24 313.76,1384.24 313.911,1384.24 314.063,1121.69 314.214,1124.84 314.365,1127.92 314.517,1130.92 314.819,1136.72 315.122,1142.26 315.274,1144.94 
  315.425,1147.56 315.576,1150.12 315.728,1152.63 315.879,1384.24 316.031,1384.24 316.182,1384.24 316.333,1384.24 316.485,1384.24 316.636,1166.62 316.787,1168.79 
  316.939,1170.92 317.242,1175.05 317.544,1179.02 318.15,1186.53 318.755,1193.5 319.361,1200.01 319.967,1206.08 320.269,1208.97 320.572,1211.76 320.875,1214.47 
  321.178,1217.1 321.329,1218.38 321.48,1219.64 321.632,894.187 321.783,897.863 321.934,901.483 322.086,905.05 322.237,908.565 322.389,912.029 322.54,915.442 
  322.691,918.807 322.843,922.123 322.994,925.393 323.146,928.616 323.297,1233.42 323.448,1234.47 323.6,1235.5 323.751,1236.52 323.902,1237.52 324.054,801.315 
  324.205,805.218 324.357,809.07 324.508,812.87 324.659,816.621 324.811,820.323 324.962,823.977 325.114,827.583 325.265,831.144 325.416,834.659 325.568,838.13 
  325.719,1248.57 325.87,1114.59 326.022,1116.26 326.173,1117.91 326.325,987.195 326.476,989.611 326.627,861.252 326.779,864.396 326.93,867.502 327.081,870.572 
  327.233,873.605 327.536,879.566 327.838,885.389 327.99,888.25 328.141,891.079 328.293,1261.65 328.444,1018.54 329.844,920.805 331.243,942.687 332.643,540.953 
  334.043,779.06 335.443,804.09 336.842,641.428 338.242,937.716 339.642,696.089 341.042,886.442 342.441,823.38 343.841,841.964 345.241,709.39 346.641,512.403 
  348.04,538.68 349.44,495.018 350.84,852.581 352.24,544.175 353.639,566.77 355.039,771.887 356.439,608.5 357.839,627.807 359.238,532.629 360.638,608.247 
  362.038,680.363 363.438,643.376 364.837,401.038 366.237,675.463 367.637,640.933 369.037,413.735 370.436,433.469 371.836,452.417 373.236,424.943 374.636,443.328 
  376.035,373.096 377.435,305.456 378.835,367.376 380.235,385.476 381.635,443.831 383.034,580.549 384.434,436.107 385.834,529.561 387.234,428.889 388.633,632.25 
  390.033,385.123 391.433,546.401 392.833,559.256 394.232,465.741 395.632,549.016 397.032,321.233 398.432,471.778 399.831,418.153 401.231,431.726 402.631,444.923 
  404.031,393.863 405.43,501.765 406.83,326.918 408.23,494.244 409.63,354.317 411.029,397.395 412.429,380.332 413.829,392.853 415.229,405.065 416.628,388.531 
  418.028,428.609 419.428,301.097 420.828,423.6 422.227,244.849 423.627,284.736 425.027,297.205 426.427,283.178 427.826,425.013 429.226,332.971 430.626,420.463 
  432.026,280.264 433.425,341.634 434.825,328.025 437.625,349.763 440.424,370.624 441.824,380.742 443.224,413.766 444.623,377.503 446.023,296.626 447.423,307.066 
  448.823,317.307 450.222,371.393 451.622,228.152 453.022,346.895 454.422,313.57 455.821,429.383 457.221,269.746 458.621,217.159 460.021,227.47 461.42,237.602 
  462.82,328.748 464.22,217.094 465.62,306.861 467.019,236.847 468.419,266.091 469.819,275.395 471.219,226.667 472.618,350.951 474.018,321.38 475.418,329.939 
  476.818,301.009 478.217,328.122 479.617,281.278 481.017,308.122 482.417,316.453 483.816,270.778 485.216,350.555 486.616,252.251 488.016,313.414 489.415,234.277 
  490.815,311.963 492.215,319.837 493.615,225.34 495.014,250.646 496.414,241.994 497.814,366.887 499.214,258.175 500.613,298.982 502.013,257.576 503.413,281.606 
  504.813,289.201 506.212,264.705 507.612,208.773 508.453,213.553 509.295,218.295 510.136,317.152 510.977,227.663 511.818,232.291 512.659,236.882 513.501,272.323 
  514.342,276.72 515.183,342.368 516.024,224.364 516.865,228.896 517.706,293.964 518.548,268.023 519.389,272.335 520.23,246.677 521.071,221.216 521.912,225.656 
  522.754,318.846 523.595,175.472 524.436,180.035 525.277,286.975 526.118,218.21 526.96,222.562 527.801,270.283 528.642,245.583 529.483,249.786 530.324,325.495 
  531.166,201.081 532.007,205.4 532.848,308.747 533.689,171.646 534.53,176.025 535.372,278.361 536.213,170.74 537.054,175.076 537.895,359.416 538.736,211.254 
  539.577,215.4 540.419,246.922 541.26,182.641 542.101,186.844 542.942,218.136 543.783,181.65 544.625,185.812 545.466,324.136 546.307,194.052 547.148,198.129 
  547.989,334.994 548.831,192.964 549.672,197.003 550.513,266.75 551.354,191.898 552.195,195.9 553.037,225.906 553.878,216.797 554.719,259.462 555.56,211.645 
  556.401,215.516 557.243,321.768 558.084,223.182 558.925,226.978 559.766,218.073 560.607,183.956 561.448,187.842 562.29,267.02 563.131,170.513 563.972,174.404 
  564.813,277.732 565.654,268.864 566.496,272.406 567.337,238.981 568.178,168.941 569.019,172.764 569.86,261.954 570.702,253.301 571.543,256.825 572.384,260.328 
  573.225,179.475 574.066,183.194 574.908,222.811 575.749,166.691 576.59,170.416 577.431,221.573 578.272,213.28 579.114,216.83 579.955,290.896 580.796,270.748 
  581.637,274.093 582.478,289.068 583.319,211.027 584.161,214.519 585.002,206.444 585.843,163.879 586.684,167.479 587.525,296.955 588.367,208.852 589.208,212.29 
  590.049,272.432 590.89,196.482 591.731,199.925 592.573,248.335 593.414,229.181 594.255,232.501 595.096,269.252 595.937,161.259 596.779,164.744 597.62,234.538 
  598.461,182.678 599.302,186.074 600.143,255.218 600.985,247.459 601.826,250.644 602.667,210.334 603.508,246.122 604.349,249.284 605.19,198.533 606.032,212.559 
  606.873,215.788 607.714,240.379 608.555,211.531 609.396,214.736 610.238,207.32 611.079,178.797 611.92,182.065 613.602,178.059 615.285,174.095 615.996,176.833 
  616.707,179.558 617.418,285.889 618.13,143.618 618.841,146.399 619.552,241.798 620.263,172.463 620.975,175.161 621.686,177.848 622.397,241.728 623.108,152.65 
  623.819,155.368 624.531,239.144 625.242,150.658 625.953,153.363 626.664,156.056 627.375,289.324 628.087,211.523 628.798,214.072 629.509,256.529 630.22,159.388 
  630.932,162.034 631.643,164.667 632.354,216.759 633.065,169.901 633.776,172.501 634.488,214.412 635.199,158.049 635.91,160.657 636.621,163.255 637.333,214.577 
  638.044,187.87 638.755,190.394 639.466,202.592 640.177,234.07 640.889,236.481 641.6,238.882 642.311,222.063 643.022,205.315 643.733,207.766 644.445,238.841 
  645.156,184.061 645.867,186.54 646.578,189.01 647.29,191.469 648.001,203.365 648.712,205.784 649.423,245.827 650.134,191.815 650.846,194.244 651.557,196.662 
  652.268,236.399 652.979,220.096 653.691,222.447 654.402,271.167 655.113,208.608 655.824,183.253 656.535,185.66 657.247,243.265 657.958,162.895 658.669,165.328 
  659.38,222.63 660.092,243.191 660.803,199.899 661.514,202.239 662.225,231.793 662.936,225.005 663.648,227.283 664.359,211.509 665.07,177.79 665.781,207.104 
  666.492,209.398 667.204,265.388 667.915,178.226 668.626,180.563 669.337,209.588 670.049,194.092 670.76,187.52 671.471,189.821 672.182,218.605 672.893,159.143 
  673.605,161.485 674.316,207.718 675.027,253.775 675.738,168.458 676.45,170.765 677.161,234.057 677.872,157.958 678.583,160.271 679.294,214.562 680.006,216.76 
  680.717,175.792 681.428,178.054 682.139,214.707 682.85,182.555 683.562,184.792 684.273,229.779 684.984,214.849 685.695,199.975 686.407,202.164 687.118,187.367 
  687.829,164.153 688.54,166.396 689.251,202.397 689.963,221.414 690.674,189.896 691.385,192.075 692.096,194.246 692.808,196.41 693.519,198.565 694.23,209.048 
  694.941,236.131 695.652,196.681 696.364,198.82 697.075,225.776 697.786,170.037 698.497,172.212 699.208,207.302 699.92,217.619 700.631,129.487 701.342,131.72 
  702.053,199.319 702.765,185.105 703.476,187.227 704.187,213.728 704.898,207.678 705.609,161.149 706.321,163.298 707.093,173.695 707.866,151.832 708.638,154.171 
  709.411,212.673 710.184,150.814 710.956,153.142 711.729,235.252 712.501,157.771 713.274,160.073 714.046,209.971 714.819,212.167 715.592,159.022 716.364,161.304 
  717.137,234.455 717.909,197.285 718.682,199.484 719.455,201.675 720.227,164.772 721,167.018 721.772,153.679 722.545,187.034 723.317,189.227 724.09,206.904 
  724.863,154.932 725.635,157.172 726.408,159.404 727.18,238.521 727.953,156.167 728.726,158.389 729.498,183.545 730.271,185.709 731.043,187.865 731.816,212.833 
  732.588,116.225 733.361,118.494 734.134,203.979 734.906,160.769 735.679,162.947 736.451,180.168 737.224,219.864 737.996,169.433 738.769,171.58 739.542,218.553 
  740.314,146.014 741.087,148.191 741.859,202.391 742.632,174.782 743.405,176.897 744.177,171.61 744.95,181.104 745.722,183.197 746.495,185.283 747.267,143.305 
  748.04,145.452 748.813,147.592 749.585,186.249 750.358,144.558 751.13,146.688 751.903,192.415 752.676,187.201 753.448,189.248 754.221,198.518 754.993,157.232 
  755.766,159.32 756.538,204.559 757.311,163.473 758.084,165.539 758.856,189.068 759.629,176.795 760.401,150.298 761.174,152.372 761.947,175.765 762.719,135.21 
  763.492,137.299 764.264,203.038 765.037,162.64 765.809,164.673 766.582,194.851 767.355,161.693 768.127,163.717 768.9,151.73 769.672,132.79 770.445,134.852 
  771.217,136.907 771.99,222.439 772.763,196.562 773.535,198.506 774.308,200.444 775.08,140.172 775.853,142.199 776.626,185.553 777.398,159.988 778.171,161.973 
  778.943,198.229 779.716,145.389 780.488,147.388 781.261,176.67 782.034,192.235 782.806,160.146 783.579,162.108 784.351,218.294 785.124,138.942 785.897,140.928 
  786.669,183.387 787.442,151.618 788.214,153.575 788.987,162.24 789.759,197.692 790.532,199.567 791.305,188.071 792.077,129.908 792.85,131.88 793.622,133.847 
  794.395,188.932 795.168,137.761 795.94,139.709 796.713,201.137 797.485,176.583 798.258,178.462 799.03,186.913 799.803,155.928 800.576,157.829 801.348,192.466 
  802.121,128.925 802.893,130.86 803.666,197.968 804.438,154.235 805.211,123.632 805.923,125.412 806.636,211.423 807.348,174.252 808.06,175.953 809.485,172.899 
  810.909,176.287 812.334,186.063 813.758,176.617 814.47,165.533 815.183,167.223 815.895,168.908 816.607,189.652 817.319,159.574 818.032,161.263 818.744,188.26 
  819.456,145.67 820.168,147.371 820.881,149.068 821.593,188.519 822.305,190.154 823.017,191.786 823.73,180.877 824.442,151.222 825.154,152.899 825.866,154.572 
  826.579,162.474 827.291,157.904 828.003,159.563 833.701,166.528 839.399,161.175 840.111,162.792 840.824,164.406 841.536,208.441 842.248,149.461 842.96,151.086 
  843.673,182.891 844.385,154.322 845.097,155.934 845.809,157.542 846.522,213.193 847.234,148.749 847.946,150.36 848.658,175.894 849.371,135.646 850.083,137.267 
  850.795,138.885 851.507,170.252 852.22,124.277 852.932,125.905 853.644,180.879 854.356,158.749 855.069,160.326 855.781,161.899 856.493,139.878 857.918,131.3 
  859.342,116.898 860.054,118.514 860.767,120.126 861.479,180.184 862.191,164.201 862.903,165.749 863.616,161.471 864.328,139.757 865.04,141.33 865.752,142.899 
  866.465,190.811 867.177,157.598 867.889,159.141 868.601,183.766 869.314,139.158 870.026,140.718 870.738,142.274 872.163,156.846 873.587,165.624 874.3,144.283 
  875.012,145.823 875.724,147.359 876.436,188.742 877.149,133.363 877.861,134.909 878.573,181.826 879.285,171.979 879.998,173.471 880.71,174.961 881.422,153.87 
  882.134,155.38 882.847,156.886 883.559,186.504 884.271,143.037 884.983,144.553 885.696,146.065 886.408,186.743 887.12,132.31 887.832,133.831 888.545,168.801 
  889.257,147.999 889.969,149.496 890.681,150.989 891.394,169.123 892.106,126.255 892.818,127.77 893.53,195.624 894.243,125.269 894.955,126.78 895.667,128.288 
  896.379,162.803 897.143,142.39 897.907,143.98 898.67,167.49 899.434,119.779 900.197,121.392 900.961,204.9 901.725,130.059 902.488,131.653 903.252,182.194 
  904.015,156.557 904.779,163.537 905.543,165.08 906.306,172.031 907.07,130.322 907.833,131.901 908.597,198.171 909.361,151.201 910.124,152.748 910.888,170.405 
  911.652,166.56 912.415,168.082 913.179,169.601 913.942,176.459 914.706,145.939 915.47,147.479 916.233,154.34 916.997,177.136 917.76,178.632 918.524,185.429 
  919.288,133.932 920.051,135.476 920.815,168.725 921.578,159.665 922.342,161.172 923.106,162.674 923.869,158.915 925.396,135.684 926.924,117.801 927.687,119.345 
  928.451,141.768 929.215,117.209 929.978,118.749 930.742,182.702 931.505,163.378 932.269,164.856 933.033,166.331 933.796,183.331 934.56,158.93 935.323,160.406 
  936.087,172.194 936.851,132.44 937.614,133.943 938.378,161.137 939.141,131.805 939.905,133.303 940.669,206.487 941.432,120.945 942.196,122.451 942.959,123.953 
  943.723,150.934 944.487,121.857 945.25,123.355 946.014,135.005 946.778,187.205 947.541,188.62 948.305,169.791 949.068,145.953 949.832,147.411 950.596,153.909 
  951.359,175.5 952.123,121.584 952.886,123.064 953.65,154.653 954.414,151.079 955.177,152.52 955.941,183.964 956.704,135.41 957.468,136.864 958.232,173.2 
  958.995,119.85 959.759,121.317 960.522,152.579 961.286,188.729 962.05,140.562 962.813,141.998 963.577,158.262 964.341,130.048 965.104,131.491 965.868,192.048 
  966.631,109.764 967.395,111.226 968.159,166.689 968.922,119.043 969.686,120.489 970.449,121.932 971.213,162.468 971.977,129.689 972.74,131.117 973.504,152.023 
  974.267,119.367 975.031,120.801 975.795,180.479 976.558,133.357 977.322,134.77 978.086,189.393 978.849,123.092 979.613,124.512 980.376,125.93 981.14,161.053 
  981.904,128.754 982.667,130.162 983.431,189.161 984.194,132.968 984.958,134.366 985.722,159.678 986.485,137.153 987.249,138.542 988.012,130.393 988.776,160.359 
  989.54,161.718 990.303,163.073 991.067,173.918 991.83,165.775 992.594,167.122 993.358,182.657 994.121,127.277 995.006,128.881 995.891,154.047 996.775,155.613 
  997.66,157.175 998.545,154.037 999.43,146.217 1000.31,147.785 1001.2,130.638 1002.08,132.222 1002.97,161.796 1003.85,135.376 1004.74,136.948 1005.62,147.811 
  1006.51,144.721 1007.39,146.275 1008.28,138.563 1009.16,153.995 1010.05,155.532 1010.93,161.678 1011.82,140.162 1012.7,141.71 1013.59,115.676 1014.47,163.156 
  1015.35,169.255 1016.24,129.546 1017.12,131.098 1018.01,169.188 1018.89,129.627 1019.78,131.172 1020.66,169.122 1021.55,125.161 1022.43,126.706 1023.32,146.385 
  1024.2,125.257 1025.09,126.797 1025.97,168.991 1026.86,134.376 1027.74,167.446 1028.63,137.418 1029.51,138.934 1031.28,132.984 1033.05,140.485 1034.82,130.097 
  1036.59,133.116 1037.47,134.62 1038.36,158.329 1039.24,124.309 1040.13,125.818 1041.01,145.027 1041.9,146.508 1042.78,130.324 1043.67,127.409 1044.55,128.906 
  1045.43,161.195 1046.32,118.706 1047.2,120.208 1048.09,152.392 1048.97,136.336 1049.86,137.812 1050.74,152.388 1051.63,127.663 1052.51,129.143 1053.4,139.326 
  1054.28,136.442 1055.17,163.962 1056.05,117.68 1056.94,119.164 1057.82,172.572 1058.71,126.443 1059.59,127.911 1060.48,142.312 1061.36,117.915 1062.24,119.388 
  1063.13,172.424 1064.01,130.908 1064.9,132.361 1065.78,142.375 1066.67,148.088 1067.55,153.788 1068.44,116.801 1069.32,118.261 1070.21,141.007 1071.09,108.414 
  1071.98,109.879 1072.86,153.771 1073.75,133.99 1074.63,135.421 1075.52,162.219 1076.4,129.826 1077.28,131.256 1078.17,124.256 1079.05,146.736 1079.94,148.142 
  1080.82,174.744 1081.71,125.777 1082.59,135.583 1083.48,145.366 1084.36,146.767 1085.25,139.812 1086.13,145.386 1089.67,134.339 1093.21,135.793 1096.75,129.003 
  1100.29,130.467 1102.06,125.062 1103.83,140.077 1104.71,141.448 1105.6,146.886 1106.48,127.917 1107.36,129.296 1108.15,142.692 1108.94,131.741 1109.72,132.959 
  1110.51,150.357 1111.3,123.264 1112.08,124.488 1112.87,162.012 1113.65,126.927 1114.44,128.143 1115.23,161.533 1116.01,114.496 1116.8,115.72 1117.59,132.984 
  1118.37,134.189 1119.16,135.391 1119.94,148.587 1120.73,125.803 1121.52,127.01 1122.3,128.214 1123.09,149.334 1124.66,139.766 1126.23,130.234 1127.02,131.428 
  1127.81,136.581 1128.59,125.896 1129.38,127.091 1130.17,155.931 1130.95,129.475 1131.74,130.663 1132.52,143.664 1133.31,117.295 1134.1,118.491 1134.88,155.03 
  1135.67,120.878 1136.46,122.068 1137.24,123.255 1138.03,175.302 1138.81,133.441 1139.6,134.614 1140.39,143.589 1141.17,129.159 1141.96,130.334 1142.75,143.177 
  1143.53,109.354 1144.32,110.544 1145.1,146.647 1145.89,116.792 1146.68,117.971 1147.46,169.442 1148.25,112.593 1149.04,113.773 1149.82,165.104 1150.61,112.271 
  1151.39,113.448 1152.18,114.623 1152.97,150.389 1153.75,116.965 1154.54,118.134 1155.33,157.631 1156.11,101.315 1156.9,102.495 1157.68,145.72 1158.47,120.123 
  1159.26,121.282 1160.04,149.123 1160.83,115.976 1161.61,117.136 1162.4,144.904 1163.19,111.852 1163.97,113.012 1165.55,111.538 1167.12,113.85 1167.9,137.668 
  1168.69,104.832 1169.48,105.991 1170.26,129.751 1171.05,130.885 1171.84,132.018 1172.62,144.419 1173.41,119.262 1174.19,120.402 1174.98,147.767 1175.77,137.649 
  1176.55,138.769 1177.34,147.361 1178.13,122.336 1178.91,123.467 1179.7,161.864 1180.48,103.382 1181.27,104.527 1182.06,105.67 1182.84,151.372 1183.63,122.79 
  1184.42,123.913 1185.2,150.96 1185.99,115.054 1186.77,116.181 1187.56,176.405 1188.35,118.429 1189.13,119.551 1189.92,150.141 1190.71,107.065 1191.49,108.193 
  1192.28,142.387 1193.06,132.47 1193.85,133.573 1194.64,123.68 1195.42,128.45 1197,130.656 1198.57,140.15 1199.35,141.24 1200.14,164.179 1200.93,96.1089 
  1201.71,97.234 1202.5,145.579 1203.29,113.996 1204.07,115.102 1204.86,137.945 1205.64,102.83 1206.43,103.944 1207.22,130.35 1208,127.827 1208.69,128.782 
  1209.38,129.736 1210.07,137.892 1210.76,113.641 1211.45,114.604 1212.14,126.347 1212.83,102.16 1213.52,103.13 1214.21,104.097 1214.9,144.478 1215.59,120.35 
  1216.28,121.303 1216.97,132.979 1217.65,137.494 1218.34,109.874 1219.03,110.832 1219.72,143.866 1220.41,130.551 1221.1,131.491 1221.79,132.429 1223.17,123.65 
  1224.55,121.987 1225.24,112.301 1225.93,113.249 1226.62,114.197 1227.31,146.958 1228,130.217 1228.69,131.149 1229.38,149.717 1230.07,147.109 1230.75,126.895 
  1231.44,127.827 1232.13,135.792 1232.82,122.659 1233.51,123.593 1234.2,124.525 1234.89,153.506 1235.58,112.369 1236.27,113.308 1236.96,142.233 1237.65,139.652 
  1238.34,123.101 1239.03,124.028 1239.72,159.838 1240.41,118.908 1241.1,119.836 1241.79,120.763 1242.48,142.558 1243.16,139.992 1243.85,140.902 1244.54,145.282 
  1245.23,111.507 1245.92,112.437 1246.61,113.365 1247.3,159.276 1247.99,125.59 1248.68,126.506 1249.37,151.59 1250.06,138.685 1250.75,132.695 1251.44,133.603 
  1252.13,131.067 1252.82,101.013 1253.51,101.943 1254.2,102.871 1254.89,134.693 1255.57,118.444 1256.26,119.358 1256.95,113.42 1257.64,110.914 1260.4,111.163 
  1263.16,118.218 1265.92,111.658 1268.67,115.287 1270.05,106.956 1271.43,108.772 1272.12,119.794 1272.81,113.953 1273.5,114.854 1274.19,135.942 1274.88,146.913 
  1275.57,124.269 1276.26,125.161 1276.95,139.471 1277.64,113.528 1278.33,114.425 1279.02,115.321 1279.71,149.673 1280.4,123.795 1281.08,124.683 1281.77,132.246 
  1282.46,119.781 1283.15,130.671 1283.84,131.551 1284.53,122.441 1285.22,113.345 1287.98,123.534 1290.74,130.357 1291.43,131.23 1292.12,135.406 1292.81,109.863 
  1293.49,110.749 1294.18,134.712 1294.87,128.99 1295.56,106.814 1296.25,107.7 1308.28,116.449 1320.31,115.355 1321.06,116.291 1321.81,123.64 1322.56,114.953 
  1323.31,115.886 1324.07,136.022 1324.82,95.3625 1325.57,96.3087 1326.32,97.2534 1327.07,133.3 1327.82,131.027 1328.58,131.944 1329.33,148.781 1330.08,117.866 
  1330.83,118.791 1331.58,110.183 1332.33,123.811 1335.34,117.98 1338.35,118.496 1339.85,120.329 1341.35,122.157 1342.11,138.794 1342.86,108.265 1343.61,109.185 
  1344.36,154.04 1345.11,126.702 1345.86,127.607 1346.62,131.643 1347.37,101.251 1348.12,102.172 1348.87,115.592 1349.62,141.482 1350.37,123.651 1351.13,124.554 
  1351.88,131.687 1352.63,113.901 1353.38,114.809 1354.13,128.152 1354.88,113.514 1355.64,114.42 1356.39,143.247 1357.14,128.63 1357.89,117.131 1358.64,118.032 
  1359.39,131.307 1360.15,113.648 1360.9,114.549 1361.65,115.449 1362.4,113.264 1365.41,116.856 1368.41,117.361 1380.44,119.351 1392.47,112.297 1440.86,106.006 
  1489.26,111.249 1596.27,117.891 1698.09,107.114 1751.02,99.5688 1803.96,99.0903 1848.52,108.608 1893.07,111.424 2001.88,104.339 2104.16,102.528 2268.01,99.4948 
  2293.23,86.1857 
  "/>
<path clip-path="url(#clip100)" d="
M1466.85 1377.32 L2282.65 1377.32 L2282.65 1273.64 L1466.85 1273.64  Z
  " fill="#ffffff" fill-rule="evenodd" fill-opacity="1"/>
<polyline clip-path="url(#clip100)" style="stroke:#000000; stroke-linecap:butt; stroke-linejoin:round; stroke-width:4; stroke-opacity:1; fill:none" points="
  1466.85,1377.32 2282.65,1377.32 2282.65,1273.64 1466.85,1273.64 1466.85,1377.32 
  "/>
<polyline clip-path="url(#clip100)" style="stroke:#009af9; stroke-linecap:butt; stroke-linejoin:round; stroke-width:4; stroke-opacity:1; fill:none" points="
  1490.22,1325.48 1630.44,1325.48 
  "/>
<path clip-path="url(#clip100)" d="M1674.39 1321.9 L1667.65 1321.9 L1665.71 1329.63 L1672.49 1329.63 L1674.39 1321.9 M1670.91 1308.73 L1668.51 1318.33 L1675.27 1318.33 L1677.7 1308.73 L1681.4 1308.73 L1679.02 1318.33 L1686.24 1318.33 L1686.24 1321.9 L1678.11 1321.9 L1676.21 1329.63 L1683.58 1329.63 L1683.58 1333.17 L1675.31 1333.17 L1672.9 1342.76 L1669.2 1342.76 L1671.59 1333.17 L1664.8 1333.17 L1662.42 1342.76 L1658.69 1342.76 L1661.1 1333.17 L1653.81 1333.17 L1653.81 1329.63 L1661.96 1329.63 L1663.9 1321.9 L1656.45 1321.9 L1656.45 1318.33 L1664.8 1318.33 L1667.16 1308.73 L1670.91 1308.73 Z" fill="#000000" fill-rule="evenodd" fill-opacity="1" /><path clip-path="url(#clip100)" d="M1719.46 1319.82 Q1716.03 1319.82 1714.04 1322.5 Q1712.05 1325.16 1712.05 1329.82 Q1712.05 1334.47 1714.02 1337.15 Q1716.01 1339.82 1719.46 1339.82 Q1722.86 1339.82 1724.85 1337.13 Q1726.84 1334.45 1726.84 1329.82 Q1726.84 1325.21 1724.85 1322.52 Q1722.86 1319.82 1719.46 1319.82 M1719.46 1316.2 Q1725.01 1316.2 1728.18 1319.82 Q1731.35 1323.43 1731.35 1329.82 Q1731.35 1336.18 1728.18 1339.82 Q1725.01 1343.43 1719.46 1343.43 Q1713.88 1343.43 1710.71 1339.82 Q1707.56 1336.18 1707.56 1329.82 Q1707.56 1323.43 1710.71 1319.82 Q1713.88 1316.2 1719.46 1316.2 Z" fill="#000000" fill-rule="evenodd" fill-opacity="1" /><path clip-path="url(#clip100)" d="M1735.36 1316.83 L1739.87 1316.83 L1747.97 1338.59 L1756.08 1316.83 L1760.59 1316.83 L1750.87 1342.76 L1745.08 1342.76 L1735.36 1316.83 Z" fill="#000000" fill-rule="evenodd" fill-opacity="1" /><path clip-path="url(#clip100)" d="M1788.64 1328.73 L1788.64 1330.81 L1769.06 1330.81 Q1769.34 1335.21 1771.7 1337.52 Q1774.08 1339.82 1778.32 1339.82 Q1780.77 1339.82 1783.07 1339.21 Q1785.38 1338.61 1787.65 1337.41 L1787.65 1341.44 Q1785.36 1342.41 1782.95 1342.92 Q1780.54 1343.43 1778.07 1343.43 Q1771.86 1343.43 1768.23 1339.82 Q1764.62 1336.2 1764.62 1330.05 Q1764.62 1323.68 1768.04 1319.95 Q1771.49 1316.2 1777.33 1316.2 Q1782.56 1316.2 1785.59 1319.58 Q1788.64 1322.94 1788.64 1328.73 M1784.39 1327.48 Q1784.34 1323.98 1782.42 1321.9 Q1780.52 1319.82 1777.37 1319.82 Q1773.81 1319.82 1771.65 1321.83 Q1769.52 1323.84 1769.2 1327.5 L1784.39 1327.48 Z" fill="#000000" fill-rule="evenodd" fill-opacity="1" /><path clip-path="url(#clip100)" d="M1810.66 1320.81 Q1809.94 1320.39 1809.08 1320.21 Q1808.25 1320 1807.23 1320 Q1803.62 1320 1801.68 1322.36 Q1799.76 1324.7 1799.76 1329.1 L1799.76 1342.76 L1795.47 1342.76 L1795.47 1316.83 L1799.76 1316.83 L1799.76 1320.86 Q1801.1 1318.5 1803.25 1317.36 Q1805.4 1316.2 1808.48 1316.2 Q1808.92 1316.2 1809.45 1316.27 Q1809.99 1316.32 1810.64 1316.44 L1810.66 1320.81 Z" fill="#000000" fill-rule="evenodd" fill-opacity="1" /><path clip-path="url(#clip100)" d="M1815.13 1306.74 L1819.39 1306.74 L1819.39 1342.76 L1815.13 1342.76 L1815.13 1306.74 Z" fill="#000000" fill-rule="evenodd" fill-opacity="1" /><path clip-path="url(#clip100)" d="M1840.08 1329.72 Q1834.92 1329.72 1832.93 1330.9 Q1830.94 1332.08 1830.94 1334.93 Q1830.94 1337.2 1832.42 1338.54 Q1833.92 1339.86 1836.49 1339.86 Q1840.03 1339.86 1842.16 1337.36 Q1844.32 1334.84 1844.32 1330.67 L1844.32 1329.72 L1840.08 1329.72 M1848.57 1327.96 L1848.57 1342.76 L1844.32 1342.76 L1844.32 1338.82 Q1842.86 1341.18 1840.68 1342.32 Q1838.51 1343.43 1835.36 1343.43 Q1831.38 1343.43 1829.01 1341.2 Q1826.68 1338.96 1826.68 1335.21 Q1826.68 1330.83 1829.59 1328.61 Q1832.53 1326.39 1838.34 1326.39 L1844.32 1326.39 L1844.32 1325.97 Q1844.32 1323.03 1842.37 1321.44 Q1840.45 1319.82 1836.95 1319.82 Q1834.73 1319.82 1832.63 1320.35 Q1830.52 1320.88 1828.57 1321.95 L1828.57 1318.01 Q1830.91 1317.11 1833.11 1316.67 Q1835.31 1316.2 1837.39 1316.2 Q1843.02 1316.2 1845.8 1319.12 Q1848.57 1322.04 1848.57 1327.96 Z" fill="#000000" fill-rule="evenodd" fill-opacity="1" /><path clip-path="url(#clip100)" d="M1861.47 1338.87 L1861.47 1352.62 L1857.19 1352.62 L1857.19 1316.83 L1861.47 1316.83 L1861.47 1320.76 Q1862.81 1318.45 1864.85 1317.34 Q1866.91 1316.2 1869.76 1316.2 Q1874.48 1316.2 1877.42 1319.95 Q1880.38 1323.7 1880.38 1329.82 Q1880.38 1335.93 1877.42 1339.68 Q1874.48 1343.43 1869.76 1343.43 Q1866.91 1343.43 1864.85 1342.32 Q1862.81 1341.18 1861.47 1338.87 M1875.96 1329.82 Q1875.96 1325.12 1874.01 1322.45 Q1872.09 1319.77 1868.71 1319.77 Q1865.33 1319.77 1863.39 1322.45 Q1861.47 1325.12 1861.47 1329.82 Q1861.47 1334.51 1863.39 1337.2 Q1865.33 1339.86 1868.71 1339.86 Q1872.09 1339.86 1874.01 1337.2 Q1875.96 1334.51 1875.96 1329.82 Z" fill="#000000" fill-rule="evenodd" fill-opacity="1" /><path clip-path="url(#clip100)" d="M1891.56 1338.87 L1891.56 1352.62 L1887.28 1352.62 L1887.28 1316.83 L1891.56 1316.83 L1891.56 1320.76 Q1892.9 1318.45 1894.94 1317.34 Q1897 1316.2 1899.85 1316.2 Q1904.57 1316.2 1907.51 1319.95 Q1910.47 1323.7 1910.47 1329.82 Q1910.47 1335.93 1907.51 1339.68 Q1904.57 1343.43 1899.85 1343.43 Q1897 1343.43 1894.94 1342.32 Q1892.9 1341.18 1891.56 1338.87 M1906.05 1329.82 Q1906.05 1325.12 1904.11 1322.45 Q1902.19 1319.77 1898.81 1319.77 Q1895.43 1319.77 1893.48 1322.45 Q1891.56 1325.12 1891.56 1329.82 Q1891.56 1334.51 1893.48 1337.2 Q1895.43 1339.86 1898.81 1339.86 Q1902.19 1339.86 1904.11 1337.2 Q1906.05 1334.51 1906.05 1329.82 Z" fill="#000000" fill-rule="evenodd" fill-opacity="1" /><path clip-path="url(#clip100)" d="M1917.53 1316.83 L1921.79 1316.83 L1921.79 1342.76 L1917.53 1342.76 L1917.53 1316.83 M1917.53 1306.74 L1921.79 1306.74 L1921.79 1312.13 L1917.53 1312.13 L1917.53 1306.74 Z" fill="#000000" fill-rule="evenodd" fill-opacity="1" /><path clip-path="url(#clip100)" d="M1952.25 1327.11 L1952.25 1342.76 L1948 1342.76 L1948 1327.25 Q1948 1323.57 1946.56 1321.74 Q1945.13 1319.91 1942.25 1319.91 Q1938.81 1319.91 1936.82 1322.11 Q1934.82 1324.31 1934.82 1328.1 L1934.82 1342.76 L1930.54 1342.76 L1930.54 1316.83 L1934.82 1316.83 L1934.82 1320.86 Q1936.35 1318.52 1938.41 1317.36 Q1940.5 1316.2 1943.2 1316.2 Q1947.67 1316.2 1949.96 1318.98 Q1952.25 1321.74 1952.25 1327.11 Z" fill="#000000" fill-rule="evenodd" fill-opacity="1" /><path clip-path="url(#clip100)" d="M1977.81 1329.49 Q1977.81 1324.86 1975.89 1322.32 Q1973.99 1319.77 1970.54 1319.77 Q1967.12 1319.77 1965.19 1322.32 Q1963.3 1324.86 1963.3 1329.49 Q1963.3 1334.1 1965.19 1336.64 Q1967.12 1339.19 1970.54 1339.19 Q1973.99 1339.19 1975.89 1336.64 Q1977.81 1334.1 1977.81 1329.49 M1982.07 1339.54 Q1982.07 1346.16 1979.13 1349.38 Q1976.19 1352.62 1970.13 1352.62 Q1967.88 1352.62 1965.89 1352.27 Q1963.9 1351.95 1962.02 1351.25 L1962.02 1347.11 Q1963.9 1348.13 1965.73 1348.61 Q1967.56 1349.1 1969.45 1349.1 Q1973.64 1349.1 1975.73 1346.9 Q1977.81 1344.72 1977.81 1340.3 L1977.81 1338.2 Q1976.49 1340.49 1974.43 1341.62 Q1972.37 1342.76 1969.5 1342.76 Q1964.73 1342.76 1961.81 1339.12 Q1958.9 1335.49 1958.9 1329.49 Q1958.9 1323.47 1961.81 1319.84 Q1964.73 1316.2 1969.5 1316.2 Q1972.37 1316.2 1974.43 1317.34 Q1976.49 1318.47 1977.81 1320.76 L1977.81 1316.83 L1982.07 1316.83 L1982.07 1339.54 Z" fill="#000000" fill-rule="evenodd" fill-opacity="1" /><path clip-path="url(#clip100)" d="M2020.93 1320.81 Q2020.22 1320.39 2019.36 1320.21 Q2018.53 1320 2017.51 1320 Q2013.9 1320 2011.95 1322.36 Q2010.03 1324.7 2010.03 1329.1 L2010.03 1342.76 L2005.75 1342.76 L2005.75 1316.83 L2010.03 1316.83 L2010.03 1320.86 Q2011.37 1318.5 2013.53 1317.36 Q2015.68 1316.2 2018.76 1316.2 Q2019.2 1316.2 2019.73 1316.27 Q2020.26 1316.32 2020.91 1316.44 L2020.93 1320.81 Z" fill="#000000" fill-rule="evenodd" fill-opacity="1" /><path clip-path="url(#clip100)" d="M2034.41 1319.82 Q2030.98 1319.82 2028.99 1322.5 Q2027 1325.16 2027 1329.82 Q2027 1334.47 2028.97 1337.15 Q2030.96 1339.82 2034.41 1339.82 Q2037.81 1339.82 2039.8 1337.13 Q2041.79 1334.45 2041.79 1329.82 Q2041.79 1325.21 2039.8 1322.52 Q2037.81 1319.82 2034.41 1319.82 M2034.41 1316.2 Q2039.96 1316.2 2043.13 1319.82 Q2046.31 1323.43 2046.31 1329.82 Q2046.31 1336.18 2043.13 1339.82 Q2039.96 1343.43 2034.41 1343.43 Q2028.83 1343.43 2025.66 1339.82 Q2022.51 1336.18 2022.51 1329.82 Q2022.51 1323.43 2025.66 1319.82 Q2028.83 1316.2 2034.41 1316.2 Z" fill="#000000" fill-rule="evenodd" fill-opacity="1" /><path clip-path="url(#clip100)" d="M2052.93 1332.52 L2052.93 1316.83 L2057.18 1316.83 L2057.18 1332.36 Q2057.18 1336.04 2058.62 1337.89 Q2060.06 1339.72 2062.93 1339.72 Q2066.37 1339.72 2068.37 1337.52 Q2070.38 1335.32 2070.38 1331.53 L2070.38 1316.83 L2074.64 1316.83 L2074.64 1342.76 L2070.38 1342.76 L2070.38 1338.77 Q2068.83 1341.13 2066.77 1342.29 Q2064.73 1343.43 2062.02 1343.43 Q2057.56 1343.43 2055.24 1340.65 Q2052.93 1337.87 2052.93 1332.52 M2063.64 1316.2 L2063.64 1316.2 Z" fill="#000000" fill-rule="evenodd" fill-opacity="1" /><path clip-path="url(#clip100)" d="M2104.96 1327.11 L2104.96 1342.76 L2100.7 1342.76 L2100.7 1327.25 Q2100.7 1323.57 2099.27 1321.74 Q2097.83 1319.91 2094.96 1319.91 Q2091.51 1319.91 2089.52 1322.11 Q2087.53 1324.31 2087.53 1328.1 L2087.53 1342.76 L2083.25 1342.76 L2083.25 1316.83 L2087.53 1316.83 L2087.53 1320.86 Q2089.06 1318.52 2091.12 1317.36 Q2093.2 1316.2 2095.91 1316.2 Q2100.38 1316.2 2102.67 1318.98 Q2104.96 1321.74 2104.96 1327.11 Z" fill="#000000" fill-rule="evenodd" fill-opacity="1" /><path clip-path="url(#clip100)" d="M2130.52 1320.76 L2130.52 1306.74 L2134.78 1306.74 L2134.78 1342.76 L2130.52 1342.76 L2130.52 1338.87 Q2129.18 1341.18 2127.11 1342.32 Q2125.08 1343.43 2122.21 1343.43 Q2117.51 1343.43 2114.55 1339.68 Q2111.61 1335.93 2111.61 1329.82 Q2111.61 1323.7 2114.55 1319.95 Q2117.51 1316.2 2122.21 1316.2 Q2125.08 1316.2 2127.11 1317.34 Q2129.18 1318.45 2130.52 1320.76 M2116 1329.82 Q2116 1334.51 2117.93 1337.2 Q2119.87 1339.86 2123.25 1339.86 Q2126.63 1339.86 2128.57 1337.2 Q2130.52 1334.51 2130.52 1329.82 Q2130.52 1325.12 2128.57 1322.45 Q2126.63 1319.77 2123.25 1319.77 Q2119.87 1319.77 2117.93 1322.45 Q2116 1325.12 2116 1329.82 Z" fill="#000000" fill-rule="evenodd" fill-opacity="1" /><path clip-path="url(#clip100)" d="M2160.08 1317.59 L2160.08 1321.62 Q2158.27 1320.7 2156.33 1320.23 Q2154.38 1319.77 2152.3 1319.77 Q2149.13 1319.77 2147.53 1320.74 Q2145.96 1321.71 2145.96 1323.66 Q2145.96 1325.14 2147.09 1326 Q2148.23 1326.83 2151.65 1327.59 L2153.11 1327.92 Q2157.65 1328.89 2159.55 1330.67 Q2161.47 1332.43 2161.47 1335.6 Q2161.47 1339.21 2158.6 1341.32 Q2155.75 1343.43 2150.75 1343.43 Q2148.67 1343.43 2146.4 1343.01 Q2144.15 1342.62 2141.65 1341.81 L2141.65 1337.41 Q2144.01 1338.63 2146.3 1339.26 Q2148.6 1339.86 2150.84 1339.86 Q2153.85 1339.86 2155.47 1338.84 Q2157.09 1337.8 2157.09 1335.93 Q2157.09 1334.19 2155.91 1333.26 Q2154.75 1332.34 2150.8 1331.48 L2149.31 1331.14 Q2145.36 1330.3 2143.6 1328.59 Q2141.84 1326.85 2141.84 1323.84 Q2141.84 1320.19 2144.43 1318.2 Q2147.02 1316.2 2151.79 1316.2 Q2154.15 1316.2 2156.24 1316.55 Q2158.32 1316.9 2160.08 1317.59 Z" fill="#000000" fill-rule="evenodd" fill-opacity="1" /><path clip-path="url(#clip100)" d="M2190.89 1308.2 L2194.82 1308.2 L2182.79 1347.15 L2178.85 1347.15 L2190.89 1308.2 Z" fill="#000000" fill-rule="evenodd" fill-opacity="1" /><path clip-path="url(#clip100)" d="M2235.91 1327.11 L2235.91 1342.76 L2231.65 1342.76 L2231.65 1327.25 Q2231.65 1323.57 2230.22 1321.74 Q2228.78 1319.91 2225.91 1319.91 Q2222.46 1319.91 2220.47 1322.11 Q2218.48 1324.31 2218.48 1328.1 L2218.48 1342.76 L2214.2 1342.76 L2214.2 1316.83 L2218.48 1316.83 L2218.48 1320.86 Q2220.01 1318.52 2222.07 1317.36 Q2224.15 1316.2 2226.86 1316.2 Q2231.33 1316.2 2233.62 1318.98 Q2235.91 1321.74 2235.91 1327.11 Z" fill="#000000" fill-rule="evenodd" fill-opacity="1" /></svg>
