<?xml version="1.0" encoding="UTF-8" standalone="no"?>
<!DOCTYPE svg PUBLIC "-//W3C//DTD SVG 1.1//EN" "http://www.w3.org/Graphics/SVG/1.1/DTD/svg11.dtd">
<svg width="100%" height="100%" viewBox="0 0 600 400" version="1.1" xmlns="http://www.w3.org/2000/svg" xmlns:xlink="http://www.w3.org/1999/xlink" xml:space="preserve" xmlns:serif="http://www.serif.com/" style="fill-rule:evenodd;clip-rule:evenodd;stroke-linejoin:round;">
    <g transform="matrix(1,0,0,1,-2115,-482)">
        <g transform="matrix(1.11557,0,0,1.53494,-2279.1,-3289.37)">
            <g transform="matrix(0.896405,0,0,0.651493,4207.82,2587.32)">
                <g transform="matrix(1,0,0,1,-300,-200)">
                    <path d="M75.4,355.795L75.4,11.811" style="fill:none;fill-rule:nonzero;stroke:black;stroke-opacity:0.1;stroke-width:0.5px;"/>
                    <path d="M199.877,355.795L199.877,11.811" style="fill:none;fill-rule:nonzero;stroke:black;stroke-opacity:0.1;stroke-width:0.5px;"/>
                    <path d="M324.353,355.795L324.353,11.811" style="fill:none;fill-rule:nonzero;stroke:black;stroke-opacity:0.1;stroke-width:0.5px;"/>
                    <path d="M448.83,355.795L448.83,11.811" style="fill:none;fill-rule:nonzero;stroke:black;stroke-opacity:0.1;stroke-width:0.5px;"/>
                    <path d="M573.308,355.795L573.308,11.811" style="fill:none;fill-rule:nonzero;stroke:black;stroke-opacity:0.1;stroke-width:0.5px;"/>
                    <path d="M62.386,355.795L588.19,355.795" style="fill:none;fill-rule:nonzero;stroke:rgb(169,169,179);stroke-width:1px;"/>
                    <path d="M75.4,355.795L75.4,351.07" style="fill:none;fill-rule:nonzero;stroke:rgb(169,169,179);stroke-width:1px;"/>
                    <path d="M199.877,355.795L199.877,351.07" style="fill:none;fill-rule:nonzero;stroke:rgb(169,169,179);stroke-width:1px;"/>
                    <path d="M324.353,355.795L324.353,351.07" style="fill:none;fill-rule:nonzero;stroke:rgb(169,169,179);stroke-width:1px;"/>
                    <path d="M448.83,355.795L448.83,351.07" style="fill:none;fill-rule:nonzero;stroke:rgb(169,169,179);stroke-width:1px;"/>
                    <path d="M573.308,355.795L573.308,351.07" style="fill:none;fill-rule:nonzero;stroke:rgb(169,169,179);stroke-width:1px;"/>
                    <path d="M75.4,363.525C74.798,363.525 74.344,363.822 74.04,364.415C73.739,365.005 73.588,365.894 73.588,367.083C73.588,368.268 73.739,369.158 74.04,369.753C74.344,370.342 74.798,370.638 75.4,370.638C76.005,370.638 76.459,370.342 76.76,369.753C77.064,369.158 77.217,368.268 77.217,367.083C77.217,365.894 77.064,365.005 76.76,364.415C76.459,363.822 76.005,363.525 75.4,363.525M75.4,362.598C76.368,362.598 77.107,362.982 77.616,363.75C78.129,364.513 78.386,365.624 78.386,367.083C78.386,368.537 78.129,369.649 77.616,370.418C77.107,371.181 76.368,371.563 75.4,371.563C74.431,371.563 73.69,371.181 73.177,370.418C72.668,369.649 72.414,368.537 72.414,367.083C72.414,365.624 72.668,364.513 73.177,363.75C73.69,362.982 74.431,362.598 75.4,362.598Z" style="fill:rgb(169,169,179);"/>
                    <path d="M190.8,370.41L194.88,370.41L194.88,371.395L189.393,371.395L189.393,370.41C189.837,369.952 190.441,369.337 191.205,368.565C191.973,367.79 192.455,367.291 192.652,367.068C193.026,366.646 193.286,366.291 193.433,366.003C193.583,365.709 193.659,365.422 193.659,365.14C193.659,364.68 193.497,364.306 193.173,364.018C192.852,363.727 192.434,363.583 191.917,363.583C191.55,363.583 191.162,363.646 190.754,363.773C190.348,363.901 189.914,364.094 189.451,364.353L189.451,363.173C189.922,362.983 190.362,362.839 190.771,362.743C191.18,362.646 191.554,362.598 191.893,362.598C192.789,362.598 193.502,362.822 194.035,363.27C194.567,363.718 194.833,364.317 194.833,365.065C194.833,365.42 194.766,365.758 194.631,366.078C194.5,366.393 194.258,366.767 193.907,367.2C193.811,367.312 193.504,367.636 192.987,368.173C192.47,368.704 191.741,369.45 190.8,370.41Z" style="fill:rgb(169,169,179);"/>
                    <path d="M199.833,363.525C199.231,363.525 198.778,363.822 198.473,364.415C198.172,365.005 198.022,365.894 198.022,367.083C198.022,368.268 198.172,369.158 198.473,369.753C198.778,370.342 199.231,370.638 199.833,370.638C200.439,370.638 200.892,370.342 201.193,369.753C201.498,369.158 201.65,368.268 201.65,367.083C201.65,365.894 201.498,365.005 201.193,364.415C200.892,363.822 200.439,363.525 199.833,363.525M199.833,362.598C200.802,362.598 201.54,362.982 202.05,363.75C202.563,364.513 202.819,365.624 202.819,367.083C202.819,368.537 202.563,369.649 202.05,370.418C201.54,371.181 200.802,371.563 199.833,371.563C198.865,371.563 198.124,371.181 197.611,370.418C197.102,369.649 196.847,368.537 196.847,367.083C196.847,365.624 197.102,364.513 197.611,363.75C198.124,362.982 198.865,362.598 199.833,362.598Z" style="fill:rgb(169,169,179);"/>
                    <path d="M207.374,363.525C206.772,363.525 206.319,363.822 206.014,364.415C205.713,365.005 205.562,365.894 205.562,367.083C205.562,368.268 205.713,369.158 206.014,369.753C206.319,370.342 206.772,370.638 207.374,370.638C207.979,370.638 208.433,370.342 208.734,369.753C209.038,369.158 209.191,368.268 209.191,367.083C209.191,365.894 209.038,365.005 208.734,364.415C208.433,363.822 207.979,363.525 207.374,363.525M207.374,362.598C208.342,362.598 209.081,362.982 209.59,363.75C210.103,364.513 210.36,365.624 210.36,367.083C210.36,368.537 210.103,369.649 209.59,370.418C209.081,371.181 208.342,371.563 207.374,371.563C206.405,371.563 205.665,371.181 205.152,370.418C204.642,369.649 204.387,368.537 204.387,367.083C204.387,365.624 204.642,364.513 205.152,363.75C205.665,362.982 206.405,362.598 207.374,362.598Z" style="fill:rgb(169,169,179);"/>
                    <path d="M317.628,363.773L314.675,368.385L317.628,368.385L317.628,363.773M317.32,362.755L318.79,362.755L318.79,368.385L320.023,368.385L320.023,369.358L318.79,369.358L318.79,371.395L317.628,371.395L317.628,369.358L313.725,369.358L313.725,368.23L317.32,362.755Z" style="fill:rgb(169,169,179);"/>
                    <path d="M324.455,363.525C323.853,363.525 323.4,363.822 323.095,364.415C322.793,365.005 322.643,365.894 322.643,367.083C322.643,368.268 322.793,369.158 323.095,369.753C323.4,370.342 323.853,370.638 324.455,370.638C325.06,370.638 325.513,370.342 325.815,369.753C326.12,369.158 326.273,368.268 326.273,367.083C326.273,365.894 326.12,365.005 325.815,364.415C325.513,363.822 325.06,363.525 324.455,363.525M324.455,362.598C325.423,362.598 326.163,362.982 326.673,363.75C327.184,364.513 327.44,365.624 327.44,367.083C327.44,368.537 327.184,369.649 326.673,370.418C326.163,371.181 325.423,371.563 324.455,371.563C323.487,371.563 322.746,371.181 322.233,370.418C321.724,369.649 321.47,368.537 321.47,367.083C321.47,365.624 321.724,364.513 322.233,363.75C322.746,362.982 323.487,362.598 324.455,362.598Z" style="fill:rgb(169,169,179);"/>
                    <path d="M331.995,363.525C331.393,363.525 330.94,363.822 330.635,364.415C330.335,365.005 330.185,365.894 330.185,367.083C330.185,368.268 330.335,369.158 330.635,369.753C330.94,370.342 331.393,370.638 331.995,370.638C332.602,370.638 333.055,370.342 333.355,369.753C333.66,369.158 333.813,368.268 333.813,367.083C333.813,365.894 333.66,365.005 333.355,364.415C333.055,363.822 332.602,363.525 331.995,363.525M331.995,362.598C332.963,362.598 333.703,362.982 334.212,363.75C334.726,364.513 334.983,365.624 334.983,367.083C334.983,368.537 334.726,369.649 334.212,370.418C333.703,371.181 332.963,371.563 331.995,371.563C331.027,371.563 330.286,371.181 329.773,370.418C329.264,369.649 329.01,368.537 329.01,367.083C329.01,365.624 329.264,364.513 329.773,363.75C330.286,362.982 331.027,362.598 331.995,362.598Z" style="fill:rgb(169,169,179);"/>
                    <path d="M441.413,366.61C440.888,366.61 440.471,366.789 440.163,367.148C439.858,367.506 439.705,367.998 439.705,368.623C439.705,369.244 439.858,369.736 440.163,370.098C440.471,370.458 440.888,370.638 441.413,370.638C441.938,370.638 442.352,370.458 442.655,370.098C442.965,369.736 443.12,369.244 443.12,368.623C443.12,367.998 442.965,367.506 442.655,367.148C442.352,366.789 441.938,366.61 441.413,366.61M443.733,362.945L443.733,364.01C443.439,363.872 443.142,363.766 442.84,363.693C442.543,363.619 442.248,363.583 441.955,363.583C441.183,363.583 440.593,363.842 440.185,364.363C439.78,364.884 439.548,365.672 439.49,366.725C439.718,366.39 440.004,366.133 440.348,365.955C440.691,365.773 441.068,365.683 441.48,365.683C442.348,365.683 443.033,365.947 443.535,366.475C444.04,367 444.293,367.716 444.293,368.623C444.293,369.511 444.031,370.222 443.508,370.758C442.983,371.294 442.284,371.563 441.413,371.563C440.413,371.563 439.648,371.181 439.12,370.418C438.592,369.649 438.328,368.537 438.328,367.083C438.328,365.718 438.652,364.63 439.3,363.82C439.948,363.005 440.818,362.598 441.91,362.598C442.203,362.598 442.498,362.627 442.795,362.685C443.095,362.743 443.408,362.83 443.733,362.945Z" style="fill:rgb(169,169,179);"/>
                    <path d="M448.808,363.525C448.206,363.525 447.753,363.822 447.448,364.415C447.146,365.005 446.995,365.894 446.995,367.083C446.995,368.268 447.146,369.158 447.448,369.753C447.753,370.342 448.206,370.638 448.808,370.638C449.412,370.638 449.866,370.342 450.168,369.753C450.473,369.158 450.625,368.268 450.625,367.083C450.625,365.894 450.473,365.005 450.168,364.415C449.866,363.822 449.412,363.525 448.808,363.525M448.808,362.598C449.776,362.598 450.515,362.982 451.025,363.75C451.537,364.513 451.793,365.624 451.793,367.083C451.793,368.537 451.537,369.649 451.025,370.418C450.515,371.181 449.776,371.563 448.808,371.563C447.839,371.563 447.098,371.181 446.585,370.418C446.077,369.649 445.823,368.537 445.823,367.083C445.823,365.624 446.077,364.513 446.585,363.75C447.098,362.982 447.839,362.598 448.808,362.598Z" style="fill:rgb(169,169,179);"/>
                    <path d="M456.348,363.525C455.746,363.525 455.293,363.822 454.988,364.415C454.688,365.005 454.538,365.894 454.538,367.083C454.538,368.268 454.688,369.158 454.988,369.753C455.293,370.342 455.746,370.638 456.348,370.638C456.954,370.638 457.407,370.342 457.708,369.753C458.013,369.158 458.165,368.268 458.165,367.083C458.165,365.894 458.013,365.005 457.708,364.415C457.407,363.822 456.954,363.525 456.348,363.525M456.348,362.598C457.316,362.598 458.055,362.982 458.565,363.75C459.078,364.513 459.335,365.624 459.335,367.083C459.335,368.537 459.078,369.649 458.565,370.418C458.055,371.181 457.316,371.563 456.348,371.563C455.379,371.563 454.638,371.181 454.125,370.418C453.617,369.649 453.363,368.537 453.363,367.083C453.363,365.624 453.617,364.513 454.125,363.75C454.638,362.982 455.379,362.598 456.348,362.598Z" style="fill:rgb(169,169,179);"/>
                    <path d="M565.755,367.293C565.2,367.293 564.763,367.441 564.443,367.738C564.126,368.034 563.968,368.443 563.968,368.965C563.968,369.485 564.126,369.894 564.443,370.193C564.763,370.489 565.2,370.638 565.755,370.638C566.312,370.638 566.75,370.489 567.07,370.193C567.39,369.891 567.55,369.482 567.55,368.965C567.55,368.443 567.39,368.034 567.07,367.738C566.753,367.441 566.315,367.293 565.755,367.293M564.588,366.795C564.086,366.672 563.694,366.438 563.413,366.095C563.134,365.752 562.995,365.333 562.995,364.837C562.995,364.148 563.24,363.602 563.73,363.2C564.223,362.798 564.898,362.598 565.755,362.598C566.615,362.598 567.29,362.798 567.78,363.2C568.27,363.602 568.515,364.148 568.515,364.837C568.515,365.333 568.374,365.752 568.093,366.095C567.816,366.438 567.428,366.672 566.93,366.795C567.493,366.925 567.932,367.182 568.245,367.565C568.56,367.947 568.718,368.413 568.718,368.965C568.718,369.802 568.462,370.444 567.95,370.893C567.44,371.339 566.708,371.563 565.755,371.563C564.803,371.563 564.071,371.339 563.558,370.893C563.048,370.444 562.793,369.802 562.793,368.965C562.793,368.413 562.951,367.947 563.268,367.565C563.584,367.182 564.024,366.925 564.588,366.795M564.158,364.948C564.158,365.396 564.297,365.745 564.575,365.995C564.857,366.247 565.25,366.373 565.755,366.373C566.257,366.373 566.648,366.247 566.93,365.995C567.215,365.745 567.358,365.396 567.358,364.948C567.358,364.501 567.215,364.152 566.93,363.9C566.648,363.65 566.257,363.525 565.755,363.525C565.25,363.525 564.857,363.65 564.575,363.9C564.297,364.152 564.158,364.501 564.158,364.948Z" style="fill:rgb(169,169,179);"/>
                    <path d="M573.295,363.525C572.693,363.525 572.24,363.822 571.935,364.415C571.635,365.005 571.485,365.894 571.485,367.083C571.485,368.268 571.635,369.158 571.935,369.753C572.24,370.342 572.693,370.638 573.295,370.638C573.902,370.638 574.355,370.342 574.655,369.753C574.96,369.158 575.113,368.268 575.113,367.083C575.113,365.894 574.96,365.005 574.655,364.415C574.355,363.822 573.902,363.525 573.295,363.525M573.295,362.598C574.263,362.598 575.002,362.982 575.513,363.75C576.026,364.513 576.283,365.624 576.283,367.083C576.283,368.537 576.026,369.649 575.513,370.418C575.002,371.181 574.263,371.563 573.295,371.563C572.327,371.563 571.587,371.181 571.075,370.418C570.565,369.649 570.31,368.537 570.31,367.083C570.31,365.624 570.565,364.513 571.075,363.75C571.587,362.982 572.327,362.598 573.295,362.598Z" style="fill:rgb(169,169,179);"/>
                    <path d="M580.838,363.525C580.236,363.525 579.782,363.822 579.478,364.415C579.176,365.005 579.025,365.894 579.025,367.083C579.025,368.268 579.176,369.158 579.478,369.753C579.782,370.342 580.236,370.638 580.838,370.638C581.443,370.638 581.896,370.342 582.198,369.753C582.502,369.158 582.655,368.268 582.655,367.083C582.655,365.894 582.502,365.005 582.198,364.415C581.896,363.822 581.443,363.525 580.838,363.525M580.838,362.598C581.806,362.598 582.544,362.982 583.053,363.75C583.566,364.513 583.823,365.624 583.823,367.083C583.823,368.537 583.566,369.649 583.053,370.418C582.544,371.181 581.806,371.563 580.838,371.563C579.869,371.563 579.128,371.181 578.615,370.418C578.105,369.649 577.85,368.537 577.85,367.083C577.85,365.624 578.105,364.513 578.615,363.75C579.128,362.982 579.869,362.598 580.838,362.598Z" style="fill:rgb(169,169,179);"/>
                    <path d="M329.02,386.633L329.02,392.01L327.555,392.01L327.555,386.68C327.555,385.837 327.391,385.205 327.063,384.785C326.733,384.367 326.239,384.158 325.583,384.158C324.791,384.158 324.167,384.409 323.712,384.913C323.256,385.418 323.027,386.105 323.027,386.975L323.027,392.01L321.555,392.01L321.555,383.1L323.027,383.1L323.027,384.483C323.378,383.948 323.788,383.548 324.26,383.283C324.738,383.018 325.288,382.885 325.908,382.885C326.931,382.885 327.706,383.203 328.233,383.84C328.758,384.47 329.02,385.401 329.02,386.633Z" style="fill:rgb(169,169,179);"/>
                    <path d="M62.386,346.06L588.19,346.06" style="fill:none;fill-rule:nonzero;stroke:rgb(169,169,179);stroke-opacity:0.1;stroke-width:0.5px;"/>
                    <path d="M62.386,263.905L588.19,263.905" style="fill:none;fill-rule:nonzero;stroke:rgb(169,169,179);stroke-opacity:0.1;stroke-width:0.5px;"/>
                    <path d="M62.386,181.749L588.19,181.749" style="fill:none;fill-rule:nonzero;stroke:rgb(169,169,179);stroke-opacity:0.1;stroke-width:0.5px;"/>
                    <path d="M62.386,99.594L588.19,99.594" style="fill:none;fill-rule:nonzero;stroke:rgb(169,169,179);stroke-opacity:0.1;stroke-width:0.5px;"/>
                    <path d="M62.386,17.439L588.19,17.439" style="fill:none;fill-rule:nonzero;stroke:rgb(169,169,179);stroke-opacity:0.1;stroke-width:0.5px;"/>
                    <path d="M62.386,355.795L62.386,11.811" style="fill:none;fill-rule:nonzero;stroke:rgb(169,169,179);stroke-width:1px;"/>
                    <path d="M62.386,346.06L67.11,346.06" style="fill:none;fill-rule:nonzero;stroke:rgb(169,169,179);stroke-width:1px;"/>
                    <path d="M62.386,263.905L67.11,263.905" style="fill:none;fill-rule:nonzero;stroke:rgb(169,169,179);stroke-width:1px;"/>
                    <path d="M62.386,181.749L67.11,181.749" style="fill:none;fill-rule:nonzero;stroke:rgb(169,169,179);stroke-width:1px;"/>
                    <path d="M62.386,99.594L67.11,99.594" style="fill:none;fill-rule:nonzero;stroke:rgb(169,169,179);stroke-width:1px;"/>
                    <path d="M62.386,17.439L67.11,17.439" style="fill:none;fill-rule:nonzero;stroke:rgb(169,169,179);stroke-width:1px;"/>
                    <path d="M31.551,342.51C30.949,342.51 30.496,342.807 30.191,343.4C29.89,343.99 29.74,344.879 29.74,346.068C29.74,347.253 29.89,348.142 30.191,348.735C30.496,349.327 30.949,349.623 31.551,349.623C32.157,349.623 32.61,349.327 32.911,348.735C33.216,348.142 33.368,347.253 33.368,346.068C33.368,344.879 33.216,343.99 32.911,343.4C32.61,342.807 32.157,342.51 31.551,342.51M31.551,341.583C32.52,341.583 33.258,341.967 33.768,342.735C34.281,343.498 34.537,344.609 34.537,346.068C34.537,347.523 34.281,348.634 33.768,349.402C33.258,350.166 32.52,350.548 31.551,350.548C30.583,350.548 29.842,350.166 29.329,349.402C28.82,348.634 28.565,347.523 28.565,346.068C28.565,344.609 28.82,343.498 29.329,342.735C29.842,341.967 30.583,341.583 31.551,341.583Z" style="fill:rgb(169,169,179);"/>
                    <rect x="36.592" y="348.91" width="1.221" height="1.47" style="fill:rgb(169,169,179);"/>
                    <path d="M42.859,342.51C42.257,342.51 41.804,342.807 41.499,343.4C41.198,343.99 41.048,344.879 41.048,346.068C41.048,347.253 41.198,348.142 41.499,348.735C41.804,349.327 42.257,349.623 42.859,349.623C43.465,349.623 43.918,349.327 44.219,348.735C44.524,348.142 44.676,347.253 44.676,346.068C44.676,344.879 44.524,343.99 44.219,343.4C43.918,342.807 43.465,342.51 42.859,342.51M42.859,341.583C43.827,341.583 44.566,341.967 45.075,342.735C45.588,343.498 45.845,344.609 45.845,346.068C45.845,347.523 45.588,348.634 45.075,349.402C44.566,350.166 43.827,350.548 42.859,350.548C41.891,350.548 41.15,350.166 40.637,349.402C40.127,348.634 39.873,347.523 39.873,346.068C39.873,344.609 40.127,343.498 40.637,342.735C41.15,341.967 41.891,341.583 42.859,341.583Z" style="fill:rgb(169,169,179);"/>
                    <path d="M50.4,342.51C49.798,342.51 49.344,342.807 49.039,343.4C48.739,343.99 48.588,344.879 48.588,346.068C48.588,347.253 48.739,348.142 49.039,348.735C49.344,349.327 49.798,349.623 50.4,349.623C51.005,349.623 51.458,349.327 51.759,348.735C52.064,348.142 52.217,347.253 52.217,346.068C52.217,344.879 52.064,343.99 51.759,343.4C51.458,342.807 51.005,342.51 50.4,342.51M50.4,341.583C51.368,341.583 52.107,341.967 52.616,342.735C53.129,343.498 53.386,344.609 53.386,346.068C53.386,347.523 53.129,348.634 52.616,349.402C52.107,350.166 51.368,350.548 50.4,350.548C49.431,350.548 48.69,350.166 48.177,349.402C47.668,348.634 47.413,347.523 47.413,346.068C47.413,344.609 47.668,343.498 48.177,342.735C48.69,341.967 49.431,341.583 50.4,341.583Z" style="fill:rgb(169,169,179);"/>
                    <path d="M31.8,260.355C31.198,260.355 30.745,260.652 30.44,261.245C30.139,261.835 29.989,262.724 29.989,263.913C29.989,265.098 30.139,265.987 30.44,266.58C30.745,267.17 31.198,267.465 31.8,267.465C32.406,267.465 32.859,267.17 33.16,266.58C33.465,265.987 33.617,265.098 33.617,263.913C33.617,262.724 33.465,261.835 33.16,261.245C32.859,260.652 32.406,260.355 31.8,260.355M31.8,259.428C32.768,259.428 33.507,259.812 34.017,260.58C34.53,261.343 34.786,262.454 34.786,263.913C34.786,265.368 34.53,266.479 34.017,267.248C33.507,268.011 32.768,268.393 31.8,268.393C30.832,268.393 30.091,268.011 29.578,267.248C29.069,266.479 28.814,265.368 28.814,263.913C28.814,262.454 29.069,261.343 29.578,260.58C30.091,259.812 30.832,259.428 31.8,259.428Z" style="fill:rgb(169,169,179);"/>
                    <rect x="36.841" y="266.755" width="1.221" height="1.47" style="fill:rgb(169,169,179);"/>
                    <path d="M41.615,267.24L45.695,267.24L45.695,268.225L40.209,268.225L40.209,267.24C40.652,266.782 41.256,266.167 42.02,265.395C42.788,264.62 43.27,264.12 43.467,263.895C43.841,263.475 44.101,263.12 44.248,262.83C44.398,262.537 44.474,262.249 44.474,261.967C44.474,261.509 44.312,261.135 43.987,260.845C43.667,260.557 43.249,260.413 42.732,260.413C42.365,260.413 41.977,260.476 41.569,260.603C41.163,260.731 40.729,260.924 40.266,261.183L40.266,260C40.737,259.812 41.177,259.669 41.586,259.573C41.995,259.476 42.369,259.428 42.709,259.428C43.604,259.428 44.317,259.652 44.85,260.1C45.382,260.547 45.648,261.144 45.648,261.892C45.648,262.248 45.581,262.585 45.446,262.905C45.315,263.222 45.073,263.597 44.722,264.03C44.626,264.142 44.319,264.465 43.802,265C43.285,265.533 42.556,266.28 41.615,267.24Z" style="fill:rgb(169,169,179);"/>
                    <path d="M48.16,259.585L52.749,259.585L52.749,260.568L49.231,260.568L49.231,262.685C49.4,262.628 49.57,262.587 49.74,262.56C49.909,262.528 50.079,262.513 50.249,262.513C51.213,262.513 51.977,262.777 52.541,263.305C53.104,263.833 53.386,264.549 53.386,265.453C53.386,266.383 53.096,267.106 52.518,267.623C51.939,268.136 51.123,268.393 50.07,268.393C49.707,268.393 49.337,268.362 48.959,268.3C48.584,268.238 48.196,268.146 47.795,268.023L47.795,266.848C48.142,267.036 48.501,267.177 48.872,267.27C49.242,267.362 49.634,267.408 50.047,267.408C50.714,267.408 51.242,267.233 51.632,266.883C52.022,266.531 52.217,266.054 52.217,265.453C52.217,264.851 52.022,264.374 51.632,264.023C51.242,263.673 50.714,263.498 50.047,263.498C49.734,263.498 49.422,263.532 49.109,263.6C48.8,263.67 48.484,263.778 48.16,263.925L48.16,259.585Z" style="fill:rgb(169,169,179);"/>
                    <path d="M31.551,178.199C30.949,178.199 30.496,178.496 30.191,179.09C29.89,179.68 29.74,180.57 29.74,181.758C29.74,182.942 29.89,183.832 30.191,184.426C30.496,185.016 30.949,185.311 31.551,185.311C32.157,185.311 32.61,185.016 32.911,184.426C33.216,183.832 33.368,182.942 33.368,181.758C33.368,180.57 33.216,179.68 32.911,179.09C32.61,178.496 32.157,178.199 31.551,178.199M31.551,177.273C32.52,177.273 33.258,177.657 33.768,178.425C34.281,179.188 34.537,180.299 34.537,181.758C34.537,183.212 34.281,184.323 33.768,185.091C33.258,185.855 32.52,186.237 31.551,186.237C30.583,186.237 29.842,185.855 29.329,185.091C28.82,184.323 28.565,183.212 28.565,181.758C28.565,180.299 28.82,179.188 29.329,178.425C29.842,177.657 30.583,177.273 31.551,177.273Z" style="fill:rgb(169,169,179);"/>
                    <rect x="36.592" y="184.599" width="1.221" height="1.47" style="fill:rgb(169,169,179);"/>
                    <path d="M40.371,177.429L44.96,177.429L44.96,178.413L41.441,178.413L41.441,180.531C41.611,180.473 41.781,180.431 41.951,180.404C42.12,180.373 42.29,180.357 42.46,180.357C43.424,180.357 44.188,180.622 44.751,181.15C45.315,181.679 45.596,182.394 45.596,183.297C45.596,184.227 45.307,184.95 44.728,185.467C44.149,185.98 43.333,186.237 42.28,186.237C41.918,186.237 41.547,186.206 41.169,186.144C40.795,186.083 40.407,185.99 40.006,185.867L40.006,184.692C40.353,184.881 40.712,185.022 41.082,185.114C41.453,185.207 41.844,185.253 42.257,185.253C42.924,185.253 43.453,185.078 43.843,184.726C44.232,184.375 44.427,183.899 44.427,183.297C44.427,182.695 44.232,182.219 43.843,181.868C43.453,181.517 42.924,181.341 42.257,181.341C41.945,181.341 41.632,181.376 41.32,181.445C41.011,181.515 40.695,181.623 40.371,181.769L40.371,177.429Z" style="fill:rgb(169,169,179);"/>
                    <path d="M50.4,178.199C49.798,178.199 49.344,178.496 49.039,179.09C48.739,179.68 48.588,180.57 48.588,181.758C48.588,182.942 48.739,183.832 49.039,184.426C49.344,185.016 49.798,185.311 50.4,185.311C51.005,185.311 51.458,185.016 51.759,184.426C52.064,183.832 52.217,182.942 52.217,181.758C52.217,180.57 52.064,179.68 51.759,179.09C51.458,178.496 51.005,178.199 50.4,178.199M50.4,177.273C51.368,177.273 52.107,177.657 52.616,178.425C53.129,179.188 53.386,180.299 53.386,181.758C53.386,183.212 53.129,184.323 52.616,185.091C52.107,185.855 51.368,186.237 50.4,186.237C49.431,186.237 48.69,185.855 48.177,185.091C47.668,184.323 47.413,183.212 47.413,181.758C47.413,180.299 47.668,179.188 48.177,178.425C48.69,177.657 49.431,177.273 50.4,177.273Z" style="fill:rgb(169,169,179);"/>
                    <path d="M31.8,96.043C31.198,96.043 30.745,96.341 30.44,96.935C30.139,97.525 29.989,98.414 29.989,99.603C29.989,100.787 30.139,101.676 30.44,102.27C30.745,102.861 31.198,103.156 31.8,103.156C32.406,103.156 32.859,102.861 33.16,102.27C33.465,101.676 33.617,100.787 33.617,99.603C33.617,98.414 33.465,97.525 33.16,96.935C32.859,96.341 32.406,96.043 31.8,96.043M31.8,95.118C32.768,95.118 33.507,95.502 34.017,96.269C34.53,97.033 34.786,98.144 34.786,99.603C34.786,101.057 34.53,102.168 34.017,102.936C33.507,103.7 32.768,104.082 31.8,104.082C30.832,104.082 30.091,103.7 29.578,102.936C29.069,102.168 28.814,101.057 28.814,99.603C28.814,98.144 29.069,97.033 29.578,96.269C30.091,95.502 30.832,95.118 31.8,95.118Z" style="fill:rgb(169,169,179);"/>
                    <rect x="36.841" y="102.444" width="1.221" height="1.47" style="fill:rgb(169,169,179);"/>
                    <path d="M40.313,95.274L45.868,95.274L45.868,95.772L42.732,103.914L41.511,103.914L44.462,96.258L40.313,96.258L40.313,95.274Z" style="fill:rgb(169,169,179);"/>
                    <path d="M48.16,95.274L52.749,95.274L52.749,96.258L49.231,96.258L49.231,98.376C49.4,98.318 49.57,98.276 49.74,98.249C49.909,98.218 50.079,98.202 50.249,98.202C51.213,98.202 51.977,98.466 52.541,98.995C53.104,99.524 53.386,100.239 53.386,101.142C53.386,102.072 53.096,102.795 52.518,103.312C51.939,103.825 51.123,104.082 50.07,104.082C49.707,104.082 49.337,104.051 48.959,103.989C48.584,103.927 48.196,103.835 47.795,103.711L47.795,102.537C48.142,102.726 48.501,102.867 48.872,102.959C49.242,103.052 49.634,103.098 50.047,103.098C50.714,103.098 51.242,102.922 51.632,102.571C52.022,102.22 52.217,101.744 52.217,101.142C52.217,100.54 52.022,100.064 51.632,99.713C51.242,99.362 50.714,99.186 50.047,99.186C49.734,99.186 49.422,99.221 49.109,99.29C48.8,99.36 48.484,99.468 48.16,99.614L48.16,95.274Z" style="fill:rgb(169,169,179);"/>
                    <path d="M29.254,20.775L31.164,20.775L31.164,14.183L29.086,14.6L29.086,13.535L31.152,13.119L32.321,13.119L32.321,20.775L34.231,20.775L34.231,21.759L29.254,21.759L29.254,20.775Z" style="fill:rgb(169,169,179);"/>
                    <rect x="36.592" y="20.289" width="1.221" height="1.47" style="fill:rgb(169,169,179);"/>
                    <path d="M42.859,13.888C42.257,13.888 41.804,14.185 41.499,14.78C41.198,15.37 41.048,16.259 41.048,17.447C41.048,18.632 41.198,19.521 41.499,20.115C41.804,20.705 42.257,21.001 42.859,21.001C43.465,21.001 43.918,20.705 44.219,20.115C44.524,19.521 44.676,18.632 44.676,17.447C44.676,16.259 44.524,15.37 44.219,14.78C43.918,14.185 43.465,13.888 42.859,13.888M42.859,12.962C43.827,12.962 44.566,13.346 45.075,14.114C45.588,14.878 45.845,15.989 45.845,17.447C45.845,18.902 45.588,20.013 45.075,20.781C44.566,21.545 43.827,21.926 42.859,21.926C41.891,21.926 41.15,21.545 40.637,20.781C40.127,20.013 39.873,18.902 39.873,17.447C39.873,15.989 40.127,14.878 40.637,14.114C41.15,13.346 41.891,12.962 42.859,12.962Z" style="fill:rgb(169,169,179);"/>
                    <path d="M50.4,13.888C49.798,13.888 49.344,14.185 49.039,14.78C48.739,15.37 48.588,16.259 48.588,17.447C48.588,18.632 48.739,19.521 49.039,20.115C49.344,20.705 49.798,21.001 50.4,21.001C51.005,21.001 51.458,20.705 51.759,20.115C52.064,19.521 52.217,18.632 52.217,17.447C52.217,16.259 52.064,15.37 51.759,14.78C51.458,14.185 51.005,13.888 50.4,13.888M50.4,12.962C51.368,12.962 52.107,13.346 52.616,14.114C53.129,14.878 53.386,15.989 53.386,17.447C53.386,18.902 53.129,20.013 52.616,20.781C52.107,21.545 51.368,21.926 50.4,21.926C49.431,21.926 48.69,21.545 48.177,20.781C47.668,20.013 47.413,18.902 47.413,17.447C47.413,15.989 47.668,14.878 48.177,14.114C48.69,13.346 49.431,12.962 50.4,12.962Z" style="fill:rgb(169,169,179);"/>
                    <path d="M8.458,196.184C8.362,196.349 8.293,196.529 8.251,196.726C8.203,196.916 8.179,197.129 8.179,197.362C8.179,198.19 8.45,198.826 8.991,199.272C9.527,199.712 10.298,199.932 11.306,199.932L16.001,199.932L16.001,201.404L7.089,201.404L7.089,199.932L8.474,199.932C7.933,199.624 7.532,199.224 7.272,198.731C7.007,198.237 6.874,197.638 6.874,196.932C6.874,196.831 6.882,196.72 6.898,196.598C6.909,196.476 6.927,196.341 6.954,196.192L8.458,196.184Z" style="fill:rgb(169,169,179);"/>
                    <path d="M11.521,190.599C11.521,191.781 11.656,192.601 11.927,193.057C12.198,193.513 12.659,193.742 13.312,193.742C13.831,193.742 14.245,193.572 14.553,193.232C14.855,192.887 15.006,192.421 15.006,191.832C15.006,191.02 14.72,190.37 14.147,189.882C13.569,189.389 12.802,189.142 11.847,189.142L11.521,189.142L11.521,190.599M10.916,187.678L16.001,187.678L16.001,189.142L14.648,189.142C15.189,189.476 15.59,189.893 15.85,190.392C16.104,190.89 16.232,191.5 16.232,192.222C16.232,193.134 15.977,193.861 15.468,194.402C14.953,194.938 14.266,195.206 13.407,195.206C12.404,195.206 11.648,194.871 11.139,194.203C10.63,193.529 10.375,192.527 10.375,191.195L10.375,189.142L10.232,189.142C9.558,189.142 9.039,189.365 8.673,189.811C8.301,190.251 8.116,190.872 8.116,191.673C8.116,192.182 8.177,192.678 8.299,193.161C8.421,193.643 8.604,194.107 8.848,194.553L7.495,194.553C7.288,194.017 7.134,193.498 7.033,192.994C6.927,192.49 6.874,191.999 6.874,191.522C6.874,190.232 7.208,189.27 7.877,188.633C8.545,187.996 9.558,187.678 10.916,187.678Z" style="fill:rgb(169,169,179);"/>
                    <path d="M4.559,183.214L7.089,183.214L7.089,180.199L8.227,180.199L8.227,183.214L13.065,183.214C13.792,183.214 14.258,183.116 14.465,182.92C14.672,182.718 14.776,182.312 14.776,181.702L14.776,180.199L16.001,180.199L16.001,181.702C16.001,182.832 15.792,183.612 15.372,184.042C14.948,184.471 14.179,184.686 13.065,184.686L8.227,184.686L8.227,185.761L7.089,185.761L7.089,184.686L4.559,184.686L4.559,183.214Z" style="fill:rgb(169,169,179);"/>
                    <path d="M7.089,178.273L7.089,176.809L16.001,176.809L16.001,178.273L7.089,178.273M3.62,178.273L3.62,176.809L5.474,176.809L5.474,178.273L3.62,178.273Z" style="fill:rgb(169,169,179);"/>
                    <path d="M8.116,170.292C8.116,171.077 8.423,171.698 9.039,172.154C9.649,172.61 10.487,172.838 11.553,172.838C12.619,172.838 13.46,172.613 14.075,172.162C14.685,171.706 14.99,171.082 14.99,170.292C14.99,169.512 14.683,168.894 14.067,168.438C13.452,167.982 12.614,167.754 11.553,167.754C10.497,167.754 9.662,167.982 9.047,168.438C8.426,168.894 8.116,169.512 8.116,170.292M6.874,170.292C6.874,169.019 7.288,168.019 8.116,167.292C8.943,166.565 10.089,166.202 11.553,166.202C13.012,166.202 14.158,166.565 14.99,167.292C15.818,168.019 16.232,169.019 16.232,170.292C16.232,171.57 15.818,172.573 14.99,173.3C14.158,174.021 13.012,174.382 11.553,174.382C10.089,174.382 8.943,174.021 8.116,173.3C7.288,172.573 6.874,171.57 6.874,170.292Z" style="fill:rgb(169,169,179);"/>
                    <path d="M77.267,346.06L78.478,346.06L78.516,280.423L78.554,281.21L78.591,281.98L78.629,282.73L78.705,284.18L78.781,285.565L78.819,286.235L78.856,286.89L78.894,287.53L78.932,288.158L78.97,346.06L79.121,346.06L79.159,291.655L79.197,292.198L79.235,292.73L79.311,293.763L79.386,294.755L79.537,296.633L79.689,298.375L79.84,300.003L79.992,301.52L80.067,302.243L80.143,302.94L80.219,303.618L80.295,304.275L80.332,304.595L80.37,304.91L80.408,223.547L80.446,224.466L80.484,225.371L80.522,226.262L80.559,227.141L80.597,228.007L80.635,228.861L80.673,229.702L80.711,230.531L80.749,231.348L80.787,232.154L80.824,308.355L80.862,308.618L80.9,308.875L80.938,309.13L80.976,309.38L81.013,200.329L81.051,201.305L81.089,202.268L81.127,203.218L81.165,204.155L81.203,205.081L81.241,205.994L81.278,206.896L81.316,207.786L81.354,208.665L81.392,209.533L81.43,312.143L81.468,278.648L81.506,279.065L81.543,279.478L81.581,246.799L81.619,247.403L81.657,215.313L81.695,216.099L81.733,216.875L81.77,217.643L81.808,218.401L81.884,219.892L81.96,221.347L81.998,222.063L82.035,222.77L82.073,315.413L82.111,254.635L82.461,230.201L82.811,235.672L83.161,135.238L83.511,194.765L83.861,201.023L84.211,160.357L84.561,234.429L84.911,174.022L85.26,221.611L85.61,205.845L85.96,210.491L86.31,177.348L86.66,128.101L87.01,134.67L87.36,123.754L87.71,213.145L88.06,136.044L88.41,141.693L88.76,192.972L89.11,152.125L89.46,156.952L89.81,133.157L90.159,152.062L90.51,170.091L90.86,160.844L91.209,100.26L91.559,168.866L91.909,160.233L92.259,103.434L92.609,108.367L92.959,113.104L93.309,106.236L93.659,110.832L94.009,93.274L94.359,76.364L94.709,91.844L95.059,96.369L95.409,110.958L95.759,145.137L96.109,109.027L96.459,132.39L96.809,107.222L97.158,158.063L97.508,96.281L97.858,136.6L98.208,139.814L98.558,116.435L98.908,137.254L99.258,80.308L99.608,117.945L99.958,104.538L100.308,107.932L100.658,111.231L101.008,98.466L101.358,125.441L101.708,81.73L102.058,123.561L102.408,88.579L102.757,99.349L103.107,95.083L103.457,98.213L103.807,101.266L104.157,97.133L104.507,107.152L104.857,75.274L105.207,105.9L105.557,61.212L105.907,71.184L106.257,74.301L106.607,70.795L106.957,106.253L107.307,83.243L107.656,105.116L108.007,70.066L108.356,85.409L108.706,82.006L109.406,87.441L110.106,92.656L110.456,95.186L110.806,103.442L111.156,94.376L111.506,74.156L111.856,76.766L112.206,79.327L112.555,92.848L112.906,57.038L113.256,86.724L113.606,78.393L113.955,107.346L114.305,67.437L114.655,54.29L115.005,56.868L115.355,59.401L115.705,82.187L116.055,54.274L116.405,76.715L116.755,59.212L117.105,66.523L117.455,68.849L117.805,56.667L118.155,87.738L118.504,80.345L118.855,82.485L119.205,75.252L119.554,82.031L119.904,70.32L120.254,77.031L120.604,79.113L120.954,67.695L121.304,87.639L121.654,63.063L122.004,78.354L122.354,58.569L122.704,77.991L123.054,79.959L123.404,56.335L123.754,62.661L124.104,60.499L124.454,91.722L124.804,64.544L125.153,74.746L125.503,64.394L125.853,70.402L126.203,72.3L126.553,66.176L126.903,52.193L127.113,53.388L127.324,54.574L127.534,79.288L127.744,56.916L127.955,58.073L128.165,59.221L128.375,68.081L128.586,69.18L128.796,85.592L129.006,56.091L129.216,57.224L129.427,73.491L129.637,67.006L129.847,68.084L130.058,61.669L130.268,55.304L130.478,56.414L130.689,79.712L130.899,43.868L131.109,45.009L131.319,71.744L131.53,54.553L131.74,55.641L131.95,67.571L132.161,61.396L132.371,62.447L132.581,81.374L132.792,50.27L133.002,51.35L133.212,77.187L133.422,42.911L133.633,44.006L133.843,69.59L134.053,42.685L134.264,43.769L134.474,89.854L134.684,52.814L134.894,53.85L135.105,61.731L135.315,45.66L135.525,46.711L135.736,54.534L135.946,45.413L136.156,46.453L136.367,81.034L136.577,48.513L136.787,49.532L136.997,83.749L137.208,48.241L137.418,49.251L137.628,66.688L137.839,47.975L138.049,48.975L138.259,56.477L138.47,54.199L138.68,64.865L138.89,52.911L139.1,53.879L139.311,80.442L139.521,55.795L139.731,56.745L139.942,54.518L140.152,45.989L140.362,46.961L140.573,66.755L140.783,42.628L140.993,43.601L141.203,69.433L141.414,67.216L141.624,68.102L141.834,59.745L142.045,42.235L142.255,43.191L142.465,65.489L142.676,63.325L142.886,64.206L143.096,65.082L143.306,44.869L143.517,45.798L143.727,55.703L143.937,41.673L144.148,42.604L144.358,55.393L144.568,53.32L144.779,54.208L144.989,72.724L145.199,67.687L145.409,68.523L145.619,72.267L145.83,52.757L146.04,53.63L146.25,51.611L146.461,40.97L146.671,41.87L146.881,74.239L147.092,52.213L147.302,53.073L147.512,68.108L147.723,49.121L147.933,49.981L148.143,62.084L148.354,57.295L148.564,58.125L148.774,67.313L148.984,40.315L149.195,41.186L149.405,58.635L149.615,45.67L149.826,46.519L150.036,63.804L150.246,61.865L150.457,62.661L150.667,52.584L150.877,61.531L151.087,62.321L151.298,49.633L151.508,53.14L151.718,53.947L151.929,60.095L152.139,52.883L152.349,53.684L152.56,51.83L152.77,44.699L152.98,45.516L153.401,44.515L153.821,43.524L153.999,44.208L154.177,44.89L154.355,71.472L154.533,35.905L154.71,36.6L154.888,60.45L155.066,43.116L155.244,43.79L155.422,44.462L155.599,60.432L155.777,38.163L155.955,38.842L156.133,59.786L156.311,37.664L156.488,38.341L156.666,39.014L156.844,72.331L157.022,52.881L157.2,53.518L157.377,64.132L157.555,39.847L157.733,40.509L157.911,41.167L158.089,54.19L158.266,42.475L158.444,43.125L158.622,53.603L158.8,39.512L158.978,40.164L159.155,40.814L159.333,53.644L159.511,46.968L159.689,47.599L159.867,50.648L160.044,58.518L160.222,59.12L160.4,59.721L160.578,55.516L160.756,51.329L160.933,51.942L161.111,59.71L161.289,46.015L161.467,46.635L161.645,47.253L161.823,47.867L162,50.841L162.178,51.446L162.356,61.457L162.534,47.954L162.712,48.561L162.889,49.166L163.067,59.1L163.245,55.024L163.423,55.612L163.601,67.792L163.778,52.152L163.956,45.813L164.134,46.415L164.312,60.816L164.49,40.724L164.667,41.332L164.845,55.658L165.023,60.798L165.201,49.975L165.379,50.56L165.556,57.948L165.734,56.251L165.912,56.821L166.09,52.877L166.268,44.448L166.445,51.776L166.623,52.35L166.801,66.347L166.979,44.557L167.157,45.141L167.334,52.397L167.512,48.523L167.69,46.88L167.868,47.455L168.046,54.651L168.223,39.786L168.401,40.371L168.579,51.929L168.757,63.444L168.935,42.115L169.113,42.691L169.29,58.514L169.468,39.49L169.646,40.068L169.824,53.641L170.002,54.19L170.179,43.948L170.357,44.514L170.535,53.677L170.713,45.639L170.891,46.198L171.068,57.445L171.246,53.712L171.424,49.994L171.602,50.541L171.78,46.842L171.957,41.038L172.135,41.599L172.313,50.599L172.491,55.353L172.669,47.474L172.846,48.019L173.024,48.562L173.202,49.103L173.38,49.641L173.558,52.262L173.735,59.033L173.913,49.17L174.091,49.705L174.269,56.444L174.446,42.509L174.624,43.053L174.802,51.826L174.98,54.405L175.158,32.372L175.336,32.93L175.513,49.83L175.691,46.276L175.869,46.807L176.047,53.432L176.225,51.92L176.402,40.287L176.58,40.825L176.773,43.424L176.967,37.958L177.16,38.543L177.353,53.168L177.546,37.704L177.739,38.286L177.932,58.813L178.125,39.443L178.319,40.018L178.512,52.493L178.705,53.042L178.898,39.756L179.091,40.326L179.284,58.614L179.477,49.321L179.671,49.871L179.864,50.419L180.057,41.193L180.25,41.755L180.443,38.42L180.636,46.759L180.829,47.307L181.023,51.726L181.216,38.733L181.409,39.293L181.602,39.851L181.795,59.63L181.988,39.042L182.182,39.597L182.375,45.886L182.568,46.427L182.761,46.966L182.954,53.208L183.147,29.056L183.34,29.624L183.534,50.995L183.726,40.192L183.92,40.737L184.113,45.042L184.306,54.966L184.499,42.358L184.692,42.895L184.886,54.638L185.079,36.504L185.272,37.048L185.465,50.598L185.658,43.696L185.851,44.224L186.044,42.903L186.238,45.276L186.431,45.799L186.624,46.321L186.817,35.826L187.01,36.363L187.203,36.898L187.396,46.562L187.589,36.14L187.783,36.672L187.976,48.104L188.169,46.8L188.362,47.312L188.555,49.63L188.748,39.308L188.942,39.83L189.135,51.14L189.328,40.868L189.521,41.385L189.714,47.267L189.907,44.199L190.1,37.575L190.294,38.093L190.487,43.941L190.68,33.803L190.873,34.325L191.066,50.76L191.259,40.66L191.452,41.168L191.646,48.713L191.839,40.423L192.032,40.929L192.225,37.933L192.418,33.198L192.611,33.713L192.804,34.227L192.998,55.61L193.191,49.141L193.384,49.627L193.577,50.111L193.77,35.043L193.963,35.55L194.157,46.388L194.35,39.997L194.543,40.493L194.736,49.557L194.929,36.347L195.122,36.847L195.315,44.167L195.509,48.059L195.702,40.036L195.895,40.527L196.088,54.574L196.281,34.736L196.474,35.232L196.667,45.847L196.861,37.905L197.054,38.394L197.247,40.56L197.44,49.423L197.633,49.892L197.826,47.018L198.019,32.477L198.213,32.97L198.405,33.462L198.599,47.233L198.792,34.44L198.985,34.927L199.178,50.284L199.371,44.146L199.565,44.615L199.758,46.728L199.951,38.982L200.144,39.457L200.337,48.117L200.53,32.231L200.723,32.715L200.917,49.492L201.11,38.559L201.303,30.908L201.481,31.353L201.659,52.856L201.837,43.563L202.015,43.988L202.371,43.225L202.727,44.072L203.083,46.516L203.44,44.154L203.618,41.383L203.796,41.806L203.974,42.227L204.152,47.413L204.33,39.894L204.508,40.316L204.686,47.065L204.864,36.417L205.042,36.843L205.22,37.267L205.398,47.13L205.576,47.539L205.754,47.947L205.933,45.219L206.111,37.806L206.289,38.225L206.467,38.643L206.645,40.619L206.823,39.476L207.001,39.891L208.425,41.632L209.85,40.294L210.028,40.698L210.206,41.102L210.384,52.11L210.562,37.365L210.74,37.772L210.918,45.723L211.096,38.581L211.274,38.984L211.452,39.386L211.631,53.298L211.809,37.187L211.987,37.59L212.165,43.974L212.343,33.911L212.521,34.317L212.699,34.721L212.877,42.563L213.055,31.069L213.233,31.476L213.411,45.22L213.589,39.687L213.767,40.082L213.945,40.475L214.123,34.969L214.48,32.825L214.836,29.225L215.014,29.629L215.192,30.032L215.37,45.046L215.548,41.05L215.726,41.437L215.904,40.368L216.082,34.939L216.26,35.333L216.438,35.725L216.616,47.703L216.794,39.4L216.972,39.785L217.15,45.942L217.329,34.789L217.506,35.18L217.685,35.569L218.041,39.212L218.397,41.406L218.575,36.071L218.753,36.456L218.931,36.84L219.109,47.186L219.287,33.341L219.465,33.727L219.643,45.457L219.821,42.995L220,43.368L220.178,43.74L220.356,38.468L220.534,38.845L220.712,39.222L220.89,46.626L221.068,35.759L221.246,36.138L221.424,36.516L221.602,46.686L221.78,33.078L221.958,33.458L222.136,42.2L222.314,37L222.492,37.374L222.67,37.747L222.849,42.281L223.027,31.564L223.205,31.943L223.383,48.906L223.561,31.317L223.739,31.695L223.917,32.072L224.095,40.701L224.286,35.597L224.477,35.995L224.667,41.873L224.859,29.945L225.049,30.348L225.24,51.225L225.431,32.515L225.622,32.913L225.813,45.548L226.004,39.139L226.195,40.884L226.386,41.27L226.577,43.008L226.768,32.581L226.958,32.975L227.149,49.543L227.34,37.8L227.531,38.187L227.722,42.601L227.913,41.64L228.104,42.021L228.295,42.4L228.486,44.115L228.677,36.485L228.868,36.87L229.058,38.585L229.249,44.284L229.44,44.658L229.631,46.357L229.822,33.483L230.013,33.869L230.204,42.181L230.395,39.916L230.586,40.293L230.777,40.669L230.967,39.729L231.349,33.921L231.731,29.45L231.922,29.836L232.113,35.442L232.304,29.302L232.494,29.687L232.686,45.676L232.876,40.844L233.067,41.214L233.258,41.583L233.449,45.833L233.64,39.733L233.831,40.102L234.022,43.048L234.213,33.11L234.404,33.486L234.595,40.284L234.785,32.951L234.976,33.326L235.167,51.622L235.358,30.236L235.549,30.613L235.74,30.988L235.931,37.734L236.122,30.464L236.313,30.839L236.504,33.751L236.695,46.801L236.885,47.155L237.076,42.448L237.267,36.488L237.458,36.853L237.649,38.477L237.84,43.875L238.031,30.396L238.222,30.766L238.413,38.663L238.604,37.77L238.794,38.13L238.985,45.991L239.176,33.853L239.367,34.216L239.558,43.3L239.749,29.962L239.94,30.329L240.131,38.145L240.321,47.182L240.512,35.141L240.703,35.5L240.894,39.566L241.085,32.512L241.276,32.873L241.467,48.012L241.658,27.441L241.849,27.807L242.04,41.672L242.231,29.761L242.422,30.122L242.612,30.483L242.803,40.617L242.994,32.422L243.185,32.779L243.376,38.006L243.567,29.842L243.758,30.2L243.949,45.12L244.14,33.339L244.331,33.693L244.522,47.348L244.712,30.773L244.903,31.128L245.094,31.483L245.285,40.263L245.476,32.188L245.667,32.541L245.858,47.29L246.048,33.242L246.24,33.592L246.431,39.92L246.621,34.288L246.812,34.636L247.003,32.598L247.194,40.09L247.385,40.43L247.576,40.768L247.767,43.48L247.958,41.444L248.149,41.781L248.339,45.664L248.53,31.819L248.752,32.22L248.973,38.512L249.194,38.903L249.415,39.294L249.636,38.509L249.857,36.554L250.077,36.946L250.3,32.66L250.52,33.056L250.743,40.449L250.963,33.844L251.185,34.237L251.405,36.953L251.628,36.18L251.848,36.569L252.07,34.641L252.29,38.499L252.512,38.883L252.732,40.42L252.955,35.041L253.175,35.428L253.398,28.919L253.618,40.789L253.838,42.314L254.06,32.386L254.28,32.775L254.503,42.297L254.723,32.407L254.945,32.793L255.165,42.281L255.387,31.29L255.607,31.677L255.83,36.596L256.05,31.314L256.272,31.699L256.493,42.248L256.715,33.594L256.935,41.862L257.158,34.355L257.378,34.734L257.82,33.246L258.262,35.121L258.705,32.524L259.147,33.279L259.368,33.655L259.59,39.582L259.81,31.077L260.033,31.455L260.253,36.257L260.475,36.627L260.695,32.581L260.918,31.852L261.137,32.227L261.358,40.299L261.58,29.677L261.8,30.052L262.022,38.098L262.243,34.084L262.465,34.453L262.685,38.097L262.908,31.916L263.128,32.286L263.35,34.832L263.57,34.111L263.793,40.991L264.013,29.42L264.235,29.791L264.455,43.143L264.678,31.611L264.898,31.978L265.12,35.578L265.34,29.479L265.56,29.847L265.783,43.106L266.003,32.727L266.225,33.09L266.445,35.594L266.668,37.022L266.888,38.447L267.11,29.2L267.33,29.565L267.553,35.252L267.773,27.104L267.995,27.47L268.215,38.443L268.438,33.498L268.658,33.855L268.88,40.555L269.1,32.456L269.32,32.814L269.543,31.064L269.763,36.684L269.985,37.036L270.205,43.686L270.428,31.444L270.648,33.896L270.87,36.342L271.09,36.692L271.313,34.953L271.533,36.347L272.418,33.585L273.303,33.948L274.188,32.251L275.073,32.617L275.515,31.266L275.958,35.019L276.178,35.362L276.4,36.722L276.62,31.979L276.84,32.324L277.038,35.673L277.235,32.935L277.43,33.24L277.628,37.589L277.825,30.816L278.02,31.122L278.217,40.503L278.413,31.732L278.61,32.036L278.808,40.383L279.003,28.624L279.2,28.93L279.398,33.246L279.592,33.547L279.79,33.848L279.985,37.147L280.183,31.451L280.38,31.753L280.575,32.054L280.773,37.334L281.165,34.942L281.558,32.559L281.755,32.857L281.953,34.145L282.148,31.474L282.345,31.773L282.543,38.983L282.738,32.369L282.935,32.666L283.13,35.916L283.328,29.324L283.525,29.623L283.72,38.758L283.918,30.22L284.115,30.517L284.31,30.814L284.508,43.826L284.703,33.36L284.9,33.654L285.098,35.897L285.293,32.29L285.49,32.584L285.688,35.794L285.883,27.339L286.08,27.636L286.275,36.662L286.473,29.198L286.67,29.493L286.865,42.361L287.063,28.148L287.26,28.443L287.455,41.276L287.652,28.068L287.848,28.362L288.045,28.656L288.243,37.597L288.438,29.241L288.635,29.534L288.833,39.408L289.027,25.329L289.225,25.624L289.42,36.43L289.618,30.031L289.815,30.321L290.01,37.281L290.208,28.994L290.402,29.284L290.6,36.226L290.798,27.963L290.993,28.253L291.388,27.885L291.78,28.462L291.975,34.417L292.173,26.208L292.37,26.498L292.565,32.438L292.763,32.721L292.96,33.005L293.155,36.105L293.353,29.816L293.548,30.101L293.745,36.942L293.943,34.412L294.138,34.692L294.335,36.84L294.533,30.584L294.728,30.867L294.925,40.466L295.12,25.846L295.318,26.132L295.515,26.418L295.71,37.843L295.908,30.698L296.105,30.978L296.3,37.74L296.498,28.764L296.693,29.045L296.89,44.101L297.088,29.607L297.283,29.888L297.48,37.535L297.678,26.766L297.873,27.048L298.07,35.597L298.265,33.118L298.463,33.393L298.66,30.92L298.855,32.112L299.25,32.664L299.643,35.038L299.838,35.31L300.035,41.045L300.233,24.027L300.428,24.308L300.625,36.395L300.823,28.499L301.018,28.776L301.215,34.486L301.41,25.708L301.608,25.986L301.805,32.587L302,31.957L302.173,32.196L302.345,32.434L302.518,34.473L302.69,28.41L302.863,28.651L303.035,31.587L303.208,25.54L303.38,25.783L303.553,26.024L303.725,36.12L303.898,30.087L304.07,30.326L304.243,33.245L304.413,34.374L304.585,27.469L304.758,27.708L304.93,35.967L305.103,32.638L305.275,32.873L305.448,33.107L305.793,30.913L306.138,30.497L306.31,28.075L306.655,28.549L306.828,36.74L307,32.554L307.173,32.787L307.345,37.429L307.518,36.777L307.688,31.724L307.86,31.957L308.033,33.948L308.205,30.665L308.378,30.898L308.55,31.131L308.723,38.377L308.895,28.092L309.068,28.327L309.24,35.558L309.413,34.913L309.585,30.775L309.758,31.007L309.93,39.96L310.103,29.727L310.275,29.959L310.448,30.191L310.62,35.64L310.79,34.998L310.962,35.225L311.135,36.321L311.308,27.877L311.48,28.109L311.652,28.341L311.825,39.819L311.998,31.398L312.17,31.627L312.342,37.898L312.515,34.671L312.688,33.174L312.86,33.401L313.033,32.767L313.205,25.253L313.378,25.486L313.55,25.718L313.723,33.673L313.893,29.611L314.065,29.84L314.238,28.355L314.41,27.729L315.1,27.791L315.79,29.555L316.48,27.915L317.168,28.822L317.513,26.739L317.858,27.193L318.03,29.949L318.203,28.488L318.375,28.714L318.548,33.986L318.72,36.728L318.893,31.067L319.065,31.29L319.238,34.868L319.41,28.382L319.583,28.606L319.755,28.83L319.928,37.418L320.1,30.949L320.27,31.171L320.443,33.062L320.615,29.945L320.788,32.668L320.96,32.888L321.133,30.61L321.305,28.336L321.995,30.884L322.685,32.589L322.858,32.808L323.03,33.852L323.203,27.466L323.373,27.687L323.545,33.678L323.717,32.248L323.89,26.703L324.063,26.925L327.07,29.112L330.078,28.839L330.265,29.073L330.453,30.91L330.64,28.738L330.828,28.972L331.018,34.006L331.205,23.841L331.393,24.077L331.58,24.313L331.768,33.325L331.955,32.757L332.145,32.986L332.333,37.195L332.52,29.467L332.708,29.698L332.895,27.546L333.083,30.953L333.835,29.495L334.587,29.624L334.962,30.082L335.337,30.539L335.527,34.699L335.715,27.066L335.902,27.296L336.09,38.51L336.277,31.676L336.465,31.902L336.655,32.911L336.842,25.313L337.03,25.543L337.217,28.898L337.405,35.371L337.592,30.913L337.783,31.139L337.97,32.922L338.158,28.475L338.345,28.702L338.533,32.038L338.72,28.379L338.91,28.605L339.098,35.812L339.285,32.158L339.473,29.283L339.66,29.508L339.848,32.827L340.038,28.412L340.225,28.637L340.413,28.862L340.6,28.316L341.353,29.214L342.103,29.34L345.11,29.838L348.118,28.074L360.215,26.502L372.315,27.812L399.068,29.473L424.522,26.779L437.755,24.892L450.99,24.773L462.13,27.152L473.268,27.856L500.47,26.085L526.04,25.632L567.003,24.874L573.308,21.546" style="fill:none;fill-rule:nonzero;stroke:rgb(0,154,249);stroke-width:1px;"/>
                    <path d="M366.712,344.33L570.663,344.33L570.663,318.41L366.712,318.41L366.712,344.33" style="fill:none;fill-rule:nonzero;stroke:rgb(169,169,179);stroke-width:1px;"/>
                    <path d="M372.555,331.37L407.61,331.37" style="fill:none;fill-rule:nonzero;stroke:rgb(0,154,249);stroke-width:1px;"/>
                    <path d="M418.598,330.475L416.913,330.475L416.428,332.408L418.123,332.408L418.598,330.475M417.728,327.183L417.128,329.583L418.818,329.583L419.425,327.183L420.35,327.183L419.755,329.583L421.56,329.583L421.56,330.475L419.527,330.475L419.053,332.408L420.895,332.408L420.895,333.293L418.828,333.293L418.225,335.69L417.3,335.69L417.897,333.293L416.2,333.293L415.605,335.69L414.673,335.69L415.275,333.293L413.453,333.293L413.453,332.408L415.49,332.408L415.975,330.475L414.113,330.475L414.113,329.583L416.2,329.583L416.79,327.183L417.728,327.183Z" style="fill:rgb(169,169,179);"/>
                    <path d="M429.865,329.955C429.293,329.955 428.842,330.178 428.51,330.625C428.178,331.068 428.013,331.678 428.013,332.455C428.013,333.23 428.177,333.841 428.505,334.288C428.837,334.733 429.29,334.955 429.865,334.955C430.432,334.955 430.881,334.731 431.212,334.283C431.544,333.836 431.71,333.227 431.71,332.455C431.71,331.687 431.544,331.078 431.212,330.63C430.881,330.18 430.432,329.955 429.865,329.955M429.865,329.05C430.79,329.05 431.517,329.352 432.045,329.955C432.573,330.557 432.837,331.39 432.837,332.455C432.837,333.515 432.573,334.348 432.045,334.955C431.517,335.557 430.79,335.858 429.865,335.858C428.935,335.858 428.206,335.557 427.678,334.955C427.152,334.348 426.89,333.515 426.89,332.455C426.89,331.39 427.152,330.557 427.678,329.955C428.206,329.352 428.935,329.05 429.865,329.05Z" style="fill:rgb(169,169,179);"/>
                    <path d="M433.84,329.208L434.967,329.208L436.993,334.648L439.02,329.208L440.147,329.208L437.717,335.69L436.27,335.69L433.84,329.208Z" style="fill:rgb(169,169,179);"/>
                    <path d="M447.16,332.183L447.16,332.703L442.265,332.703C442.312,333.436 442.532,333.995 442.925,334.38C443.322,334.763 443.873,334.955 444.58,334.955C444.988,334.955 445.384,334.904 445.768,334.803C446.153,334.703 446.534,334.553 446.913,334.353L446.913,335.36C446.531,335.522 446.139,335.645 445.738,335.73C445.336,335.815 444.929,335.858 444.518,335.858C443.482,335.858 442.662,335.557 442.058,334.955C441.456,334.352 441.155,333.538 441.155,332.513C441.155,331.451 441.44,330.609 442.01,329.988C442.585,329.363 443.359,329.05 444.333,329.05C445.204,329.05 445.893,329.332 446.397,329.895C446.906,330.455 447.16,331.218 447.16,332.183M446.098,331.87C446.089,331.287 445.925,330.822 445.605,330.475C445.288,330.128 444.868,329.955 444.342,329.955C443.749,329.955 443.272,330.123 442.913,330.458C442.558,330.792 442.353,331.265 442.3,331.875L446.098,331.87Z" style="fill:rgb(169,169,179);"/>
                    <path d="M452.665,330.203C452.545,330.133 452.413,330.083 452.27,330.053C452.132,330.018 451.978,330 451.808,330C451.206,330 450.743,330.197 450.42,330.59C450.1,330.98 449.94,331.542 449.94,332.275L449.94,335.69L448.868,335.69L448.868,329.208L449.94,329.208L449.94,330.215C450.163,329.822 450.454,329.53 450.813,329.34C451.171,329.147 451.607,329.05 452.12,329.05C452.193,329.05 452.274,329.056 452.363,329.068C452.453,329.076 452.552,329.09 452.66,329.11L452.665,330.203Z" style="fill:rgb(169,169,179);"/>
                    <rect x="453.783" y="326.685" width="1.065" height="9.005" style="fill:rgb(169,169,179);"/>
                    <path d="M460.02,332.43C459.16,332.43 458.564,332.528 458.233,332.725C457.901,332.922 457.735,333.258 457.735,333.733C457.735,334.111 457.858,334.412 458.105,334.635C458.355,334.855 458.694,334.965 459.123,334.965C459.712,334.965 460.185,334.757 460.54,334.34C460.9,333.92 461.08,333.363 461.08,332.668L461.08,332.43L460.02,332.43M462.143,331.99L462.143,335.69L461.08,335.69L461.08,334.705C460.837,335.098 460.533,335.39 460.17,335.58C459.808,335.765 459.365,335.858 458.84,335.858C458.177,335.858 457.648,335.672 457.253,335.3C456.864,334.927 456.67,334.428 456.67,333.803C456.67,333.073 456.913,332.523 457.397,332.152C457.888,331.783 458.617,331.598 459.585,331.598L461.08,331.598L461.08,331.493C461.08,331.003 460.917,330.625 460.592,330.36C460.272,330.09 459.821,329.955 459.238,329.955C458.868,329.955 458.508,329.999 458.158,330.087C457.806,330.176 457.467,330.309 457.143,330.488L457.143,329.503C457.533,329.352 457.911,329.241 458.277,329.168C458.644,329.089 459.001,329.05 459.348,329.05C460.286,329.05 460.987,329.293 461.45,329.78C461.912,330.267 462.143,331.003 462.143,331.99Z" style="fill:rgb(169,169,179);"/>
                    <path d="M465.368,334.717L465.368,338.155L464.298,338.155L464.298,329.208L465.368,329.208L465.368,330.19C465.591,329.805 465.873,329.52 466.212,329.335C466.556,329.145 466.965,329.05 467.44,329.05C468.227,329.05 468.865,329.363 469.355,329.988C469.848,330.613 470.095,331.435 470.095,332.455C470.095,333.473 469.848,334.295 469.355,334.92C468.865,335.545 468.227,335.858 467.44,335.858C466.965,335.858 466.556,335.765 466.212,335.58C465.873,335.39 465.591,335.103 465.368,334.717M468.99,332.455C468.99,331.672 468.828,331.058 468.503,330.613C468.183,330.166 467.741,329.943 467.178,329.943C466.614,329.943 466.171,330.166 465.848,330.613C465.528,331.058 465.368,331.672 465.368,332.455C465.368,333.237 465.528,333.852 465.848,334.3C466.171,334.743 466.614,334.965 467.178,334.965C467.741,334.965 468.183,334.743 468.503,334.3C468.828,333.852 468.99,333.237 468.99,332.455Z" style="fill:rgb(169,169,179);"/>
                    <path d="M472.89,334.717L472.89,338.155L471.82,338.155L471.82,329.208L472.89,329.208L472.89,330.19C473.113,329.805 473.395,329.52 473.735,329.335C474.078,329.145 474.488,329.05 474.962,329.05C475.749,329.05 476.388,329.363 476.878,329.988C477.371,330.613 477.618,331.435 477.618,332.455C477.618,333.473 477.371,334.295 476.878,334.92C476.388,335.545 475.749,335.858 474.962,335.858C474.488,335.858 474.078,335.765 473.735,335.58C473.395,335.39 473.113,335.103 472.89,334.717M476.513,332.455C476.513,331.672 476.351,331.058 476.027,330.613C475.708,330.166 475.266,329.943 474.703,329.943C474.139,329.943 473.695,330.166 473.37,330.613C473.05,331.058 472.89,331.672 472.89,332.455C472.89,333.237 473.05,333.852 473.37,334.3C473.695,334.743 474.139,334.965 474.703,334.965C475.266,334.965 475.708,334.743 476.027,334.3C476.351,333.852 476.513,333.237 476.513,332.455Z" style="fill:rgb(169,169,179);"/>
                    <path d="M479.383,329.208L480.448,329.208L480.448,335.69L479.383,335.69L479.383,329.208M479.383,326.685L480.448,326.685L480.448,328.033L479.383,328.033L479.383,326.685Z" style="fill:rgb(169,169,179);"/>
                    <path d="M488.063,331.777L488.063,335.69L487,335.69L487,331.813C487,331.199 486.88,330.74 486.64,330.435C486.402,330.13 486.043,329.978 485.563,329.978C484.989,329.978 484.537,330.161 484.205,330.527C483.872,330.894 483.705,331.393 483.705,332.025L483.705,335.69L482.635,335.69L482.635,329.208L483.705,329.208L483.705,330.215C483.96,329.825 484.259,329.533 484.603,329.34C484.951,329.147 485.35,329.05 485.8,329.05C486.545,329.05 487.108,329.282 487.49,329.745C487.872,330.205 488.063,330.883 488.063,331.777Z" style="fill:rgb(169,169,179);"/>
                    <path d="M494.453,332.373C494.453,331.601 494.293,331.003 493.973,330.58C493.656,330.155 493.21,329.943 492.635,329.943C492.065,329.943 491.619,330.155 491.298,330.58C490.983,331.003 490.825,331.601 490.825,332.373C490.825,333.141 490.983,333.737 491.298,334.16C491.619,334.585 492.065,334.798 492.635,334.798C493.21,334.798 493.656,334.585 493.973,334.16C494.293,333.737 494.453,333.141 494.453,332.373M495.518,334.885C495.518,335.988 495.272,336.808 494.783,337.345C494.293,337.885 493.543,338.155 492.533,338.155C492.158,338.155 491.804,338.126 491.473,338.068C491.141,338.014 490.818,337.929 490.505,337.813L490.505,336.777C490.818,336.948 491.128,337.073 491.433,337.152C491.738,337.234 492.048,337.275 492.363,337.275C493.061,337.275 493.584,337.092 493.933,336.725C494.279,336.362 494.453,335.812 494.453,335.075L494.453,334.55C494.233,334.932 493.951,335.217 493.608,335.405C493.264,335.595 492.853,335.69 492.375,335.69C491.58,335.69 490.939,335.387 490.453,334.78C489.968,334.175 489.725,333.373 489.725,332.373C489.725,331.369 489.968,330.565 490.453,329.96C490.939,329.353 491.58,329.05 492.375,329.05C492.853,329.05 493.264,329.145 493.608,329.335C493.951,329.523 494.233,329.808 494.453,330.19L494.453,329.208L495.518,329.208L495.518,334.885Z" style="fill:rgb(169,169,179);"/>
                    <path d="M505.233,330.203C505.114,330.133 504.983,330.083 504.84,330.053C504.702,330.018 504.548,330 504.378,330C503.776,330 503.313,330.197 502.988,330.59C502.668,330.98 502.508,331.542 502.508,332.275L502.508,335.69L501.438,335.69L501.438,329.208L502.508,329.208L502.508,330.215C502.731,329.822 503.022,329.53 503.383,329.34C503.741,329.147 504.177,329.05 504.69,329.05C504.763,329.05 504.844,329.056 504.933,329.068C505.021,329.076 505.119,329.09 505.228,329.11L505.233,330.203Z" style="fill:rgb(169,169,179);"/>
                    <path d="M508.603,329.955C508.031,329.955 507.579,330.178 507.248,330.625C506.916,331.068 506.75,331.678 506.75,332.455C506.75,333.23 506.914,333.841 507.243,334.288C507.574,334.733 508.028,334.955 508.603,334.955C509.169,334.955 509.618,334.731 509.95,334.283C510.282,333.836 510.448,333.227 510.448,332.455C510.448,331.687 510.282,331.078 509.95,330.63C509.618,330.18 509.169,329.955 508.603,329.955M508.603,329.05C509.528,329.05 510.254,329.352 510.783,329.955C511.313,330.557 511.578,331.39 511.578,332.455C511.578,333.515 511.313,334.348 510.783,334.955C510.254,335.557 509.528,335.858 508.603,335.858C507.673,335.858 506.943,335.557 506.415,334.955C505.89,334.348 505.628,333.515 505.628,332.455C505.628,331.39 505.89,330.557 506.415,329.955C506.943,329.352 507.673,329.05 508.603,329.05Z" style="fill:rgb(169,169,179);"/>
                    <path d="M513.232,333.13L513.232,329.208L514.295,329.208L514.295,333.09C514.295,333.703 514.415,334.164 514.655,334.473C514.895,334.778 515.254,334.93 515.732,334.93C516.306,334.93 516.759,334.747 517.092,334.38C517.428,334.013 517.595,333.514 517.595,332.883L517.595,329.208L518.66,329.208L518.66,335.69L517.595,335.69L517.595,334.693C517.337,335.086 517.036,335.379 516.693,335.573C516.352,335.763 515.957,335.858 515.505,335.858C514.762,335.858 514.197,335.626 513.81,335.163C513.425,334.699 513.232,334.022 513.232,333.13" style="fill:rgb(169,169,179);"/>
                    <path d="M526.24,331.777L526.24,335.69L525.175,335.69L525.175,331.813C525.175,331.199 525.056,330.74 524.818,330.435C524.578,330.13 524.218,329.978 523.74,329.978C523.165,329.978 522.712,330.161 522.38,330.527C522.048,330.894 521.883,331.393 521.883,332.025L521.883,335.69L520.813,335.69L520.813,329.208L521.883,329.208L521.883,330.215C522.138,329.825 522.437,329.533 522.78,329.34C523.127,329.147 523.526,329.05 523.977,329.05C524.723,329.05 525.286,329.282 525.668,329.745C526.049,330.205 526.24,330.883 526.24,331.777Z" style="fill:rgb(169,169,179);"/>
                    <path d="M532.63,330.19L532.63,326.685L533.695,326.685L533.695,335.69L532.63,335.69L532.63,334.717C532.407,335.103 532.122,335.39 531.778,335.58C531.439,335.765 531.031,335.858 530.553,335.858C529.769,335.858 529.131,335.545 528.638,334.92C528.148,334.295 527.903,333.473 527.903,332.455C527.903,331.435 528.148,330.613 528.638,329.988C529.131,329.363 529.769,329.05 530.553,329.05C531.031,329.05 531.439,329.145 531.778,329.335C532.122,329.52 532.407,329.805 532.63,330.19M529,332.455C529,333.237 529.161,333.852 529.483,334.3C529.806,334.743 530.249,334.965 530.813,334.965C531.376,334.965 531.819,334.743 532.143,334.3C532.468,333.852 532.63,333.237 532.63,332.455C532.63,331.672 532.468,331.058 532.143,330.613C531.819,330.166 531.376,329.943 530.813,329.943C530.249,329.943 529.806,330.166 529.483,330.613C529.161,331.058 529,331.672 529,332.455Z" style="fill:rgb(169,169,179);"/>
                    <path d="M540.02,329.398L540.02,330.405C539.718,330.252 539.406,330.136 539.083,330.058C538.758,329.981 538.422,329.943 538.075,329.943C537.547,329.943 537.149,330.023 536.883,330.185C536.621,330.347 536.49,330.59 536.49,330.915C536.49,331.162 536.584,331.357 536.773,331.5C536.963,331.638 537.343,331.771 537.913,331.898L538.278,331.98C539.034,332.142 539.571,332.371 539.888,332.668C540.208,332.961 540.367,333.372 540.367,333.9C540.367,334.502 540.128,334.978 539.65,335.33C539.175,335.682 538.521,335.858 537.688,335.858C537.341,335.858 536.978,335.823 536.6,335.753C536.225,335.688 535.829,335.587 535.413,335.453L535.413,334.353C535.806,334.556 536.193,334.71 536.575,334.815C536.958,334.915 537.337,334.965 537.71,334.965C538.212,334.965 538.598,334.88 538.867,334.71C539.138,334.537 539.273,334.294 539.273,333.983C539.273,333.693 539.174,333.47 538.978,333.315C538.784,333.162 538.358,333.013 537.7,332.87L537.328,332.785C536.669,332.645 536.193,332.433 535.9,332.148C535.607,331.857 535.46,331.462 535.46,330.96C535.46,330.352 535.676,329.882 536.108,329.55C536.539,329.217 537.153,329.05 537.948,329.05C538.341,329.05 538.712,329.079 539.06,329.138C539.407,329.196 539.727,329.283 540.02,329.398Z" style="fill:rgb(169,169,179);"/>
                    <path d="M547.723,327.05L548.705,327.05L545.698,336.788L544.713,336.788L547.723,327.05Z" style="fill:rgb(169,169,179);"/>
                    <path d="M558.978,331.777L558.978,335.69L557.913,335.69L557.913,331.813C557.913,331.199 557.793,330.74 557.555,330.435C557.315,330.13 556.956,329.978 556.478,329.978C555.903,329.978 555.449,330.161 555.117,330.527C554.786,330.894 554.62,331.393 554.62,332.025L554.62,335.69L553.55,335.69L553.55,329.208L554.62,329.208L554.62,330.215C554.875,329.825 555.174,329.533 555.518,329.34C555.864,329.147 556.263,329.05 556.715,329.05C557.46,329.05 558.023,329.282 558.405,329.745C558.787,330.205 558.978,330.883 558.978,331.777Z" style="fill:rgb(169,169,179);"/>
                </g>
            </g>
        </g>
    </g>
</svg>
